<svg xmlns="http://www.w3.org/2000/svg" xmlns:xlink="http://www.w3.org/1999/xlink" width="200.117" height="48.567" viewBox="0 0 200.117 48.567"><defs><style>.a{fill:none;}.b{clip-path:url(#a);}.c{fill:#004896;}.d{fill:#e52d24;}</style><clipPath id="a"><rect class="a" width="200.117" height="48.567"/></clipPath></defs><g class="b"><path class="c" d="M348.046,204.412a2.611,2.611,0,0,1,2.224-1.265c1.64,0,2.717,1.756,2.717,4.473,0,2.295-1.054,3.817-2.576,3.817a2.842,2.842,0,0,1-2.365-1.381Zm-3.888,13.372h5.6v-.959h-1.709v-5.317a4.925,4.925,0,0,0,6.182-.914,5.924,5.924,0,0,0,1.124-3.511c0-3.093-1.756-5.06-4.473-5.06a3.965,3.965,0,0,0-2.833,1.218v-.984h-3.888v.984h1.733v13.584h-1.733Z" transform="translate(-343.914 -195.911)"/><path class="c" d="M357.459,211.086h1.756v-7.845h-1.756v-.984h3.958V203.9h.047c1.124-1.428,1.709-1.873,2.342-1.873a2.244,2.244,0,0,1,1.686.89,7.432,7.432,0,0,1-.89,2.412,1.708,1.708,0,0,1-.141-.211c-.538-.937-.819-1.171-1.428-1.171-.492,0-.914.305-1.616,1.171v5.972h1.709v.96h-5.667Z" transform="translate(-343.914 -195.911)"/><path class="c" d="M369.872,207.293V207.1c0-2.529,1.1-4.1,2.9-4.1,2.061,0,3.115,1.452,3.115,4.356,0,2.459-1.125,3.911-3.022,3.911-1.85,0-2.95-1.43-3-3.981m-2.389-.141a5.111,5.111,0,0,0,5.363,5.057c3.162,0,5.433-2.13,5.433-5.08a5.406,5.406,0,0,0-10.8.023" transform="translate(-343.914 -195.911)"/><path class="c" d="M380.106,202.257H385v.984h-1.312l2.365,5.5,1.991-5.5h-1.428v-.984h3.723v.984H389l-3.3,9.016h-.445l-3.887-9.016h-1.265Z" transform="translate(-343.914 -195.911)"/><path class="c" d="M392.213,211.087h1.71v-7.846h-1.71v-.983h3.864v8.829h1.663v.96h-5.527Zm1.663-13.232a1.3,1.3,0,0,1,.913-.4,1.329,1.329,0,0,1,1.335,1.311,1.3,1.3,0,0,1-1.335,1.359,1.376,1.376,0,0,1-1.335-1.382,1.19,1.19,0,0,1,.422-.89" transform="translate(-343.914 -195.911)"/><path class="c" d="M399.661,211.086h1.756v-7.845h-1.756v-.984H403.6v1.1l.141-.094a5.893,5.893,0,0,1,3.372-1.241,2.8,2.8,0,0,1,2.155.843,3.642,3.642,0,0,1,.632,2.576v5.644h1.733v.96H406.2v-.96h1.546v-5.293c0-1.733-.516-2.482-1.757-2.482a4.1,4.1,0,0,0-2.389,1.007v6.768h1.616v.96h-5.55Z" transform="translate(-343.914 -195.911)"/><path class="c" d="M413.665,209.212h.515a2.625,2.625,0,0,0,2.576,2.18,1.481,1.481,0,0,0,1.64-1.267c0-.585-.492-1.147-1.429-1.661l-.937-.517c-1.662-.89-2.412-1.85-2.412-3.091a3.024,3.024,0,0,1,3.185-2.834,4.533,4.533,0,0,1,1.921.516l.117-.539h.679v2.67h-.562a2.148,2.148,0,0,0-2.038-1.732A1.438,1.438,0,0,0,415.4,204.2c0,.633.328.984,1.756,1.757,1.78.96,2.366,1.428,2.811,2.156a2.532,2.532,0,0,1,.328,1.265,3.068,3.068,0,0,1-3.279,2.832,5.481,5.481,0,0,1-2.389-.537l-.14-.071-.141.678h-.679Z" transform="translate(-343.914 -195.911)"/><path class="c" d="M422.307,202.257h3.864v10.492a5.4,5.4,0,0,1-1.616,4.192,3.61,3.61,0,0,1-1.967.937.457.457,0,0,1-.492-.445c0-.164.117-.328.515-.632a3.143,3.143,0,0,0,1.382-2.951V203.241h-1.686Zm2.576-4.824a1.359,1.359,0,1,1-1.335,1.335,1.342,1.342,0,0,1,1.335-1.335" transform="translate(-343.914 -195.911)"/><path class="c" d="M432.165,205.466c.141-1.686.82-2.53,2.014-2.53,1.148,0,1.991.984,2.155,2.53Zm6.464.913c-.375-2.787-1.944-4.356-4.356-4.356-2.67,0-4.45,1.9-4.45,4.778A5.069,5.069,0,0,0,435,212.21a6.371,6.371,0,0,0,3.536-1.077l.094-.047.164-1.054-.117.047a6.1,6.1,0,0,1-2.974.984c-2.155,0-3.537-1.757-3.537-4.59v-.094Z" transform="translate(-343.914 -195.911)"/><path class="c" d="M446.779,211.086h1.708v-7.728H446.92v-1.1h1.567v-1.03c0-3.443,1.945-5.317,5.482-5.317a13.591,13.591,0,0,1,1.475.117l.141.024v3.068h-.751l-.022-.281c-.141-1.335-.632-1.874-1.712-1.874-1.567,0-2.435,1.195-2.435,3.349v1.944h2.343v1.1h-2.343v7.728h1.9v.96h-5.785Z" transform="translate(-343.914 -195.911)"/><path class="c" d="M454.531,211.086h1.756v-7.845h-1.756v-.984h3.958V203.9h.047c1.122-1.428,1.709-1.873,2.342-1.873a2.244,2.244,0,0,1,1.686.89,7.432,7.432,0,0,1-.89,2.412,1.709,1.709,0,0,1-.141-.211c-.54-.937-.821-1.171-1.428-1.171-.492,0-.914.305-1.616,1.171v5.972H460.2v.96h-5.667Z" transform="translate(-343.914 -195.911)"/><path class="c" d="M464.108,202.257h4.731v.984h-1.216l2.34,6.253,2.459-6.253h-1.169v-.984h3.277v.984h-1.171l-5.736,14.543h-1.829l2.764-6.159-3.16-8.384h-1.29Z" transform="translate(-343.914 -195.911)"/><path class="c" d="M476.52,209.212h.517a2.621,2.621,0,0,0,2.574,2.18,1.481,1.481,0,0,0,1.64-1.267c0-.585-.492-1.147-1.427-1.661l-.939-.517c-1.662-.89-2.412-1.85-2.412-3.091a3.024,3.024,0,0,1,3.185-2.834,4.533,4.533,0,0,1,1.921.516L481.7,202h.679v2.67h-.562a2.147,2.147,0,0,0-2.038-1.732,1.438,1.438,0,0,0-1.522,1.263c0,.633.328.984,1.756,1.757,1.78.96,2.366,1.428,2.811,2.156a2.521,2.521,0,0,1,.328,1.265,3.068,3.068,0,0,1-3.279,2.832,5.481,5.481,0,0,1-2.389-.537l-.14-.071-.141.678h-.679Z" transform="translate(-343.914 -195.911)"/><path class="c" d="M484.9,211.086h1.733V197.6H484.9v-.961h3.958v14.45h1.711v.96H484.9Z" transform="translate(-343.914 -195.911)"/><path class="c" d="M497.972,197.2l2.178,3.794H499.8l-3.115-2.436-2.623,2.436h-.351l2.154-3.794Zm-5.129,6.393a6.15,6.15,0,0,1,3.724-1.569c1.9,0,3.091,1.288,3.091,3.4v4c0,.983.4,1.592,1.054,1.592a5.052,5.052,0,0,0,.843-.117l.117-.023v.656a4.065,4.065,0,0,1-2.109.679c-.795,0-1.286-.375-1.8-1.335a5.482,5.482,0,0,1-2.9,1.335,2.4,2.4,0,0,1-2.248-2.576c0-1.382.8-2.178,2.717-2.623l1.944-.469.21-.07v-1.405c0-1.195-.562-1.8-1.686-1.8a5.655,5.655,0,0,0-2.718,1.007Zm4.45,3.888c-1.944.492-2.693,1.054-2.693,1.991a1.28,1.28,0,0,0,1.241,1.311,2.71,2.71,0,0,0,1.639-.726v-2.623Z" transform="translate(-343.914 -195.911)"/><path class="c" d="M503.241,211.086H505v-7.845h-1.756v-.984h3.936v1.1l.141-.094a5.882,5.882,0,0,1,3.37-1.241,2.8,2.8,0,0,1,2.155.843,3.632,3.632,0,0,1,.632,2.576v5.644h1.733v.96h-5.433v-.96h1.546v-5.293c0-1.733-.516-2.482-1.757-2.482a4.1,4.1,0,0,0-2.387,1.007v6.768h1.614v.96h-5.55Z" transform="translate(-343.914 -195.911)"/><path class="c" d="M447.023,232.443h1.708v-7.728h-1.567v-1.1h1.567v-1.032c0-3.443,1.945-5.315,5.482-5.315a13.511,13.511,0,0,1,1.475.115l.141.026v3.067h-.751l-.022-.281c-.141-1.336-.632-1.873-1.71-1.873-1.569,0-2.435,1.193-2.435,3.349v1.944h2.341v1.1h-2.341v7.728h1.9v.96h-5.785Z" transform="translate(-343.914 -195.911)"/><path class="c" d="M454.774,232.443h1.756V224.6h-1.756v-.983h3.958v1.637h.047c1.124-1.427,1.709-1.873,2.342-1.873a2.244,2.244,0,0,1,1.686.89,7.453,7.453,0,0,1-.89,2.414,2.078,2.078,0,0,1-.141-.211c-.538-.939-.819-1.173-1.428-1.173-.492,0-.914.3-1.616,1.173v5.97h1.709v.96h-5.667Z" transform="translate(-343.914 -195.911)"/><path class="c" d="M464.352,223.615h4.731v.984h-1.216l2.34,6.251,2.46-6.251H471.5v-.984h3.277v.984H473.6l-5.736,14.541H466.04l2.762-6.157-3.16-8.384h-1.29Z" transform="translate(-343.914 -195.911)"/><path class="c" d="M476.764,230.57h.517a2.623,2.623,0,0,0,2.576,2.18,1.48,1.48,0,0,0,1.638-1.267c0-.585-.492-1.147-1.427-1.661l-.939-.517c-1.662-.89-2.41-1.848-2.41-3.091a3.022,3.022,0,0,1,3.183-2.834,4.52,4.52,0,0,1,1.921.517l.118-.54h.678v2.67h-.562a2.148,2.148,0,0,0-2.038-1.733,1.44,1.44,0,0,0-1.522,1.264c0,.634.328.986,1.756,1.758,1.78.959,2.366,1.427,2.812,2.155a2.531,2.531,0,0,1,.327,1.265,3.067,3.067,0,0,1-3.279,2.832,5.481,5.481,0,0,1-2.389-.537l-.14-.071-.141.678h-.679Z" transform="translate(-343.914 -195.911)"/><path class="c" d="M485.149,232.443h1.731V218.955h-1.731v-.962H489.1v14.45h1.711v.96h-5.667Z" transform="translate(-343.914 -195.911)"/><path class="c" d="M493.087,224.951a6.142,6.142,0,0,1,3.724-1.571c1.9,0,3.091,1.289,3.091,3.4v4c0,.982.4,1.591,1.054,1.591a4.931,4.931,0,0,0,.843-.114l.117-.025v.657a4.071,4.071,0,0,1-2.107.678c-.8,0-1.288-.375-1.8-1.335a5.468,5.468,0,0,1-2.9,1.335,2.4,2.4,0,0,1-2.248-2.576c0-1.381.8-2.178,2.717-2.622l1.944-.47.21-.07v-1.4c0-1.194-.562-1.8-1.686-1.8a5.667,5.667,0,0,0-2.716,1.007Zm5.129-6.4,2.178,3.793h-.351l-3.115-2.435-2.623,2.435h-.351l2.154-3.793Zm-.679,10.28c-1.944.494-2.692,1.057-2.692,1.992a1.282,1.282,0,0,0,1.24,1.313,2.7,2.7,0,0,0,1.639-.728v-2.621Z" transform="translate(-343.914 -195.911)"/><path class="c" d="M503.485,232.443h1.758V224.6h-1.758v-.983h3.936v1.1l.141-.094a5.887,5.887,0,0,1,3.37-1.241,2.8,2.8,0,0,1,2.155.843,3.632,3.632,0,0,1,.632,2.576v5.644h1.733v.96h-5.433v-.96h1.546V227.15c0-1.733-.516-2.48-1.757-2.48a4.1,4.1,0,0,0-2.387,1.005v6.768h1.614v.96h-5.55Z" transform="translate(-343.914 -195.911)"/><path class="c" d="M347.8,225.341a2.616,2.616,0,0,1,2.224-1.265c1.64,0,2.717,1.758,2.717,4.473,0,2.295-1.054,3.817-2.576,3.817a2.842,2.842,0,0,1-2.365-1.381Zm-3.888,13.372h5.6v-.958H347.8v-5.318a4.925,4.925,0,0,0,6.182-.914,5.924,5.924,0,0,0,1.124-3.511c0-3.093-1.756-5.06-4.473-5.06a3.967,3.967,0,0,0-2.833,1.219v-.983h-3.888v.983h1.733v13.584h-1.733Z" transform="translate(-343.914 -195.911)"/><path class="c" d="M357.216,232.016h1.756v-7.844h-1.756v-.983h3.958v1.637h.047c1.124-1.427,1.709-1.873,2.342-1.873a2.244,2.244,0,0,1,1.686.89,7.454,7.454,0,0,1-.89,2.414,2.085,2.085,0,0,1-.141-.211c-.538-.939-.819-1.173-1.428-1.173-.492,0-.914.3-1.616,1.173v5.97h1.709v.96h-5.667Z" transform="translate(-343.914 -195.911)"/><path class="c" d="M369.629,228.223v-.188c0-2.529,1.1-4.1,2.9-4.1,2.061,0,3.114,1.454,3.114,4.358,0,2.459-1.124,3.911-3.021,3.911-1.85,0-2.95-1.43-3-3.981m-2.389-.141a5.111,5.111,0,0,0,5.363,5.057c3.162,0,5.433-2.13,5.433-5.082a5.406,5.406,0,0,0-10.8.025" transform="translate(-343.914 -195.911)"/><path class="c" d="M379.862,223.188h4.895v.984h-1.312l2.365,5.5,1.991-5.5h-1.428v-.984H390.1v.984h-1.335l-3.3,9.016h-.445l-3.887-9.016h-1.265Z" transform="translate(-343.914 -195.911)"/><path class="c" d="M391.97,232.015h1.71v-7.844h-1.71v-.984h3.864v8.828H397.5v.96H391.97Zm1.663-13.232a1.3,1.3,0,0,1,.913-.4,1.328,1.328,0,0,1,1.335,1.311,1.3,1.3,0,0,1-1.335,1.357,1.376,1.376,0,0,1-1.335-1.382,1.19,1.19,0,0,1,.422-.89" transform="translate(-343.914 -195.911)"/><path class="c" d="M399.417,232.016h1.756v-7.844h-1.756v-.983h3.934v1.1l.141-.094a5.892,5.892,0,0,1,3.372-1.241,2.807,2.807,0,0,1,2.155.843,3.642,3.642,0,0,1,.632,2.576v5.644h1.733v.96h-5.433v-.96H407.5v-5.293c0-1.733-.516-2.48-1.757-2.48a4.1,4.1,0,0,0-2.389,1.005v6.768h1.616v.96h-5.55Z" transform="translate(-343.914 -195.911)"/><path class="c" d="M421.407,225.974h-.679c-.422-1.521-1.171-2.18-2.436-2.18a2.452,2.452,0,0,0-1.873,1.01,4.166,4.166,0,0,0-.656,2.62c0,3.024,1.077,4.5,3.255,4.5a4.2,4.2,0,0,0,2.412-.913c.071-.07.118-.1.141-.119.047-.021.07-.046.117-.046a.173.173,0,0,1,.141.117l.093.163.047.117a.308.308,0,0,1,.023.164c0,.166-.163.4-.468.609a5.311,5.311,0,0,1-3.325,1.149c-2.764,0-4.848-2.294-4.848-5.318a4.609,4.609,0,0,1,4.684-4.894,6.321,6.321,0,0,1,2.529.561l.164-.582h.679Z" transform="translate(-343.914 -195.911)"/><path class="c" d="M424.007,232.015h1.708v-7.844h-1.708v-.984h3.863v8.828h1.664v.96h-5.527Zm1.663-13.232a1.3,1.3,0,0,1,.913-.4,1.328,1.328,0,0,1,1.335,1.311,1.3,1.3,0,0,1-1.335,1.357,1.375,1.375,0,0,1-1.335-1.382,1.19,1.19,0,0,1,.422-.89" transform="translate(-343.914 -195.911)"/><path class="c" d="M434.147,226.4c.141-1.688.82-2.531,2.014-2.531,1.148,0,1.991.983,2.155,2.531Zm6.464.913c-.375-2.787-1.944-4.356-4.356-4.356-2.67,0-4.45,1.9-4.45,4.778a5.069,5.069,0,0,0,5.176,5.408,6.385,6.385,0,0,0,3.536-1.076l.094-.048.164-1.053-.117.047a6.123,6.123,0,0,1-2.974.984c-2.155,0-3.537-1.757-3.537-4.59v-.094Z" transform="translate(-343.914 -195.911)"/><path class="d" d="M527.845,240.958c-6.143-3.816-5.171-8.744-4.565-11.454a7.332,7.332,0,0,1,3.948-5.359,5.627,5.627,0,0,1,4.991.363c2.359,1.358,1.968,3.83,1.459,6.125-.115.527-.064.825.264,1.016s.614.085,1.012-.279c1.732-1.59,3.679-3.165,6.034-1.8a5.629,5.629,0,0,1,2.81,4.143,7.546,7.546,0,0,1-2.751,6.161,11.1,11.1,0,0,1-13.2,1.086" transform="translate(-343.914 -195.911)"/></g></svg>