<?xml version="1.0" encoding="UTF-8" standalone="no"?>
<svg
   xmlns:dc="http://purl.org/dc/elements/1.1/"
   xmlns:cc="http://creativecommons.org/ns#"
   xmlns:rdf="http://www.w3.org/1999/02/22-rdf-syntax-ns#"
   xmlns:svg="http://www.w3.org/2000/svg"
   xmlns="http://www.w3.org/2000/svg"
   height="85.852264"
   width="110.03217"
   version="1.1"
   viewBox="0 0 110.03214 85.852264"
   data-name="Layer 1"
   id="Layer_1">
  <metadata
     id="metadata29">
    <rdf:RDF>
      <cc:Work
         rdf:about="">
        <dc:format>image/svg+xml</dc:format>
        <dc:type
           rdf:resource="http://purl.org/dc/dcmitype/StillImage" />
        <dc:title>Open-Poen-Logo</dc:title>
      </cc:Work>
    </rdf:RDF>
  </metadata>
  <defs
     id="defs4">
    <style
       id="style2">.cls-1{fill:#265ed4;}.cls-2{fill:#000059;}</style>
  </defs>
  <title
     id="title6">Open-Poen-Logo</title>
  <path
     style="fill:#265ed4"
     id="path8"
     d="m 26.63189,34.880723 a 7.67,7.67 0 0 0 -2.49,-5.56 v 0 a 8,8 0 0 0 -5.85,-2.43 h -8.44 a 2.92,2.92 0 0 0 -1.8,0.59 2,2 0 0 0 -0.23,0.18 2.34,2.34 0 0 0 -0.8700004,1.82 v 19.1 a 2.62,2.62 0 0 0 0.9200004,2 3.24,3.24 0 0 0 2.23,0.82 3.22,3.22 0 0 0 2.23,-0.82 2.62,2.62 0 0 0 0.92,-2 v -5.65 h 5 a 8.08,8.08 0 0 0 5.88,-2.44 7.68,7.68 0 0 0 2.5,-5.61 m -13.38,-2.84 h 4.51 a 2.27,2.27 0 0 1 1.78,0.92 2.78,2.78 0 0 1 0,3.84 2.29,2.29 0 0 1 -1.8,0.92 h -4.49 z"
     class="cls-1" />
  <path
     style="fill:#000059"
     id="path10"
     d="m 29.18189,17.510723 a 11.64,11.64 0 0 0 -3.55,-8.54 11.64,11.64 0 0 0 -8.54,-3.5399997 11.65,11.65 0 0 0 -8.55,3.5399997 11.64,11.64 0 0 0 -3.5400004,8.54 11.61,11.61 0 0 0 3.0000004,8 c 0.16,0.18 0.32,0.36 0.5,0.54 a 11.65,11.65 0 0 0 8.55,3.54 11.53,11.53 0 0 0 7,-2.25 13.08,13.08 0 0 0 1.58,-1.29 11.64,11.64 0 0 0 3.54,-8.54 m -6.75,0.12 a 5.34,5.34 0 0 1 -5.33,5.34 5.16,5.16 0 0 1 -3.78,-1.57 5.31,5.31 0 0 1 0,-7.54 5.12,5.12 0 0 1 3.79,-1.54 5.34,5.34 0 0 1 5.33,5.34"
     class="cls-2" />
  <path
     style="fill:#000059"
     id="path12"
     d="m 53.71189,13.050723 a 7.63,7.63 0 0 0 -2.48,-5.6 8,8 0 0 0 -5.87,-2.4499997 h -8.42 a 3,3 0 0 0 -2,0.76 2.38,2.38 0 0 0 -0.86,1.8299997 v 19.16 a 2.55,2.55 0 0 0 0.11,0.74 2.72,2.72 0 0 0 0.81,1.28 3.43,3.43 0 0 0 4.45,0 2.58,2.58 0 0 0 0.92,-2 v -5.68 h 5 a 8.1,8.1 0 0 0 5.87,-2.43 7.64,7.64 0 0 0 2.48,-5.61 m -6.29,0 a 3,3 0 0 1 -0.8,1.92 2.29,2.29 0 0 1 -1.8,0.92 h -4.49 v -5.69 h 4.51 a 2.32,2.32 0 0 1 1.78,0.92 3,3 0 0 1 0.78,1.93"
     class="cls-2" />
  <path
     style="fill:#000059"
     id="path14"
     d="m 101.97189,5.0907233 a 3,3 0 0 0 -3,2.9999997 v 9.71 l -7.96,-11.3999997 a 3,3 0 0 0 -5.53,1.7299997 v 19.43 a 3.1,3.1 0 0 0 0.08,0.69 3,3 0 0 1 0.9,-1.53 3,3 0 0 0 -0.9,1.53 3,3 0 0 0 5.95,-0.33 l -0.43,-0.6 0.44,0.63 c 0,-0.12 0,-0.24 0,-0.36 v -9.74 l 7.42,10.71 a 3.0045341,3.0045341 0 0 1 6,-0.33 2.93,2.93 0 0 0 0.09,-0.67 v -19.43 a 3,3 0 0 0 -3.06,-3.0399997 z m -14.34,20.9299997 v 0 a 3,3 0 0 1 1.42,-0.1 3,3 0 0 0 -1.42,0.1 z m 3.39,1.16 z"
     class="cls-2" />
  <path
     style="fill:#265ed4"
     id="path16"
     d="m 98.97189,28.560723 a 2.2,2.2 0 0 0 0,0.36 v 9.71 l -7.46,-10.71 a 3,3 0 0 1 -5.95,0.33 2.93,2.93 0 0 0 -0.08,0.67 v 19.4 a 3.035,3.035 0 1 0 6.07,0 v -9.68 l 7.92,11.44 a 3,3 0 0 0 2.5,1.31 3.07,3.07 0 0 0 0.9,-0.14 3,3 0 0 0 2.14,-2.9 v -19.43 a 3.1,3.1 0 0 0 -0.09,-0.69 m 0,0 a 3.0045341,3.0045341 0 0 0 -6,0.33"
     class="cls-1" />
  <path
     style="fill:#265ed4"
     id="path18"
     d="m 53.71189,39.320723 a 12.09,12.09 0 0 0 -12.08,-12 c -0.44,0 -0.86,0 -1.28,0.06 a 11.36,11.36 0 0 0 -6.18,2.52 12,12 0 0 0 -1.08,1 12.06,12.06 0 0 0 0,17.07 12.08,12.08 0 0 0 17.09,0 11.64,11.64 0 0 0 3.53,-8.65 m -7.25,0 a 4.85,4.85 0 1 1 -1.42,-3.41 4.64,4.64 0 0 1 1.42,3.41"
     class="cls-1" />
  <path
     style="fill:#000059"
     id="path20"
     d="m 60.23189,35.850723 v 5 a 11.06,11.06 0 0 0 11,10.6 11,11 0 0 0 9.82,-6 2.9,2.9 0 0 0 0.33,-1.32 3,3 0 0 0 -1,-2.22 3.13,3.13 0 0 0 -5,1 4.71,4.71 0 0 1 -1.72,1.85 4.69,4.69 0 0 1 -7.03,-3.97 v -25 a 4.45,4.45 0 0 1 1.38,-3.24 4.68,4.68 0 0 1 5.74,-0.69 4.67,4.67 0 0 1 1.72,1.86 3.17,3.17 0 0 0 2.84,1.82 3.1,3.1 0 0 0 2.18,-0.88 3,3 0 0 0 1,-2.21 3,3 0 0 0 -0.33,-1.34 11,11 0 0 0 -9.82,-5.9999997 10.69,10.69 0 0 0 -7.87,3.2099997 10.72,10.72 0 0 0 -3.24,7.4 z"
     class="cls-2" />
  <path
     style="fill:#000059"
     id="path22"
     d="m 60.23189,26.700723 a 2.89,2.89 0 0 1 -3,-3 2.89,2.89 0 0 1 3,-3 h 12.77 a 3,3 0 0 1 2.35,1 3.14,3.14 0 0 1 0.67,2 2.89,2.89 0 0 1 -3,3 z"
     class="cls-2" />
  <path
     style="fill:#265ed4"
     id="path24"
     d="m 60.23189,35.850723 a 3,3 0 0 1 0,-6 h 12.77 a 2.89,2.89 0 0 1 3,3 3.14,3.14 0 0 1 -0.67,2 3,3 0 0 1 -2.35,1 z"
     class="cls-1" />
  <flowRoot
     transform="translate(0.63188919,-1.6792764)"
     style="font-style:normal;font-variant:normal;font-weight:normal;font-stretch:normal;font-size:40px;line-height:125%;font-family:'IBM Plex Sans';-inkscape-font-specification:'IBM Plex Sans';letter-spacing:0px;word-spacing:13.72000027px;fill:#000000;fill-opacity:1;stroke:none;stroke-width:1px;stroke-linecap:butt;stroke-linejoin:miter;stroke-opacity:1"
     id="flowRoot39"
     xml:space="preserve"><flowRegion
       id="flowRegion41"><rect
         y="32.852566"
         x="-6.6987181"
         height="68.397438"
         width="201.66667"
         id="rect43" /></flowRegion><flowPara
       id="flowPara45"></flowPara></flowRoot>  <flowRoot
     transform="translate(0.63188919,-1.6792764)"
     style="font-style:normal;font-variant:normal;font-weight:normal;font-stretch:normal;font-size:40px;line-height:125%;font-family:'IBM Plex Sans';-inkscape-font-specification:'IBM Plex Sans';letter-spacing:0px;word-spacing:13.72000027px;fill:#000000;fill-opacity:1;stroke:none;stroke-width:1px;stroke-linecap:butt;stroke-linejoin:miter;stroke-opacity:1"
     id="flowRoot47"
     xml:space="preserve"><flowRegion
       id="flowRegion49"><rect
         y="38.493591"
         x="9.166667"
         height="96.602562"
         width="197.4359"
         id="rect51" /></flowRegion><flowPara
       id="flowPara53"></flowPara></flowRoot>  <text
     id="text57"
     y="80.570435"
     x="6.2668953"
     style="font-style:normal;font-variant:normal;font-weight:normal;font-stretch:normal;font-size:35.22917175px;line-height:125%;font-family:'IBM Plex Sans';-inkscape-font-specification:'IBM Plex Sans';letter-spacing:0px;word-spacing:12.08360672px;fill:#000000;fill-opacity:1;stroke:none;stroke-width:0.88072932px;stroke-linecap:butt;stroke-linejoin:miter;stroke-opacity:1"
     xml:space="preserve"><tspan
       style="font-style:normal;font-variant:normal;font-weight:500;font-stretch:normal;font-size:35.22917175px;font-family:Dosis;-inkscape-font-specification:'Dosis, Medium';font-variant-ligatures:normal;font-variant-caps:normal;font-variant-numeric:normal;font-feature-settings:normal;text-align:start;writing-mode:lr-tb;text-anchor:start;fill:#b82466;fill-opacity:1;stroke-width:0.88072932px"
       y="80.570435"
       x="6.2668953"
       id="tspan55">Corona</tspan></text>
</svg>
