<?xml version="1.0" encoding="UTF-8" standalone="no"?>
<!-- Created with Inkscape (http://www.inkscape.org/) -->

<svg
   xmlns:dc="http://purl.org/dc/elements/1.1/"
   xmlns:cc="http://creativecommons.org/ns#"
   xmlns:rdf="http://www.w3.org/1999/02/22-rdf-syntax-ns#"
   xmlns:svg="http://www.w3.org/2000/svg"
   xmlns="http://www.w3.org/2000/svg"
   xmlns:sodipodi="http://sodipodi.sourceforge.net/DTD/sodipodi-0.dtd"
   xmlns:inkscape="http://www.inkscape.org/namespaces/inkscape"
   version="1.1"
   id="svg2"
   xml:space="preserve"
   width="528.17969"
   height="241.81808"
   viewBox="0 0 528.17969 241.81808"
   sodipodi:docname="Open-Poen-Logo-2.svg"
   inkscape:version="0.92.3 (2405546, 2018-03-11)"><metadata
     id="metadata8"><rdf:RDF><cc:Work
         rdf:about=""><dc:format>image/svg+xml</dc:format><dc:type
           rdf:resource="http://purl.org/dc/dcmitype/StillImage" /><dc:title></dc:title></cc:Work></rdf:RDF></metadata><defs
     id="defs6" /><sodipodi:namedview
     pagecolor="#ffffff"
     bordercolor="#666666"
     borderopacity="1"
     objecttolerance="10"
     gridtolerance="10"
     guidetolerance="10"
     inkscape:pageopacity="0"
     inkscape:pageshadow="2"
     inkscape:window-width="1920"
     inkscape:window-height="1056"
     id="namedview4"
     showgrid="false"
     fit-margin-top="0"
     fit-margin-left="0"
     fit-margin-right="0"
     fit-margin-bottom="0"
     inkscape:zoom="2.0295384"
     inkscape:cx="325.17047"
     inkscape:cy="125.42323"
     inkscape:window-x="0"
     inkscape:window-y="24"
     inkscape:window-maximized="1"
     inkscape:current-layer="g10" /><g
     id="g10"
     inkscape:groupmode="layer"
     inkscape:label="ink_ext_XXXXXX"
     transform="matrix(1.3333333,0,0,-1.3333333,-2.1033661,160.97877)"><path
       inkscape:connector-curvature="0"
       style="fill:#33c1ea;stroke-width:1.6735568"
       id="path8"
       d="m 397.34917,-21.683638 v 0 a 5.0282585,5.0282585 0 0 1 -10.04134,-0.552274 l 0.41839,-0.619216 -0.41839,0.619216 a 3.4977337,3.4977337 0 0 1 0,-0.585745 v -16.266972 l -12.40106,17.974 a 5.0206706,5.0206706 0 0 0 -9.95766,-0.552273 5.0206706,5.0206706 0 0 1 -0.13389,-1.121283 v -32.567427 a 5.0792451,5.0792451 0 1 1 10.15849,0 v 16.250247 l 13.25457,-19.145501 a 5.0206706,5.0206706 0 0 1 9.27151,2.895254 v 32.567427 a 5.1712907,5.1712907 0 0 1 -0.15062,1.138018"
       class="cls-1" /><path
       inkscape:connector-curvature="0"
       style="fill:#265ed4;stroke-width:1.6735568"
       id="path10"
       d="m 392.41218,17.042467 a 5.0206706,5.0206706 0 0 1 -5.02067,-5.02067 V -4.3790596 L 374.06999,14.850108 a 5.0206706,5.0206706 0 0 1 -9.25477,-2.878518 v -32.533944 a 5.0206706,5.0206706 0 0 1 0.13389,-1.138019 5.0206706,5.0206706 0 0 0 2.15889,3.112816 5.0206706,5.0206706 0 0 1 -2.15889,-3.112816 v 0 a 5.0206706,5.0206706 0 0 1 9.95766,0.585744 l -0.10041,0.150621 0.11715,-0.150621 v 0 c 0,0.184092 0,0.384918 0,0.585746 V -4.3790596 L 387.3413,-22.302854 a 5.0282585,5.0282585 0 0 0 10.04134,0.552274 5.0206706,5.0206706 0 0 1 0.15062,1.121283 V 11.97159 a 5.0206706,5.0206706 0 0 1 -5.12108,5.070877 z"
       class="cls-2" /><path
       inkscape:connector-curvature="0"
       style="fill:#33c1ea;stroke-width:1.6735568"
       id="path12"
       d="m 243.93422,-28.059889 h 7.54774 a 3.8324451,3.8324451 0 0 0 2.97893,-1.522937 4.6692237,4.6692237 0 0 0 0,-6.443194 3.8324451,3.8324451 0 0 0 -3.0124,-1.539672 h -7.51427 z m 22.39219,-4.769638 a 12.836181,12.836181 0 0 1 -4.15042,9.371919 v 0 a 13.488868,13.488868 0 0 1 -9.79031,4.066743 h -14.14156 a 4.8867861,4.8867861 0 0 1 -3.0124,-0.987398 l -0.38492,-0.284505 a 3.949594,3.949594 0 0 1 -1.45599,-3.062609 V -55.74053 a 4.3847188,4.3847188 0 0 1 1.53967,-3.347114 5.4223243,5.4223243 0 0 1 3.73203,-1.372317 5.3888531,5.3888531 0 0 1 3.73203,1.372317 4.3847188,4.3847188 0 0 1 1.53968,3.347114 v 9.522549 h 8.36778 a 13.606017,13.606017 0 0 1 9.84051,4.083479 12.852916,12.852916 0 0 1 4.1839,9.304975"
       class="cls-1" /><path
       inkscape:connector-curvature="0"
       style="fill:#33c1ea;stroke-width:1.6735568"
       id="path14-3"
       d="m 299.51304,-40.276854 a 8.1167507,8.1167507 0 1 0 -2.37645,5.773771 7.7987749,7.7987749 0 0 0 2.37645,-5.706829 m 12.13328,0 a 20.250038,20.250038 0 0 1 -20.21656,20.149625 c -0.73637,0 -1.43926,0 -2.14215,-0.117149 a 19.112019,19.112019 0 0 1 -10.35932,-4.284306 23.26244,23.26244 0 0 1 -1.80744,-1.673557 20.183095,20.183095 0 0 1 0,-28.567626 20.216567,20.216567 0 0 1 28.60108,0 19.480202,19.480202 0 0 1 5.92439,14.292186"
       class="cls-1" /><path
       inkscape:connector-curvature="0"
       style="fill:#265ed4;stroke-width:1.6735568"
       id="path16-6"
       d="m 333.26868,-9.0148116 v 0 8.25063498 a 7.4138568,7.4138568 0 0 0 2.30951,5.40558702 7.3134434,7.3134434 0 0 0 5.52273,2.2927734 7.5310058,7.5310058 0 0 0 4.10022,-1.138019 7.8991883,7.8991883 0 0 0 2.86178,-3.1128154 5.238233,5.238233 0 0 1 8.36778,-1.573144 5.0206706,5.0206706 0 0 1 1.07108,5.9411274 A 18.409125,18.409125 0 0 1 341.06745,17.092674 17.890323,17.890323 0 0 1 327.99697,11.67035 17.856852,17.856852 0 0 1 322.59139,-0.69723462 V -8.9646056 Z"
       class="cls-2" /><path
       inkscape:connector-curvature="0"
       style="fill:#265ed4;stroke-width:1.6735568"
       id="path18-7"
       d="m 333.26868,-24.327858 v 5.204762 h -10.71076 v -5.204762 z"
       class="cls-2" /><path
       inkscape:connector-curvature="0"
       style="fill:#265ed4;stroke-width:1.6735568"
       id="path20-5"
       d="m 352.76562,-43.08843 a 5.3051753,5.3051753 0 0 1 -4.75291,-3.129551 7.8824528,7.8824528 0 0 0 -2.87851,-3.09608 7.4305924,7.4305924 0 0 0 -4.08348,-1.138019 7.8824528,7.8824528 0 0 0 -7.78204,7.765304 v 8.183693 h -10.71076 v -8.367784 a 18.509539,18.509539 0 0 1 18.40912,-17.756449 18.409125,18.409125 0 0 1 16.43433,10.041352 4.9035216,4.9035216 0 0 1 0.55227,2.209095 5.0206706,5.0206706 0 0 1 -1.67356,3.715296 5.1880263,5.1880263 0 0 1 -3.64835,1.47273"
       class="cls-2" /><path
       inkscape:connector-curvature="0"
       style="fill:#265ed4;stroke-width:1.6735568"
       id="path22-3"
       d="m 343.92924,-19.123096 a 4.8365794,4.8365794 0 0 1 5.02067,5.020671 5.2549686,5.2549686 0 0 1 -1.12129,3.347113 5.0206706,5.0206706 0 0 1 -3.93286,1.6735574 H 333.26868 V -19.123096 Z"
       class="cls-2" /><path
       inkscape:connector-curvature="0"
       style="fill:#265ed4;stroke-width:1.6735568"
       id="path24-5"
       d="m 322.55792,-9.0148116 a 4.8365794,4.8365794 0 0 1 -5.02068,-5.0206714 4.8365794,4.8365794 0 0 1 5.02068,-5.02067 z"
       class="cls-2" /><path
       transform="matrix(1.6735568,0,0,-1.6735568,221.14037,27.418519)"
       style="fill:#000059"
       d="m 60.6,27.81 h 6.37 V 21.77 H 60.6 Z"
       id="polygon26"
       inkscape:connector-curvature="0" /><path
       inkscape:connector-curvature="0"
       style="fill:#33c1ea;stroke-width:1.6735568"
       id="path28-6"
       d="m 317.53724,-29.381999 a 4.8365794,4.8365794 0 0 1 5.02068,-5.020671 v 10.041341 a 4.8365794,4.8365794 0 0 1 -5.02068,-5.02067"
       class="cls-1" /><path
       inkscape:connector-curvature="0"
       style="fill:#33c1ea;stroke-width:1.6735568"
       id="path30-2"
       d="m 343.92924,-34.503083 a 5.0206706,5.0206706 0 0 1 3.93285,1.673556 5.2549686,5.2549686 0 0 1 1.12129,3.347114 4.8365794,4.8365794 0 0 1 -5.02067,5.020671 h -10.69403 v -10.041341 z"
       class="cls-1" /><path
       inkscape:connector-curvature="0"
       style="fill:#000059;stroke-width:1.6735568"
       id="path32-9"
       d="m 333.26868,-24.327858 h -10.71076 v -10.041341 h 10.71076 z"
       class="cls-3" /><path
       inkscape:connector-curvature="0"
       style="fill:#265ed4;stroke-width:1.6735568"
       id="path34-1"
       d="m 259.29747,-3.9439346 a 8.920058,8.920058 0 0 0 -8.92006,-8.9200584 8.9367935,8.9367935 0 0 0 -8.95353,8.9200584 8.9367935,8.9367935 0 0 0 8.95353,8.936792 8.920058,8.920058 0 0 0 8.92006,-8.936792 m 11.29651,0.200827 a 19.480202,19.480202 0 0 1 -5.94113,14.2921746 19.480202,19.480202 0 0 1 -14.29218,5.924391 19.496937,19.496937 0 0 1 -14.30891,-5.924391 19.480202,19.480202 0 0 1 -5.92439,-14.2921746 19.363053,19.363053 0 0 1 5.02067,-13.3884554 c 0.26777,-0.317976 0.53554,-0.619216 0.83678,-0.920456 a 19.496937,19.496937 0 0 1 14.30891,-5.924392 19.29611,19.29611 0 0 1 11.7149,3.765504 23.647358,23.647358 0 0 1 2.64422,2.175623 19.480202,19.480202 0 0 1 5.92439,14.2921764"
       class="cls-2" /><path
       inkscape:connector-curvature="0"
       style="fill:#265ed4;stroke-width:1.6735568"
       id="path36-2"
       d="m 301.11965,3.7376894 a 5.0206706,5.0206706 0 0 0 -1.32211,-3.22996402 3.8324451,3.8324451 0 0 0 -3.0124,-1.53967098 h -7.51427 v 9.5225374 h 7.54774 a 3.8826518,3.8826518 0 0 0 2.99567,-1.539673 5.0206706,5.0206706 0 0 0 1.30537,-3.2132294 m 10.52667,0 a 12.836181,12.836181 0 0 1 -4.15042,9.3551836 13.388455,13.388455 0 0 1 -9.84051,4.100214 h -14.07461 a 5.0206706,5.0206706 0 0 1 -3.34712,-1.271903 3.9830652,3.9830652 0 0 1 -1.43926,-3.062609 v -32.065348 a 4.2675698,4.2675698 0 0 1 0.1841,-1.238432 4.5520747,4.5520747 0 0 1 1.35558,-2.142154 5.7403,5.7403 0 0 1 7.44732,0 4.3177765,4.3177765 0 0 1 1.53968,3.347114 v 9.5058034 h 8.36778 a 13.572546,13.572546 0 0 1 9.84051,4.066743 12.852916,12.852916 0 0 1 4.15043,9.405388"
       class="cls-2" /><g
       aria-label="Powered by"
       transform="matrix(0.75000002,0,0,-0.75000002,73.169351,157.96135)"
       style="font-style:normal;font-variant:normal;font-weight:normal;font-stretch:normal;font-size:40px;line-height:125%;font-family:'IBM Plex Sans';-inkscape-font-specification:'IBM Plex Sans';letter-spacing:0px;word-spacing:13.72000027px;fill:#000000;fill-opacity:1;stroke:none;stroke-width:1px;stroke-linecap:butt;stroke-linejoin:miter;stroke-opacity:1"
       id="flowRoot117"><path
         d="m 3.5336719,282.05273 q -0.6,0 -1.16,-0.28 -0.52,-0.32 -0.52,-0.92 v -26.88 q 0,-0.48 0.36,-0.8 0.4,-0.32 1,-0.36 h 7.5600001 q 2.4,0 4.32,0.88 1.92,0.84 3.04,2.72 1.12,1.88 1.12,5.04 v 0.36 q 0,3.12 -1.16,5.04 -1.12,1.92 -3.08,2.8 -1.96,0.84 -4.4,0.84 H 5.2136719 v 10.36 q 0,0.6 -0.52,0.92 -0.52,0.28 -1.16,0.28 z m 1.68,-14.36 h 5.4000001 q 2.48,0 3.88,-1.4 1.4,-1.4 1.4,-4.28 v -0.48 q 0,-2.92 -1.4,-4.28 -1.4,-1.4 -3.88,-1.4 H 5.2136719 Z"
         style="font-style:normal;font-variant:normal;font-weight:500;font-stretch:normal;font-family:Dosis;-inkscape-font-specification:'Dosis Medium'"
         id="path279"
         inkscape:connector-curvature="0" /><path
         d="m 29.002422,282.37273 q -2.12,0 -3.92,-1.08 -1.8,-1.12 -2.88,-2.88 -1.08,-1.76 -1.08,-3.8 v -4.08 q 0,-2.04 1.04,-3.76 1.08,-1.76 2.88,-2.84 1.8,-1.08 3.96,-1.08 2.12,0 3.92,1.08 1.8,1.04 2.88,2.76 1.12,1.72 1.12,3.84 v 4.08 q 0,2 -1.12,3.8 -1.08,1.76 -2.88,2.88 -1.8,1.08 -3.92,1.08 z m 0,-3 q 1.28,0 2.28,-0.68 1.04,-0.68 1.68,-1.76 0.64,-1.12 0.64,-2.32 v -4.08 q 0,-1.16 -0.64,-2.24 -0.6,-1.08 -1.64,-1.76 -1.04,-0.68 -2.32,-0.68 -1.28,0 -2.32,0.68 -1.04,0.68 -1.64,1.76 -0.6,1.08 -0.6,2.24 v 4.08 q 0,1.2 0.6,2.32 0.6,1.08 1.64,1.76 1.04,0.68 2.32,0.68 z"
         style="font-style:normal;font-variant:normal;font-weight:500;font-stretch:normal;font-family:Dosis;-inkscape-font-specification:'Dosis Medium'"
         id="path281"
         inkscape:connector-curvature="0" /><path
         d="m 46.784922,282.41273 q -0.48,0 -0.84,-0.2 -0.32,-0.16 -0.52,-0.64 l -6.2,-16.48 q -0.08,-0.2 -0.16,-0.36 -0.04,-0.2 -0.04,-0.28 0,-0.44 0.32,-0.76 0.36,-0.32 0.84,-0.48 0.48,-0.2 0.92,-0.2 0.36,0 0.64,0.16 0.32,0.16 0.44,0.48 l 4.8,13.44 3.8,-12.12 q 0.16,-0.44 0.48,-0.6 0.32,-0.2 0.76,-0.2 0.44,0 0.76,0.2 0.36,0.16 0.48,0.6 l 3.72,12.24 4.88,-13.56 q 0.2,-0.64 1.04,-0.64 0.44,0 0.92,0.2 0.48,0.16 0.8,0.48 0.36,0.32 0.36,0.76 0,0.12 -0.08,0.32 -0.04,0.2 -0.08,0.32 l -6.24,16.6 q -0.16,0.4 -0.52,0.56 -0.36,0.16 -0.8,0.16 -0.52,0 -0.88,-0.2 -0.32,-0.16 -0.48,-0.52 l -3.88,-11.76 -3.8,11.64 q -0.16,0.4 -0.56,0.6 -0.4,0.24 -0.88,0.24 z"
         style="font-style:normal;font-variant:normal;font-weight:500;font-stretch:normal;font-family:Dosis;-inkscape-font-specification:'Dosis Medium'"
         id="path283"
         inkscape:connector-curvature="0" /><path
         d="m 75.979922,282.37273 q -2.6,0 -4.6,-0.96 -2,-1 -3.16,-2.72 -1.16,-1.76 -1.16,-4.08 v -4.2 q 0,-2.04 1.08,-3.76 1.12,-1.72 2.92,-2.76 1.8,-1.04 3.96,-1.04 2.08,0 3.8,0.96 1.76,0.96 2.8,2.6 1.08,1.64 1.08,3.8 0,1.6 -0.52,2.32 -0.52,0.68 -1.32,0.84 -0.8,0.16 -1.68,0.16 h -8.8 v 1.2 q 0,2.24 1.6,3.56 1.6,1.28 4.12,1.28 1.48,0 2.36,-0.4 0.88,-0.4 1.44,-0.76 0.56,-0.4 1,-0.4 0.44,0 0.72,0.28 0.32,0.24 0.48,0.6 0.16,0.36 0.16,0.64 0,0.52 -0.76,1.2 -0.76,0.64 -2.2,1.16 -1.4,0.48 -3.32,0.48 z m -5.6,-11.08 h 7.4 q 1.08,0 1.4,-0.24 0.36,-0.28 0.36,-1.04 0,-1.2 -0.6,-2.2 -0.56,-1.04 -1.6,-1.68 -1.04,-0.64 -2.36,-0.64 -1.24,0 -2.28,0.6 -1.04,0.56 -1.68,1.56 -0.64,1 -0.64,2.2 z"
         style="font-style:normal;font-variant:normal;font-weight:500;font-stretch:normal;font-family:Dosis;-inkscape-font-specification:'Dosis Medium'"
         id="path285"
         inkscape:connector-curvature="0" /><path
         d="m 87.973672,282.05273 q -0.68,0 -1.16,-0.36 -0.44,-0.4 -0.44,-0.84 v -16.6 q 0,-0.52 0.44,-0.84 0.48,-0.32 1.16,-0.32 0.68,0 1.12,0.32 0.44,0.32 0.44,0.84 v 1.88 q 0.44,-0.84 1.2,-1.56 0.76,-0.76 1.76,-1.24 1.04,-0.48 2.28,-0.48 h 1.36 q 0.52,0 0.88,0.44 0.4,0.44 0.4,1.08 0,0.6 -0.4,1.04 -0.36,0.44 -0.88,0.44 h -1.36 q -1.28,0 -2.44,0.72 -1.16,0.72 -1.92,2.04 -0.72,1.28 -0.72,3.12 v 9.12 q 0,0.44 -0.52,0.84 -0.48,0.36 -1.2,0.36 z"
         style="font-style:normal;font-variant:normal;font-weight:500;font-stretch:normal;font-family:Dosis;-inkscape-font-specification:'Dosis Medium'"
         id="path287"
         inkscape:connector-curvature="0" /><path
         d="m 107.54242,282.37273 q -2.6,0 -4.6,-0.96 -2,-1 -3.159998,-2.72 -1.16,-1.76 -1.16,-4.08 v -4.2 q 0,-2.04 1.08,-3.76 1.119998,-1.72 2.919998,-2.76 1.8,-1.04 3.96,-1.04 2.08,0 3.8,0.96 1.76,0.96 2.8,2.6 1.08,1.64 1.08,3.8 0,1.6 -0.52,2.32 -0.52,0.68 -1.32,0.84 -0.8,0.16 -1.68,0.16 h -8.8 v 1.2 q 0,2.24 1.6,3.56 1.6,1.28 4.12,1.28 1.48,0 2.36,-0.4 0.88,-0.4 1.44,-0.76 0.56,-0.4 1,-0.4 0.44,0 0.72,0.28 0.32,0.24 0.48,0.6 0.16,0.36 0.16,0.64 0,0.52 -0.76,1.2 -0.76,0.64 -2.2,1.16 -1.4,0.48 -3.32,0.48 z m -5.6,-11.08 h 7.4 q 1.08,0 1.4,-0.24 0.36,-0.28 0.36,-1.04 0,-1.2 -0.6,-2.2 -0.56,-1.04 -1.6,-1.68 -1.04,-0.64 -2.36,-0.64 -1.24,0 -2.28,0.6 -1.04,0.56 -1.68,1.56 -0.64,1 -0.64,2.2 z"
         style="font-style:normal;font-variant:normal;font-weight:500;font-stretch:normal;font-family:Dosis;-inkscape-font-specification:'Dosis Medium'"
         id="path289"
         inkscape:connector-curvature="0" /><path
         d="m 124.29617,282.37273 q -1.88,0 -3.52,-1.08 -1.6,-1.12 -2.6,-2.88 -0.96,-1.8 -0.96,-3.8 v -4.08 q 0,-2.12 0.96,-3.84 1,-1.72 2.6,-2.76 1.64,-1.08 3.6,-1.08 1.92,0 3.24,0.96 1.36,0.92 2,2.08 v -13.08 q 0,-0.52 0.48,-0.84 0.52,-0.32 1.24,-0.32 0.72,0 1.16,0.32 0.44,0.32 0.44,0.84 v 28.04 q 0,0.44 -0.44,0.84 -0.44,0.36 -1.16,0.36 -0.64,0 -1.12,-0.36 -0.44,-0.4 -0.44,-0.84 v -1.6 q -0.6,1.24 -2.12,2.2 -1.52,0.92 -3.36,0.92 z m 0.8,-3 q 1.28,0 2.28,-0.68 1.04,-0.72 1.64,-1.6 0.6,-0.88 0.6,-1.4 v -5.16 q 0,-1.48 -0.68,-2.48 -0.64,-1.04 -1.68,-1.6 -1.04,-0.6 -2.12,-0.6 -1.28,0 -2.32,0.68 -1.04,0.68 -1.68,1.76 -0.6,1.08 -0.6,2.24 v 4.08 q 0,1.16 0.6,2.28 0.64,1.12 1.68,1.8 1.04,0.68 2.28,0.68 z"
         style="font-style:normal;font-variant:normal;font-weight:500;font-stretch:normal;font-family:Dosis;-inkscape-font-specification:'Dosis Medium'"
         id="path291"
         inkscape:connector-curvature="0" /><path
         d="m 168.07055,282.37273 q -1.84,0 -3.36,-0.92 -1.48,-0.96 -2.12,-2.2 v 1.6 q 0,0.44 -0.44,0.84 -0.44,0.36 -1.12,0.36 -0.68,0 -1.16,-0.36 -0.44,-0.4 -0.44,-0.84 v -28.04 q 0,-0.52 0.44,-0.84 0.48,-0.32 1.16,-0.32 0.72,0 1.2,0.32 0.52,0.32 0.52,0.84 v 13.08 q 0.64,-1.16 1.96,-2.08 1.36,-0.96 3.28,-0.96 1.96,0 3.56,1.08 1.64,1.04 2.6,2.76 1,1.72 1,3.84 v 4.08 q 0,2 -1,3.8 -0.96,1.76 -2.56,2.88 -1.6,1.08 -3.52,1.08 z m -0.8,-3 q 1.24,0 2.28,-0.68 1.04,-0.68 1.64,-1.8 0.64,-1.12 0.64,-2.28 v -4.08 q 0,-1.16 -0.64,-2.24 -0.6,-1.08 -1.64,-1.76 -1.04,-0.68 -2.32,-0.68 -1.08,0 -2.12,0.6 -1.04,0.56 -1.72,1.6 -0.64,1 -0.64,2.48 v 5.16 q 0,0.52 0.6,1.4 0.6,0.88 1.64,1.6 1.04,0.68 2.28,0.68 z"
         style="font-style:normal;font-variant:normal;font-weight:500;font-stretch:normal;font-family:Dosis;-inkscape-font-specification:'Dosis Medium'"
         id="path293"
         inkscape:connector-curvature="0" /><path
         d="m 178.71805,291.21273 q -0.64,0 -1.08,-0.32 -0.44,-0.28 -0.44,-1.16 0,-0.56 0.2,-1 0.24,-0.44 0.76,-0.44 0.88,0 1.76,-0.52 0.88,-0.48 1.68,-1.48 0.84,-0.96 1.44,-2.28 0.6,-1.32 0.88,-2.92 l -6.64,-16.2 q -0.12,-0.24 -0.12,-0.44 0,-0.44 0.36,-0.8 0.36,-0.36 0.84,-0.56 0.52,-0.24 0.96,-0.24 0.32,0 0.64,0.16 0.32,0.16 0.4,0.52 l 5.32,13.92 4.76,-13.92 q 0.12,-0.36 0.4,-0.52 0.32,-0.16 0.64,-0.16 0.4,0 0.88,0.24 0.52,0.2 0.88,0.56 0.36,0.36 0.36,0.84 0,0.24 -0.08,0.4 l -6.12,16.28 q -0.6,1.64 -1.28,3.4 -0.68,1.76 -1.64,3.24 -0.92,1.52 -2.32,2.44 -1.4,0.96 -3.44,0.96 z"
         style="font-style:normal;font-variant:normal;font-weight:500;font-stretch:normal;font-family:Dosis;-inkscape-font-specification:'Dosis Medium'"
         id="path295"
         inkscape:connector-curvature="0" /></g><g
       id="g701"
       transform="matrix(3.3090527,0,0,-3.3090527,1.5775246,120.73408)"><g
         id="g200">
	<path
   id="path168"
   d="m 0.1,12.5 h 1 V 4.4 h -1 V 3.8 H 2.4 V 4.4 C 3,3.9 3.5,3.7 4.2,3.7 5.8,3.7 6.9,4.9 6.9,6.7 6.9,7.5 6.6,8.3 6.2,8.8 5.7,9.5 5,9.8 4,9.8 3.4,9.8 2.9,9.7 2.5,9.4 v 3.2 h 1 v 0.6 H 0.1 Z m 2.4,-4 C 2.8,9 3.3,9.3 3.9,9.3 4.8,9.3 5.4,8.4 5.4,7 5.4,5.4 4.8,4.3 3.8,4.3 3.3,4.3 2.9,4.5 2.5,5.1 Z"
   class="st0"
   inkscape:connector-curvature="0"
   style="fill:#0054a4" />
	<path
   id="path170"
   d="M 8.1,9.1 H 9.2 V 4.4 H 8.1 V 3.8 h 2.4 v 1 0 c 0.7,-0.9 1,-1.1 1.4,-1.1 0.4,0 0.7,0.2 1,0.5 C 12.8,4.8 12.6,5.3 12.4,5.6 12.4,5.5 12.3,5.5 12.3,5.5 12,4.9 11.8,4.8 11.4,4.8 c -0.3,0 -0.5,0.2 -1,0.7 v 3.6 h 1 V 9.7 H 8.1 Z"
   class="st0"
   inkscape:connector-curvature="0"
   style="fill:#0054a4" />
	<path
   id="path172"
   d="m 17.3,3.7 c 1.9,0 3.3,1.3 3.3,3.1 0,1.8 -1.4,3 -3.2,3 -1.8,0 -3.2,-1.3 -3.2,-3 C 14.1,5 15.5,3.7 17.3,3.7 Z m 0,5.5 c 1.1,0 1.8,-0.9 1.8,-2.3 0,-1.7 -0.6,-2.6 -1.9,-2.6 -1.1,0 -1.7,0.9 -1.7,2.5 v 0.1 c 0,1.4 0.7,2.3 1.8,2.3 z"
   class="st0"
   inkscape:connector-curvature="0"
   style="fill:#0054a4" />
	<path
   id="path174"
   d="m 21.6,3.8 h 2.9 v 0.6 h -0.8 l 1.4,3.3 1.2,-3.3 H 25.4 V 3.8 h 2.2 V 4.4 H 27 L 25,9.8 H 24.7 L 22.4,4.4 h -0.8 z"
   class="st0"
   inkscape:connector-curvature="0"
   style="fill:#0054a4" />
	<path
   id="path176"
   d="m 28.9,9.1 h 1 V 4.4 h -1 V 3.8 h 2.3 v 5.3 h 1 v 0.6 h -3.3 z m 1,-7.9 C 30,1 30.2,0.9 30.4,0.9 c 0.4,0 0.8,0.4 0.8,0.8 0,0.5 -0.3,0.8 -0.8,0.8 -0.4,0 -0.8,-0.4 -0.8,-0.8 0,-0.2 0.1,-0.4 0.3,-0.5 z"
   class="st0"
   inkscape:connector-curvature="0"
   style="fill:#0054a4" />
	<path
   id="path178"
   d="m 33.3,9.1 h 1 V 4.4 h -1 V 3.8 h 2.4 v 0.7 l 0.1,-0.1 c 0.7,-0.5 1.4,-0.7 2,-0.7 0.5,0 1,0.2 1.3,0.5 0.3,0.3 0.4,0.7 0.4,1.5 v 0.2 3.2 h 1 V 9.7 H 37.3 V 9.1 h 0.9 V 5.9 c 0,-1 -0.3,-1.5 -1,-1.5 -0.4,0 -1,0.2 -1.4,0.6 v 4 h 1 V 9.6 H 33.5 V 9.1 Z"
   class="st0"
   inkscape:connector-curvature="0"
   style="fill:#0054a4" />
	<path
   id="path180"
   d="M 41.7,8 H 42 c 0.2,0.8 0.8,1.3 1.5,1.3 0.5,0 1,-0.3 1,-0.8 0,-0.4 -0.3,-0.7 -0.9,-1 L 43,7.2 C 42,6.7 41.6,6.1 41.6,5.4 c 0,-0.9 0.9,-1.7 1.9,-1.7 0.3,0 0.8,0.1 1.1,0.3 l 0.1,-0.3 h 0.4 v 1.6 h -0.3 c -0.2,-0.6 -0.6,-1 -1.2,-1 -0.5,0 -0.9,0.4 -0.9,0.8 0,0.4 0.2,0.6 1,1.1 1.1,0.6 1.4,0.9 1.7,1.3 0.1,0.2 0.2,0.5 0.2,0.8 0,0.9 -0.9,1.7 -2,1.7 -0.5,0 -0.9,-0.1 -1.4,-0.3 H 42.1 L 42,10.1 H 41.6 V 8 Z"
   class="st0"
   inkscape:connector-curvature="0"
   style="fill:#0054a4" />
	<path
   id="path182"
   d="m 46.9,3.8 h 2.3 v 6.1 0.2 c 0,1.1 -0.3,1.9 -1,2.5 -0.3,0.3 -0.9,0.6 -1.2,0.6 -0.2,0 -0.3,-0.1 -0.3,-0.3 0,-0.1 0.1,-0.2 0.3,-0.4 0.6,-0.5 0.8,-0.9 0.8,-1.8 V 10.6 4.4 h -1 V 3.8 Z m 1.5,-2.9 c 0.5,0 0.8,0.4 0.8,0.8 0,0.4 -0.4,0.8 -0.8,0.8 -0.5,0 -0.8,-0.3 -0.8,-0.8 0,-0.4 0.4,-0.8 0.8,-0.8 z"
   class="st0"
   inkscape:connector-curvature="0"
   style="fill:#0054a4" />
	<path
   id="path184"
   d="m 52.8,6.3 v 0 c 0,1.8 0.8,2.8 2.1,2.8 0.5,0 1.1,-0.2 1.8,-0.6 h 0.1 l -0.1,0.6 h -0.1 c -0.9,0.5 -1.4,0.6 -2.1,0.6 -1.8,0 -3.1,-1.3 -3.1,-3.2 0,-1.7 1.1,-2.9 2.7,-2.9 1.4,0 2.4,0.9 2.6,2.6 H 52.8 Z M 55.2,5.7 C 55.1,4.8 54.6,4.2 53.9,4.2 c -0.7,0 -1.1,0.5 -1.2,1.5 z"
   class="st0"
   inkscape:connector-curvature="0"
   style="fill:#0054a4" />
	<path
   id="path186"
   d="m 61.5,9.1 h 1 V 4.5 H 61.6 V 3.8 h 0.9 V 3.2 c 0,-2.1 1.2,-3.2 3.3,-3.2 0.3,0 0.5,0 0.9,0.1 h 0.1 V 1.9 H 66.4 V 1.7 C 66.3,0.9 66,0.6 65.4,0.6 c -0.9,0 -1.5,0.7 -1.5,2 v 1.2 h 1.4 V 4.5 H 63.9 V 9.1 H 65 v 0.6 h -3.5 z"
   class="st0"
   inkscape:connector-curvature="0"
   style="fill:#0054a4" />
	<path
   id="path188"
   d="m 66.1,9.1 h 1.1 V 4.4 H 66.1 V 3.8 h 2.4 v 1 0 c 0.7,-0.9 1,-1.1 1.4,-1.1 0.3,0 0.7,0.2 1,0.5 C 70.8,4.8 70.6,5.3 70.4,5.6 70.4,5.5 70.3,5.5 70.3,5.5 70,4.9 69.8,4.8 69.4,4.8 c -0.3,0 -0.5,0.2 -1,0.7 v 3.6 h 1 V 9.7 H 66 V 9.1 Z"
   class="st0"
   inkscape:connector-curvature="0"
   style="fill:#0054a4" />
	<path
   id="path190"
   d="m 71.9,3.8 h 2.8 V 4.4 H 74 l 1.4,3.7 1.5,-3.7 H 76.2 V 3.8 h 2 V 4.4 H 77.5 L 74,13.1 h -1.1 l 1.7,-3.7 -1.9,-5 h -0.8 z"
   class="st0"
   inkscape:connector-curvature="0"
   style="fill:#0054a4" />
	<path
   id="path192"
   d="m 79.3,8 h 0.3 c 0.2,0.8 0.8,1.3 1.5,1.3 0.5,0 1,-0.3 1,-0.8 0,-0.4 -0.3,-0.7 -0.9,-1 L 80.6,7.2 c -1,-0.5 -1.4,-1.1 -1.4,-1.8 0,-0.9 0.9,-1.7 1.9,-1.7 0.3,0 0.8,0.1 1.1,0.3 l 0.1,-0.3 h 0.4 v 1.6 h -0.3 c -0.2,-0.6 -0.6,-1 -1.2,-1 -0.5,0 -0.9,0.4 -0.9,0.8 0,0.4 0.2,0.6 1,1.1 1.1,0.6 1.4,0.9 1.7,1.3 0.1,0.2 0.2,0.5 0.2,0.8 0,0.9 -0.9,1.7 -2,1.7 -0.5,0 -0.9,-0.1 -1.4,-0.3 h -0.1 l -0.1,0.4 H 79.2 V 8 Z"
   class="st0"
   inkscape:connector-curvature="0"
   style="fill:#0054a4" />
	<path
   id="path194"
   d="m 84.3,9.1 h 1 V 1 h -1 V 0.4 h 2.4 V 9 h 1 v 0.6 h -3.4 z"
   class="st0"
   inkscape:connector-curvature="0"
   style="fill:#0054a4" />
	<path
   id="path196"
   d="m 89,4.6 c 0.7,-0.6 1.5,-0.9 2.2,-0.9 1.1,0 1.8,0.8 1.8,2 v 0.1 2.3 c 0,0.6 0.2,1 0.6,1 C 93.8,9 94,9 94.2,9 h 0.1 V 9.4 C 93.9,9.7 93.4,9.8 93,9.8 92.5,9.8 92.2,9.6 91.9,9 91.2,9.5 90.6,9.8 90.2,9.8 89.4,9.8 88.9,9.1 88.9,8.3 88.9,7.5 89.4,7 90.5,6.7 l 1.2,-0.3 h 0.1 V 5.5 c 0,-0.7 -0.3,-1.1 -1,-1.1 -0.4,0 -1,0.2 -1.6,0.6 z M 92.1,0.8 93.4,3 H 93.2 L 91.3,1.5 89.8,3 h -0.2 l 1.3,-2.3 h 1.2 z m -0.4,6.1 c -1.2,0.3 -1.6,0.6 -1.6,1.2 0,0.4 0.3,0.8 0.7,0.8 0.3,0 0.6,-0.1 1,-0.4 V 6.9 Z"
   class="st0"
   inkscape:connector-curvature="0"
   style="fill:#0054a4" />
	<path
   id="path198"
   d="m 95.2,9.1 h 1 V 4.4 h -1 V 3.8 h 2.3 v 0.7 l 0.1,-0.1 c 0.7,-0.5 1.4,-0.7 2,-0.7 0.5,0 1,0.2 1.3,0.5 0.3,0.3 0.4,0.7 0.4,1.5 v 0.2 3.2 h 1 V 9.7 H 99.1 V 9.1 H 100 V 5.9 c 0,-1 -0.3,-1.5 -1,-1.5 -0.4,0 -1,0.2 -1.4,0.6 v 4 h 1 V 9.6 H 95.3 V 9.1 Z"
   class="st0"
   inkscape:connector-curvature="0"
   style="fill:#0054a4" />
</g><g
         id="g216">
	<path
   id="path202"
   d="m 61.6,21.8 h 1 v -4.6 h -0.9 v -0.7 h 0.9 v -0.6 c 0,-2.1 1.2,-3.2 3.3,-3.2 0.3,0 0.5,0 0.9,0.1 h 0.1 v 1.8 h -0.4 v -0.2 c -0.1,-0.8 -0.4,-1.1 -1,-1.1 -0.9,0 -1.5,0.7 -1.5,2 v 1.2 h 1.4 v 0.7 H 64 v 4.6 h 1.1 v 0.6 h -3.5 z"
   class="st0"
   inkscape:connector-curvature="0"
   style="fill:#0054a4" />
	<path
   id="path204"
   d="m 66.3,21.8 h 1 v -4.7 h -1 v -0.6 h 2.4 v 1 0 c 0.7,-0.9 1,-1.1 1.4,-1.1 0.3,0 0.7,0.2 1,0.5 -0.1,0.6 -0.3,1.1 -0.5,1.4 0,-0.1 -0.1,-0.1 -0.1,-0.1 -0.3,-0.6 -0.5,-0.7 -0.9,-0.7 -0.3,0 -0.5,0.2 -1,0.7 v 3.6 h 1 v 0.6 h -3.4 v -0.6 z"
   class="st0"
   inkscape:connector-curvature="0"
   style="fill:#0054a4" />
	<path
   id="path206"
   d="m 72,16.6 h 2.8 v 0.6 h -0.7 l 1.4,3.7 1.5,-3.7 h -0.7 v -0.6 h 2 v 0.6 h -0.7 l -3.4,8.7 H 73 l 1.7,-3.7 -1.9,-5 H 72 Z"
   class="st0"
   inkscape:connector-curvature="0"
   style="fill:#0054a4" />
	<path
   id="path208"
   d="m 79.4,20.7 h 0.3 c 0.2,0.8 0.8,1.3 1.5,1.3 0.5,0 1,-0.3 1,-0.8 0,-0.3 -0.3,-0.7 -0.9,-1 L 80.8,20 c -1,-0.5 -1.4,-1.1 -1.4,-1.8 0,-0.9 0.9,-1.7 1.9,-1.7 0.3,0 0.8,0.1 1.1,0.3 l 0.1,-0.3 h 0.4 V 18 h -0.3 c -0.2,-0.6 -0.6,-1 -1.2,-1 -0.5,0 -0.9,0.3 -0.9,0.8 0,0.4 0.2,0.6 1,1 1.1,0.6 1.4,0.9 1.7,1.3 0.1,0.2 0.2,0.5 0.2,0.8 0,0.9 -0.9,1.7 -2,1.7 -0.5,0 -0.9,-0.1 -1.4,-0.3 h -0.1 l -0.1,0.4 h -0.4 z"
   class="st0"
   inkscape:connector-curvature="0"
   style="fill:#0054a4" />
	<path
   id="path210"
   d="m 84.4,21.8 h 1 v -8.1 h -1 v -0.6 h 2.4 v 8.6 h 1 v 0.6 h -3.4 z"
   class="st0"
   inkscape:connector-curvature="0"
   style="fill:#0054a4" />
	<path
   id="path212"
   d="m 89.2,17.4 c 0.7,-0.6 1.5,-0.9 2.2,-0.9 1.1,0 1.8,0.8 1.8,2 v 0.1 2.3 c 0,0.6 0.2,1 0.6,1 0.1,0 0.3,0 0.5,-0.1 h 0.1 v 0.4 c -0.4,0.3 -0.9,0.4 -1.3,0.4 -0.5,0 -0.8,-0.2 -1.1,-0.8 -0.7,0.5 -1.3,0.8 -1.7,0.8 -0.8,0 -1.3,-0.7 -1.3,-1.5 0,-0.8 0.5,-1.3 1.6,-1.6 l 1.2,-0.3 h 0.1 v -0.8 c 0,-0.7 -0.3,-1.1 -1,-1.1 -0.4,0 -0.9,0.2 -1.6,0.6 z m 3,-3.9 1.3,2.3 h -0.2 l -1.9,-1.5 -1.6,1.5 h -0.2 l 1.3,-2.3 z m -0.4,6.2 c -1.2,0.3 -1.6,0.6 -1.6,1.2 0,0.4 0.3,0.8 0.7,0.8 0.3,0 0.6,-0.1 1,-0.4 v -1.6 z"
   class="st0"
   inkscape:connector-curvature="0"
   style="fill:#0054a4" />
	<path
   id="path214"
   d="m 95.4,21.8 h 1 v -4.7 h -1 v -0.6 h 2.4 v 0.7 l 0.1,-0.1 c 0.7,-0.5 1.4,-0.7 2,-0.7 0.5,0 1,0.2 1.3,0.5 0.3,0.3 0.4,0.7 0.4,1.5 v 0.2 3.2 h 1 v 0.6 h -3.2 v -0.6 h 0.9 v -3.2 c 0,-1 -0.3,-1.5 -1,-1.5 -0.4,0 -1,0.2 -1.4,0.6 v 4 h 1 v 0.6 h -3.3 v -0.5 z"
   class="st0"
   inkscape:connector-curvature="0"
   style="fill:#0054a4" />
</g><g
         id="g236">
	<path
   id="path218"
   d="M 0,25 H 1 V 16.9 H 0 v -0.6 h 2.3 v 0.6 c 0.5,-0.5 1.1,-0.7 1.7,-0.7 1.6,0 2.7,1.2 2.7,3 0,0.8 -0.3,1.6 -0.7,2.1 -0.5,0.7 -1.2,1 -2.2,1 -0.6,0 -1.1,-0.1 -1.5,-0.4 V 25 h 1 v 0.6 H 0 Z m 2.3,-4 c 0.3,0.5 0.9,0.8 1.4,0.8 0.9,0 1.5,-0.9 1.5,-2.3 0,-1.6 -0.6,-2.7 -1.6,-2.7 -0.5,0 -0.9,0.2 -1.3,0.8 z"
   class="st0"
   inkscape:connector-curvature="0"
   style="fill:#0054a4" />
	<path
   id="path220"
   d="M 8,21.6 H 9 V 16.9 H 8 v -0.6 h 2.4 v 1 0 c 0.7,-0.9 1,-1.1 1.4,-1.1 0.3,0 0.7,0.2 1,0.5 -0.1,0.6 -0.3,1.1 -0.5,1.4 0,-0.1 -0.1,-0.1 -0.1,-0.1 -0.3,-0.6 -0.5,-0.7 -0.9,-0.7 -0.3,0 -0.5,0.2 -1,0.7 v 3.6 h 1 v 0.6 H 8 Z"
   class="st0"
   inkscape:connector-curvature="0"
   style="fill:#0054a4" />
	<path
   id="path222"
   d="m 17.1,16.2 c 1.9,0 3.3,1.3 3.3,3.1 0,1.8 -1.4,3 -3.2,3 -1.8,0 -3.2,-1.3 -3.2,-3 -0.1,-1.8 1.3,-3.1 3.1,-3.1 z m 0.1,5.5 c 1.1,0 1.8,-0.9 1.8,-2.3 0,-1.7 -0.6,-2.6 -1.9,-2.6 -1.1,0 -1.7,0.9 -1.7,2.5 v 0.1 c 0,1.4 0.7,2.3 1.8,2.3 z"
   class="st0"
   inkscape:connector-curvature="0"
   style="fill:#0054a4" />
	<path
   id="path224"
   d="m 21.5,16.3 h 2.9 v 0.6 h -0.8 l 1.4,3.3 1.2,-3.3 h -0.9 v -0.6 h 2.2 v 0.6 h -0.8 l -2,5.4 h -0.3 l -2.3,-5.4 h -0.8 v -0.6 z"
   class="st0"
   inkscape:connector-curvature="0"
   style="fill:#0054a4" />
	<path
   id="path226"
   d="m 28.7,21.6 h 1 v -4.7 h -1 V 16.3 H 31 v 5.3 h 1 v 0.6 h -3.3 z m 1,-7.9 c 0.2,-0.2 0.4,-0.2 0.5,-0.2 0.4,0 0.8,0.3 0.8,0.8 0,0.5 -0.3,0.8 -0.8,0.8 -0.4,0 -0.8,-0.4 -0.8,-0.8 0.1,-0.3 0.2,-0.5 0.3,-0.6 z"
   class="st0"
   inkscape:connector-curvature="0"
   style="fill:#0054a4" />
	<path
   id="path228"
   d="m 33.2,21.6 h 1 v -4.7 h -1 v -0.6 h 2.4 V 17 l 0.1,-0.1 c 0.7,-0.5 1.4,-0.7 2,-0.7 0.5,0 1,0.2 1.3,0.5 0.3,0.3 0.4,0.7 0.4,1.5 v 0.2 3.2 h 1 v 0.6 H 37.2 V 21.6 H 38 v -3.2 c 0,-1 -0.3,-1.5 -1,-1.5 -0.4,0 -1,0.2 -1.4,0.6 v 4 h 1 v 0.6 h -3.3 v -0.5 z"
   class="st0"
   inkscape:connector-curvature="0"
   style="fill:#0054a4" />
	<path
   id="path230"
   d="m 46.3,18 h -0.4 c -0.3,-0.9 -0.7,-1.3 -1.5,-1.3 -0.4,0 -0.9,0.2 -1.1,0.6 -0.3,0.4 -0.4,0.8 -0.4,1.6 0,1.8 0.6,2.7 1.9,2.7 0.4,0 1,-0.2 1.4,-0.5 0,0 0.1,-0.1 0.1,-0.1 0,0 0,0 0.1,0 0,0 0.1,0 0.1,0.1 l 0.1,0.1 v 0.1 c 0,0 0,0.1 0,0.1 0,0.1 -0.1,0.2 -0.3,0.4 -0.6,0.5 -1.3,0.7 -2,0.7 -1.7,0 -2.9,-1.4 -2.9,-3.2 0,-1.7 1.2,-2.9 2.8,-2.9 0.5,0 0.9,0.1 1.5,0.3 l 0.1,-0.3 h 0.4 V 18 Z"
   class="st0"
   inkscape:connector-curvature="0"
   style="fill:#0054a4" />
	<path
   id="path232"
   d="m 47.9,21.6 h 1 v -4.7 h -1 v -0.6 h 2.3 v 5.3 h 1 v 0.6 h -3.3 z m 1,-7.9 c 0.2,-0.2 0.4,-0.2 0.5,-0.2 0.4,0 0.8,0.3 0.8,0.8 0,0.5 -0.3,0.8 -0.8,0.8 -0.4,0 -0.8,-0.4 -0.8,-0.8 0,-0.3 0.1,-0.5 0.3,-0.6 z"
   class="st0"
   inkscape:connector-curvature="0"
   style="fill:#0054a4" />
	<path
   id="path234"
   d="m 53.9,18.8 v 0 c 0,1.8 0.8,2.8 2.1,2.8 0.5,0 1.1,-0.2 1.8,-0.6 h 0.1 l -0.1,0.6 h -0.1 c -0.9,0.5 -1.4,0.6 -2.1,0.6 -1.8,0 -3.1,-1.3 -3.1,-3.2 0,-1.7 1.1,-2.9 2.7,-2.9 1.4,0 2.4,0.9 2.6,2.6 h -3.9 z m 2.5,-0.6 c -0.1,-0.9 -0.6,-1.5 -1.3,-1.5 -0.7,0 -1.1,0.5 -1.2,1.5 z"
   class="st0"
   inkscape:connector-curvature="0"
   style="fill:#0054a4" />
</g><path
         id="path238"
         d="m 110,26.9 c -3.7,-2.3 -3.1,-5.2 -2.7,-6.8 0.4,-1.6 1.3,-2.7 2.4,-3.2 0.7,-0.3 1.9,-0.4 3,0.2 1.4,0.8 1.2,2.3 0.9,3.7 -0.1,0.3 0,0.5 0.2,0.6 0.2,0.1 0.4,0.1 0.6,-0.2 1,-0.9 2.2,-1.9 3.6,-1.1 1.1,0.7 1.6,1.7 1.7,2.5 0.1,1.2 -0.4,2.6 -1.6,3.7 -1.5,1.1 -4.8,2.7 -8.1,0.6 z"
         class="st1"
         inkscape:connector-curvature="0"
         style="fill:#ef4135" /></g></g><style
     id="style166"
     type="text/css">
	.st0{fill:#0054A4;}
	.st1{fill:#EF4135;}
</style></svg>