<svg id="Layer_1" data-name="Layer 1" xmlns="http://www.w3.org/2000/svg" viewBox="0 0 110 59"><defs><style>.cls-1{fill:#33c1ea;}.cls-2{fill:#265ed4;}.cls-3{fill:#000059;}</style></defs><title>Open-Poen-Logo-2</title><path class="cls-1" d="M105.29,29.34h0a3,3,0,0,0-6,.33l.25.37-.25-.37a2.09,2.09,0,0,0,0,.35v9.72L91.88,29a3,3,0,0,1-5.95.33,3,3,0,0,0-.08.67V49.46a3,3,0,1,0,6.07,0V39.75l7.92,11.44a3,3,0,0,0,5.54-1.73V30a3.09,3.09,0,0,0-.09-.68"/><path class="cls-2" d="M102.34,6.2a3,3,0,0,0-3,3V19L91.38,7.51a3,3,0,0,0-5.53,1.72V28.67a3,3,0,0,0,.08.68,3,3,0,0,1,1.29-1.86,3,3,0,0,0-1.29,1.86h0A3,3,0,0,0,91.88,29l-.06-.09.07.09h0c0-.11,0-.23,0-.35V19l7.42,10.71a3,3,0,0,1,6-.33,3,3,0,0,0,.09-.67V9.23A3,3,0,0,0,102.34,6.2Z"/><path class="cls-1" d="M13.62,33.15h4.51a2.29,2.29,0,0,1,1.78.91,2.79,2.79,0,0,1,0,3.85,2.29,2.29,0,0,1-1.8.92H13.62ZM27,36a7.67,7.67,0,0,0-2.48-5.6l0,0a8.06,8.06,0,0,0-5.85-2.43H10.22a2.92,2.92,0,0,0-1.8.59l-.23.17a2.36,2.36,0,0,0-.87,1.83V49.69a2.62,2.62,0,0,0,.92,2,3.24,3.24,0,0,0,2.23.82,3.22,3.22,0,0,0,2.23-.82,2.62,2.62,0,0,0,.92-2V44h5a8.13,8.13,0,0,0,5.88-2.44A7.68,7.68,0,0,0,27,36"/><path class="cls-1" d="M46.83,40.45A4.85,4.85,0,1,1,45.41,37a4.66,4.66,0,0,1,1.42,3.41m7.25,0A12.1,12.1,0,0,0,42,28.37c-.44,0-.86,0-1.28.07A11.42,11.42,0,0,0,34.53,31a13.9,13.9,0,0,0-1.08,1,12.06,12.06,0,0,0,0,17.07,12.08,12.08,0,0,0,17.09,0,11.64,11.64,0,0,0,3.54-8.54"/><path class="cls-2" d="M67,21.77h0V16.84a4.43,4.43,0,0,1,1.38-3.23,4.37,4.37,0,0,1,3.3-1.37,4.5,4.5,0,0,1,2.45.68,4.72,4.72,0,0,1,1.71,1.86,3.13,3.13,0,0,0,5,.94,3,3,0,0,0,.64-3.55,11,11,0,0,0-9.82-6,10.69,10.69,0,0,0-7.81,3.24,10.67,10.67,0,0,0-3.23,7.39v4.94Z"/><path class="cls-2" d="M67,30.92V27.81H60.6v3.11H67Z"/><path class="cls-2" d="M78.65,42.13A3.17,3.17,0,0,0,75.81,44a4.71,4.71,0,0,1-1.72,1.85,4.44,4.44,0,0,1-2.44.68A4.71,4.71,0,0,1,67,41.89V37H60.6v5a11.06,11.06,0,0,0,11,10.61,11,11,0,0,0,9.82-6,2.93,2.93,0,0,0,.33-1.32,3,3,0,0,0-1-2.22,3.1,3.1,0,0,0-2.18-.88"/><path class="cls-2" d="M73.37,27.81a2.89,2.89,0,0,0,3-3,3.14,3.14,0,0,0-.67-2,3,3,0,0,0-2.35-1H67v6Z"/><path class="cls-2" d="M60.6,21.77a2.89,2.89,0,0,0-3,3,2.89,2.89,0,0,0,3,3Z"/><polygon class="cls-3" points="66.97 27.81 66.97 27.81 66.97 21.77 60.6 21.77 60.6 27.81 60.6 27.81 66.97 27.81"/><path class="cls-1" d="M57.6,33.94a2.89,2.89,0,0,0,3,3v-6a2.89,2.89,0,0,0-3,3"/><path class="cls-1" d="M73.37,37a3,3,0,0,0,2.35-1,3.14,3.14,0,0,0,.67-2,2.89,2.89,0,0,0-3-3H67v6Z"/><path class="cls-3" d="M67,30.92H60.6v6H67Z"/><path class="cls-2" d="M22.8,18.74a5.33,5.33,0,0,1-5.33,5.33,5.34,5.34,0,0,1-5.35-5.33,5.34,5.34,0,0,1,5.35-5.34,5.33,5.33,0,0,1,5.33,5.34m6.75-.12A11.64,11.64,0,0,0,26,10.08a11.64,11.64,0,0,0-8.54-3.54,11.65,11.65,0,0,0-8.55,3.54,11.64,11.64,0,0,0-3.54,8.54,11.57,11.57,0,0,0,3,8c.16.19.32.37.5.55a11.65,11.65,0,0,0,8.55,3.54,11.53,11.53,0,0,0,7-2.25A14.13,14.13,0,0,0,26,27.16a11.64,11.64,0,0,0,3.54-8.54"/><path class="cls-2" d="M47.79,14.15A3,3,0,0,1,47,16.08a2.29,2.29,0,0,1-1.8.92H40.71V11.31h4.51a2.32,2.32,0,0,1,1.79.92,3,3,0,0,1,.78,1.92m6.29,0A7.67,7.67,0,0,0,51.6,8.56a8,8,0,0,0-5.88-2.45H37.31a3,3,0,0,0-2,.76,2.38,2.38,0,0,0-.86,1.83V27.86a2.55,2.55,0,0,0,.11.74,2.72,2.72,0,0,0,.81,1.28,3.43,3.43,0,0,0,4.45,0,2.58,2.58,0,0,0,.92-2V22.2h5a8.11,8.11,0,0,0,5.88-2.43,7.68,7.68,0,0,0,2.48-5.62"/></svg>