<svg xmlns="http://www.w3.org/2000/svg" width="72.074" height="61" viewBox="0 0 72.074 61"><defs><style>.a{fill:#c60060;}.b{fill:#004896;font-size:28px;font-family:Dosis;font-weight:800;}</style></defs><path class="a" d="M575.5,500.278c-4.718-2.931-3.971-6.716-3.507-8.8a5.637,5.637,0,0,1,3.032-4.117,4.325,4.325,0,0,1,3.834.279c1.811,1.043,1.511,2.942,1.12,4.7-.089.4-.049.634.2.78s.471.065.777-.215c1.33-1.22,2.825-2.431,4.634-1.384a4.327,4.327,0,0,1,2.158,3.182,5.8,5.8,0,0,1-2.114,4.732,8.526,8.526,0,0,1-10.14.834" transform="translate(-515.705 -447.087)"/><text class="b" transform="translate(0 29)"><tspan x="0" y="0">IEPEN</tspan><tspan class="a"><tspan x="0" y="25">JILD</tspan></tspan></text></svg>