<?xml version="1.0" encoding="UTF-8" standalone="no"?>
<svg
   xmlns:dc="http://purl.org/dc/elements/1.1/"
   xmlns:cc="http://creativecommons.org/ns#"
   xmlns:rdf="http://www.w3.org/1999/02/22-rdf-syntax-ns#"
   xmlns:svg="http://www.w3.org/2000/svg"
   xmlns="http://www.w3.org/2000/svg"
   version="1.1"
   viewBox="0 0 110.03233 84.722145"
   data-name="Layer 1"
   id="Layer_1">
  <metadata
     id="metadata41">
    <rdf:RDF>
      <cc:Work
         rdf:about="">
        <dc:format>image/svg+xml</dc:format>
        <dc:type
           rdf:resource="http://purl.org/dc/dcmitype/StillImage" />
        <dc:title>Open-Poen-Logo-Amsterdam</dc:title>
      </cc:Work>
    </rdf:RDF>
  </metadata>
  <defs
     id="defs4">
    <style
       id="style2">.cls-1{fill:#33c1ea;}.cls-2{fill:#265ed4;}.cls-3{fill:#000059;}</style>
  </defs>
  <title
     id="title6">Open-Poen-Logo-Amsterdam</title>
  <path
     style="fill:#33c1ea"
     id="path8"
     d="m 104.92218,28.230862 v 0 a 3.0045341,3.0045341 0 0 0 -6,0.33 l 0.25,0.37 -0.25,-0.37 a 2.09,2.09 0 0 0 0,0.35 v 9.72 l -7.41,-10.74 a 3,3 0 0 1 -5.95,0.33 3,3 0 0 0 -0.08,0.67 v 19.46 a 3.035,3.035 0 1 0 6.07,0 v -9.71 l 7.92,11.44 a 3,3 0 0 0 5.54,-1.73 v -19.46 a 3.09,3.09 0 0 0 -0.09,-0.68"
     class="cls-1" />
  <path
     style="fill:#265ed4"
     id="path10"
     d="m 101.97218,5.0908621 a 3,3 0 0 0 -3,3 v 9.7999999 l -7.96,-11.4899999 a 3,3 0 0 0 -5.53,1.72 V 27.560862 a 3,3 0 0 0 0.08,0.68 3,3 0 0 1 1.29,-1.86 3,3 0 0 0 -1.29,1.86 v 0 a 3,3 0 0 0 5.95,-0.35 l -0.06,-0.09 0.07,0.09 v 0 c 0,-0.11 0,-0.23 0,-0.35 v -9.65 l 7.42,10.71 a 3.0045341,3.0045341 0 0 1 6,-0.33 3,3 0 0 0 0.09,-0.67 V 8.1208621 a 3,3 0 0 0 -3.06,-3.03 z"
     class="cls-2" />
  <path
     style="fill:#33c1ea"
     id="path12"
     d="m 13.25218,32.040862 h 4.51 a 2.29,2.29 0 0 1 1.78,0.91 2.79,2.79 0 0 1 0,3.85 2.29,2.29 0 0 1 -1.8,0.92 h -4.49 z m 13.38,2.85 a 7.67,7.67 0 0 0 -2.48,-5.6 v 0 a 8.06,8.06 0 0 0 -5.85,-2.43 H 9.8521796 a 2.92,2.92 0 0 0 -1.8,0.59 l -0.23,0.17 a 2.36,2.36 0 0 0 -0.87,1.83 v 19.13 a 2.62,2.62 0 0 0 0.92,2 3.24,3.24 0 0 0 2.2300004,0.82 3.22,3.22 0 0 0 2.23,-0.82 2.62,2.62 0 0 0 0.92,-2 v -5.69 h 5 a 8.13,8.13 0 0 0 5.88,-2.44 7.68,7.68 0 0 0 2.5,-5.56"
     class="cls-1" />
  <path
     style="fill:#33c1ea"
     id="path14"
     d="m 46.46218,39.340862 a 4.85,4.85 0 1 1 -1.42,-3.45 4.66,4.66 0 0 1 1.42,3.41 m 7.25,0 a 12.1,12.1 0 0 0 -12.08,-12.04 c -0.44,0 -0.86,0 -1.28,0.07 a 11.42,11.42 0 0 0 -6.19,2.56 13.9,13.9 0 0 0 -1.08,1 12.06,12.06 0 0 0 0,17.07 12.08,12.08 0 0 0 17.09,0 11.64,11.64 0 0 0 3.54,-8.54"
     class="cls-1" />
  <path
     style="fill:#265ed4"
     id="path16"
     d="m 66.63218,20.660862 v 0 -4.93 a 4.43,4.43 0 0 1 1.38,-3.23 4.37,4.37 0 0 1 3.3,-1.37 4.5,4.5 0 0 1 2.45,0.68 4.72,4.72 0 0 1 1.71,1.86 3.13,3.13 0 0 0 5,0.94 3,3 0 0 0 0.64,-3.55 11,11 0 0 0 -9.82,-5.9999999 10.69,10.69 0 0 0 -7.81,3.24 10.67,10.67 0 0 0 -3.23,7.3899999 v 4.94 z"
     class="cls-2" />
  <path
     style="fill:#265ed4"
     id="path18"
     d="m 66.63218,29.810862 v -3.11 h -6.4 v 3.11 z"
     class="cls-2" />
  <path
     style="fill:#265ed4"
     id="path20"
     d="m 78.28218,41.020862 a 3.17,3.17 0 0 0 -2.84,1.87 4.71,4.71 0 0 1 -1.72,1.85 4.44,4.44 0 0 1 -2.44,0.68 4.71,4.71 0 0 1 -4.65,-4.64 v -4.89 h -6.4 v 5 a 11.06,11.06 0 0 0 11,10.61 11,11 0 0 0 9.82,-6 2.93,2.93 0 0 0 0.33,-1.32 3,3 0 0 0 -1,-2.22 3.1,3.1 0 0 0 -2.18,-0.88"
     class="cls-2" />
  <path
     style="fill:#265ed4"
     id="path22"
     d="m 73.00218,26.700862 a 2.89,2.89 0 0 0 3,-3 3.14,3.14 0 0 0 -0.67,-2 3,3 0 0 0 -2.35,-1 h -6.35 v 6 z"
     class="cls-2" />
  <path
     style="fill:#265ed4"
     id="path24"
     d="m 60.23218,20.660862 a 2.89,2.89 0 0 0 -3,3 2.89,2.89 0 0 0 3,3 z"
     class="cls-2" />
  <polygon
     transform="translate(-0.36782043,-1.1091379)"
     style="fill:#000059"
     id="polygon26"
     points="66.97,21.77 60.6,21.77 60.6,27.81 60.6,27.81 66.97,27.81 "
     class="cls-3" />
  <path
     style="fill:#33c1ea"
     id="path28"
     d="m 57.23218,32.830862 a 2.89,2.89 0 0 0 3,3 v -6 a 2.89,2.89 0 0 0 -3,3"
     class="cls-1" />
  <path
     style="fill:#33c1ea"
     id="path30"
     d="m 73.00218,35.890862 a 3,3 0 0 0 2.35,-1 3.14,3.14 0 0 0 0.67,-2 2.89,2.89 0 0 0 -3,-3 h -6.39 v 6 z"
     class="cls-1" />
  <path
     style="fill:#000059"
     id="path32"
     d="m 66.63218,29.810862 h -6.4 v 6 h 6.4 z"
     class="cls-3" />
  <path
     style="fill:#265ed4"
     id="path34"
     d="m 22.43218,17.630862 a 5.33,5.33 0 0 1 -5.33,5.33 5.34,5.34 0 0 1 -5.35,-5.33 5.34,5.34 0 0 1 5.35,-5.34 5.33,5.33 0 0 1 5.33,5.34 m 6.75,-0.12 a 11.64,11.64 0 0 0 -3.55,-8.5399999 11.64,11.64 0 0 0 -8.54,-3.54 11.65,11.65 0 0 0 -8.5500004,3.54 11.64,11.64 0 0 0 -3.54,8.5399999 11.57,11.57 0 0 0 3,8 c 0.16,0.19 0.32,0.37 0.5,0.55 a 11.65,11.65 0 0 0 8.5500004,3.54 11.53,11.53 0 0 0 7,-2.25 14.13,14.13 0 0 0 1.58,-1.3 11.64,11.64 0 0 0 3.54,-8.54"
     class="cls-2" />
  <path
     style="fill:#265ed4"
     id="path36"
     d="m 47.42218,13.040862 a 3,3 0 0 1 -0.79,1.93 2.29,2.29 0 0 1 -1.8,0.92 h -4.49 v -5.69 h 4.51 a 2.32,2.32 0 0 1 1.79,0.92 3,3 0 0 1 0.78,1.92 m 6.29,0 a 7.67,7.67 0 0 0 -2.48,-5.5899999 8,8 0 0 0 -5.88,-2.45 h -8.41 a 3,3 0 0 0 -2,0.76 2.38,2.38 0 0 0 -0.86,1.83 V 26.750862 a 2.55,2.55 0 0 0 0.11,0.74 2.72,2.72 0 0 0 0.81,1.28 3.43,3.43 0 0 0 4.45,0 2.58,2.58 0 0 0 0.92,-2 v -5.68 h 5 a 8.11,8.11 0 0 0 5.88,-2.43 7.68,7.68 0 0 0 2.48,-5.62"
     class="cls-2" />
  <text
     id="text57"
     y="73.440308"
     x="3.9502945"
     style="font-style:normal;font-variant:normal;font-weight:normal;font-stretch:normal;font-size:35.22917175px;line-height:125%;font-family:'IBM Plex Sans';-inkscape-font-specification:'IBM Plex Sans';letter-spacing:0px;word-spacing:12.08360672px;fill:#000000;fill-opacity:1;stroke:none;stroke-width:0.88072932px;stroke-linecap:butt;stroke-linejoin:miter;stroke-opacity:1"
     xml:space="preserve"><tspan
       style="font-style:normal;font-variant:normal;font-weight:500;font-stretch:normal;font-size:22.66666603px;font-family:Dosis;-inkscape-font-specification:'Dosis, Medium';font-variant-ligatures:normal;font-variant-caps:normal;font-variant-numeric:normal;font-feature-settings:normal;text-align:start;writing-mode:lr-tb;text-anchor:start;fill:#ec0000;fill-opacity:1;stroke-width:0.88072932px"
       y="73.440308"
       x="3.9502945"
       id="tspan55">Amsterdam</tspan></text>
</svg>
