<?xml version="1.0" encoding="UTF-8" standalone="no"?>
<!-- Created with Inkscape (http://www.inkscape.org/) -->

<svg
   xmlns:dc="http://purl.org/dc/elements/1.1/"
   xmlns:cc="http://creativecommons.org/ns#"
   xmlns:rdf="http://www.w3.org/1999/02/22-rdf-syntax-ns#"
   xmlns:svg="http://www.w3.org/2000/svg"
   xmlns="http://www.w3.org/2000/svg"
   xmlns:sodipodi="http://sodipodi.sourceforge.net/DTD/sodipodi-0.dtd"
   xmlns:inkscape="http://www.inkscape.org/namespaces/inkscape"
   version="1.1"
   id="svg2"
   xml:space="preserve"
   width="530.97467"
   height="319.47531"
   viewBox="0 0 530.97467 319.47531"
   sodipodi:docname="Open-Poen-Logo-Amsterdam.svg"
   inkscape:version="0.92.3 (2405546, 2018-03-11)"><metadata
     id="metadata8"><rdf:RDF><cc:Work
         rdf:about=""><dc:format>image/svg+xml</dc:format><dc:type
           rdf:resource="http://purl.org/dc/dcmitype/StillImage" /><dc:title></dc:title></cc:Work></rdf:RDF></metadata><defs
     id="defs6" /><sodipodi:namedview
     pagecolor="#ffffff"
     bordercolor="#666666"
     borderopacity="1"
     objecttolerance="10"
     gridtolerance="10"
     guidetolerance="10"
     inkscape:pageopacity="0"
     inkscape:pageshadow="2"
     inkscape:window-width="1920"
     inkscape:window-height="1056"
     id="namedview4"
     showgrid="false"
     fit-margin-top="0"
     fit-margin-left="0"
     fit-margin-right="0"
     fit-margin-bottom="0"
     inkscape:zoom="1.0147692"
     inkscape:cx="300.28844"
     inkscape:cy="226.66806"
     inkscape:window-x="0"
     inkscape:window-y="24"
     inkscape:window-maximized="1"
     inkscape:current-layer="g10" /><g
     id="g10"
     inkscape:groupmode="layer"
     inkscape:label="ink_ext_XXXXXX"
     transform="matrix(1.3333333,0,0,-1.3333333,0,238.63599)"><g
       id="g12"
       transform="scale(0.1)"><path
         d="m 1186.3,1347.46 c -52.69,-28.16 -111.58,-42.22 -176.72,-42.22 -32.971,0 -63.232,5.33 -90.771,15.98 -27.539,10.65 -51.258,25.73 -71.164,45.24 -19.903,19.49 -35.489,42.91 -46.747,70.26 -11.257,27.34 -16.882,57.69 -16.882,91.07 0,34.17 5.625,65.23 16.882,93.18 11.258,27.94 26.844,51.76 46.747,71.47 19.906,19.69 43.625,34.88 71.164,45.53 27.539,10.65 57.8,15.99 90.771,15.99 32.57,0 63.13,-3.92 91.68,-11.76 28.54,-7.84 54.07,-21.82 76.59,-41.92 l -56.09,-56.69 c -13.67,13.27 -30.26,23.52 -49.76,30.75 -19.5,7.24 -40.11,10.87 -61.81,10.87 -22.124,0 -42.131,-3.92 -60.014,-11.77 -17.903,-7.84 -33.281,-18.69 -46.145,-32.56 -12.871,-13.88 -22.82,-30.07 -29.851,-48.56 -7.039,-18.5 -10.559,-38.4 -10.559,-59.71 0,-22.91 3.52,-44.03 10.559,-63.32 7.031,-19.31 16.98,-35.99 29.851,-50.06 12.864,-14.09 28.242,-25.14 46.145,-33.18 17.883,-8.04 37.89,-12.06 60.014,-12.06 19.29,0 37.49,1.81 54.58,5.43 17.09,3.62 32.26,9.25 45.53,16.89 v 100.72 h -87.45 v 68.76 h 163.45 v -218.33"
         style="fill:#ed1c24;fill-opacity:1;fill-rule:nonzero;stroke:none"
         id="path14"
         inkscape:connector-curvature="0" /><path
         d="m 1475.79,1489.79 c -0.4,21.31 -7.03,38.09 -19.9,50.36 -12.87,12.26 -30.75,18.4 -53.67,18.4 -21.72,0 -38.91,-6.24 -51.58,-18.7 -12.66,-12.47 -20.41,-29.16 -23.21,-50.06 z m -148.36,-54.28 c 2.41,-21.71 10.85,-38.6 25.32,-50.66 14.49,-12.06 31.98,-18.09 52.48,-18.09 18.09,0 33.27,3.71 45.53,11.15 12.27,7.44 23.02,16.79 32.27,28.05 l 51.87,-39.2 c -16.88,-20.92 -35.79,-35.8 -56.7,-44.63 -20.91,-8.84 -42.82,-13.27 -65.73,-13.27 -21.72,0 -42.23,3.62 -61.52,10.85 -19.3,7.24 -35.99,17.49 -50.06,30.76 -14.08,13.27 -25.24,29.25 -33.48,47.95 -8.24,18.69 -12.36,39.51 -12.36,62.42 0,22.92 4.12,43.73 12.36,62.43 8.24,18.69 19.4,34.68 33.48,47.94 14.07,13.27 30.76,23.52 50.06,30.76 19.29,7.24 39.8,10.86 61.52,10.86 20.1,0 38.5,-3.53 55.19,-10.56 16.68,-7.04 30.95,-17.19 42.82,-30.45 11.85,-13.27 21.1,-29.66 27.73,-49.16 6.64,-19.51 9.96,-41.91 9.96,-67.25 v -19.9 h -220.74"
         style="fill:#ed1c24;fill-opacity:1;fill-rule:nonzero;stroke:none"
         id="path16"
         inkscape:connector-curvature="0" /><path
         d="m 1612.7,1605.59 h 68.75 v -45.23 h 1.21 c 6.42,13.66 16.78,25.83 31.06,36.48 14.27,10.66 33.47,15.99 57.6,15.99 45.43,0 75.58,-17.9 90.47,-53.68 10.45,18.49 23.51,32.06 39.2,40.71 15.68,8.64 34.37,12.97 56.08,12.97 19.31,0 35.59,-3.22 48.86,-9.65 13.27,-6.44 24.02,-15.29 32.26,-26.54 8.25,-11.26 14.17,-24.43 17.8,-39.5 3.62,-15.08 5.43,-31.27 5.43,-48.56 v -172.49 h -72.38 v 164.05 c 0,8.84 -0.81,17.39 -2.41,25.64 -1.61,8.23 -4.43,15.47 -8.45,21.7 -4.02,6.23 -9.45,11.16 -16.28,14.79 -6.84,3.61 -15.68,5.42 -26.54,5.42 -11.26,0 -20.81,-2.11 -28.64,-6.33 -7.84,-4.22 -14.28,-9.86 -19.31,-16.89 -5.03,-7.04 -8.65,-15.08 -10.85,-24.12 -2.21,-9.05 -3.32,-18.2 -3.32,-27.44 v -156.82 h -72.37 v 172.49 c 0,18.1 -3.83,32.47 -11.47,43.13 -7.63,10.65 -20.3,15.98 -37.98,15.98 -12.07,0 -22.23,-2.02 -30.46,-6.03 -8.25,-4.02 -15.08,-9.45 -20.51,-16.28 -5.43,-6.84 -9.35,-14.69 -11.76,-23.52 -2.42,-8.85 -3.62,-18.1 -3.62,-27.75 v -158.02 h -72.37 v 289.5"
         style="fill:#ed1c24;fill-opacity:1;fill-rule:nonzero;stroke:none"
         id="path18"
         inkscape:connector-curvature="0" /><path
         d="m 2346.69,1489.79 c -0.4,21.31 -7.03,38.09 -19.9,50.36 -12.87,12.26 -30.75,18.4 -53.67,18.4 -21.72,0 -38.91,-6.24 -51.58,-18.7 -12.66,-12.47 -20.41,-29.16 -23.21,-50.06 z m -148.36,-54.28 c 2.41,-21.71 10.85,-38.6 25.32,-50.66 14.48,-12.06 31.98,-18.09 52.48,-18.09 18.09,0 33.26,3.71 45.53,11.15 12.27,7.44 23.02,16.79 32.27,28.05 l 51.87,-39.2 c -16.88,-20.92 -35.79,-35.8 -56.7,-44.63 -20.91,-8.84 -42.82,-13.27 -65.73,-13.27 -21.72,0 -42.23,3.62 -61.52,10.85 -19.3,7.24 -35.99,17.49 -50.06,30.76 -14.08,13.27 -25.24,29.25 -33.48,47.95 -8.24,18.69 -12.36,39.51 -12.36,62.42 0,22.92 4.12,43.73 12.36,62.43 8.24,18.69 19.4,34.68 33.48,47.94 14.07,13.27 30.76,23.52 50.06,30.76 19.29,7.24 39.8,10.86 61.52,10.86 20.1,0 38.5,-3.53 55.18,-10.56 16.68,-7.04 30.96,-17.19 42.83,-30.45 11.85,-13.27 21.1,-29.66 27.73,-49.16 6.64,-19.51 9.96,-41.91 9.96,-67.25 v -19.9 h -220.74"
         style="fill:#ed1c24;fill-opacity:1;fill-rule:nonzero;stroke:none"
         id="path20"
         inkscape:connector-curvature="0" /><path
         d="m 2692.87,1489.79 c -0.4,21.31 -7.03,38.09 -19.9,50.36 -12.87,12.26 -30.75,18.4 -53.67,18.4 -21.72,0 -38.91,-6.24 -51.58,-18.7 -12.66,-12.47 -20.41,-29.16 -23.21,-50.06 z m -148.36,-54.28 c 2.41,-21.71 10.85,-38.6 25.32,-50.66 14.49,-12.06 31.98,-18.09 52.48,-18.09 18.09,0 33.27,3.71 45.53,11.15 12.27,7.44 23.02,16.79 32.27,28.05 l 51.87,-39.2 c -16.88,-20.92 -35.79,-35.8 -56.7,-44.63 -20.9,-8.84 -42.82,-13.27 -65.73,-13.27 -21.72,0 -42.23,3.62 -61.52,10.85 -19.3,7.24 -35.99,17.49 -50.06,30.76 -14.08,13.27 -25.24,29.25 -33.48,47.95 -8.24,18.69 -12.36,39.51 -12.36,62.42 0,22.92 4.12,43.73 12.36,62.43 8.24,18.69 19.4,34.68 33.48,47.94 14.07,13.27 30.76,23.52 50.06,30.76 19.29,7.24 39.8,10.86 61.52,10.86 20.1,0 38.5,-3.53 55.19,-10.56 16.68,-7.04 30.95,-17.19 42.82,-30.45 11.85,-13.27 21.1,-29.66 27.73,-49.16 6.64,-19.51 9.96,-41.91 9.96,-67.25 v -19.9 h -220.74"
         style="fill:#ed1c24;fill-opacity:1;fill-rule:nonzero;stroke:none"
         id="path22"
         inkscape:connector-curvature="0" /><path
         d="m 2832.79,1605.59 h 68.75 v -46.44 h 1.21 c 6.83,14.48 17.29,27.04 31.36,37.69 14.07,10.66 33.18,15.99 57.3,15.99 19.3,0 35.68,-3.22 49.16,-9.65 13.46,-6.44 24.42,-14.88 32.87,-25.33 8.44,-10.46 14.47,-22.52 18.08,-36.19 3.63,-13.67 5.43,-27.95 5.43,-42.82 v -182.75 h -72.37 v 146.56 c 0,8.04 -0.4,16.98 -1.2,26.84 -0.81,9.85 -2.93,19.09 -6.34,27.74 -3.42,8.65 -8.74,15.88 -15.98,21.72 -7.24,5.82 -17.1,8.74 -29.56,8.74 -12.06,0 -22.21,-2.02 -30.46,-6.03 -8.24,-4.02 -15.07,-9.45 -20.49,-16.28 -5.43,-6.84 -9.36,-14.69 -11.77,-23.52 -2.41,-8.85 -3.61,-18.1 -3.61,-27.75 v -158.02 h -72.38 v 289.5"
         style="fill:#ed1c24;fill-opacity:1;fill-rule:nonzero;stroke:none"
         id="path24"
         inkscape:connector-curvature="0" /><path
         d="m 3145.2,1544.07 v 61.52 h 59.7 v 73.83 l 72.38,20 v -93.83 h 79.61 v -61.52 h -79.61 v -126.65 c 0,-14.47 2.71,-25.94 8.14,-34.38 5.43,-8.45 16.18,-12.66 32.27,-12.66 6.42,0 13.46,0.69 21.11,2.1 7.64,1.41 13.66,3.72 18.09,6.94 v -60.92 c -7.64,-3.61 -16.99,-6.12 -28.04,-7.54 -11.07,-1.39 -20.81,-2.1 -29.25,-2.1 -19.31,0 -35.09,2.1 -47.35,6.33 -12.27,4.22 -21.92,10.65 -28.95,19.3 -7.04,8.64 -11.86,19.39 -14.47,32.27 -2.63,12.86 -3.93,27.74 -3.93,44.63 v 132.68 h -59.7"
         style="fill:#ed1c24;fill-opacity:1;fill-rule:nonzero;stroke:none"
         id="path26"
         inkscape:connector-curvature="0" /><path
         d="m 3619.84,1489.79 c -0.4,21.31 -7.03,38.09 -19.9,50.36 -12.87,12.26 -30.75,18.4 -53.67,18.4 -21.72,0 -38.91,-6.24 -51.57,-18.7 -12.67,-12.47 -20.41,-29.16 -23.22,-50.06 z m -148.36,-54.28 c 2.42,-21.71 10.85,-38.6 25.33,-50.66 14.48,-12.06 31.97,-18.09 52.48,-18.09 18.08,0 33.26,3.71 45.52,11.15 12.27,7.44 23.02,16.79 32.27,28.05 l 51.88,-39.2 c -16.89,-20.92 -35.8,-35.8 -56.7,-44.63 -20.91,-8.84 -42.83,-13.27 -65.74,-13.27 -21.72,0 -42.22,3.62 -61.52,10.85 -19.3,7.24 -35.99,17.49 -50.06,30.76 -14.08,13.27 -25.23,29.25 -33.48,47.95 -8.24,18.69 -12.36,39.51 -12.36,62.42 0,22.92 4.12,43.73 12.36,62.43 8.25,18.69 19.4,34.68 33.48,47.94 14.07,13.27 30.76,23.52 50.06,30.76 19.3,7.24 39.8,10.86 61.52,10.86 20.1,0 38.5,-3.53 55.19,-10.56 16.68,-7.04 30.96,-17.19 42.82,-30.45 11.86,-13.27 21.1,-29.66 27.74,-49.16 6.64,-19.51 9.96,-41.91 9.96,-67.25 v -19.9 h -220.75"
         style="fill:#ed1c24;fill-opacity:1;fill-rule:nonzero;stroke:none"
         id="path28"
         inkscape:connector-curvature="0" /><path
         d="M 1041.54,840.336 975.813,1014.04 908.855,840.336 Z M 945.051,1104.5 h 65.739 l 183.95,-427.012 h -86.85 l -39.8,97.711 H 882.93 L 844.324,677.488 H 759.285 L 945.051,1104.5"
         style="fill:#ed1c24;fill-opacity:1;fill-rule:nonzero;stroke:none"
         id="path30"
         inkscape:connector-curvature="0" /><path
         d="m 1232.72,966.992 h 68.75 v -45.234 h 1.22 c 6.42,13.668 16.78,25.828 31.06,36.488 14.27,10.649 33.47,15.981 57.6,15.981 45.43,0 75.58,-17.895 90.47,-53.676 10.45,18.492 23.51,32.062 39.2,40.715 15.68,8.636 34.37,12.961 56.08,12.961 19.31,0 35.59,-3.223 48.86,-9.645 13.27,-6.437 24.02,-15.285 32.26,-26.539 8.24,-11.262 14.17,-24.426 17.8,-39.504 3.62,-15.078 5.43,-31.269 5.43,-48.555 V 677.488 h -72.38 v 164.059 c 0,8.828 -0.81,17.383 -2.41,25.625 -1.61,8.242 -4.43,15.48 -8.45,21.715 -4.02,6.23 -9.45,11.156 -16.28,14.781 -6.84,3.617 -15.68,5.422 -26.54,5.422 -11.26,0 -20.81,-2.11 -28.64,-6.332 -7.84,-4.219 -14.28,-9.852 -19.31,-16.883 -5.03,-7.043 -8.65,-15.078 -10.85,-24.133 -2.21,-9.043 -3.32,-18.191 -3.32,-27.441 V 677.488 h -72.37 v 172.496 c 0,18.098 -3.83,32.461 -11.47,43.125 -7.63,10.649 -20.3,15.981 -37.98,15.981 -12.07,0 -22.23,-2.016 -30.46,-6.027 -8.26,-4.024 -15.08,-9.454 -20.51,-16.286 -5.43,-6.839 -9.35,-14.683 -11.76,-23.519 -2.42,-8.848 -3.62,-18.098 -3.62,-27.746 V 677.488 h -72.38 v 289.504"
         style="fill:#ed1c24;fill-opacity:1;fill-rule:nonzero;stroke:none"
         id="path32"
         inkscape:connector-curvature="0" /><path
         d="m 1914.85,886.777 c -14.08,19.696 -32.97,29.551 -56.69,29.551 -9.64,0 -19.1,-2.41 -28.35,-7.238 -9.25,-4.824 -13.86,-12.664 -13.86,-23.52 0,-8.847 3.81,-15.281 11.45,-19.297 7.64,-4.023 17.29,-7.441 28.95,-10.253 11.66,-2.813 24.22,-5.731 37.69,-8.75 13.47,-3.008 26.04,-7.637 37.7,-13.868 11.66,-6.238 21.31,-14.785 28.95,-25.632 7.63,-10.852 11.46,-25.731 11.46,-44.629 0,-17.301 -3.72,-31.879 -11.15,-43.719 -7.46,-11.883 -17.1,-21.422 -28.96,-28.652 -11.86,-7.25 -25.23,-12.469 -40.11,-15.692 -14.88,-3.207 -29.75,-4.816 -44.63,-4.816 -22.51,0 -43.22,3.218 -62.11,9.648 -18.91,6.418 -35.8,18.09 -50.67,34.981 l 48.25,45.23 c 9.24,-10.461 19.19,-19 29.86,-25.621 10.64,-6.641 23.61,-9.961 38.89,-9.961 5.23,0 10.66,0.602 16.29,1.813 5.63,1.199 10.85,3.207 15.69,6.027 4.82,2.801 8.74,6.34 11.75,10.551 3.02,4.218 4.53,9.14 4.53,14.781 0,10.051 -3.83,17.488 -11.46,22.309 -7.65,4.832 -17.29,8.75 -28.95,11.761 -11.66,3.02 -24.23,5.832 -37.7,8.449 -13.48,2.606 -26.04,6.825 -37.7,12.665 -11.66,5.82 -21.31,13.964 -28.94,24.433 -7.65,10.449 -11.47,24.922 -11.47,43.418 0,16.074 3.32,30.055 9.96,41.914 6.64,11.856 15.38,21.613 26.24,29.254 10.86,7.633 23.31,13.27 37.39,16.891 14.07,3.617 28.35,5.422 42.82,5.422 19.3,0 38.39,-3.313 57.3,-9.95 18.89,-6.632 34.17,-18 45.84,-34.078 l -48.26,-43.422"
         style="fill:#ed1c24;fill-opacity:1;fill-rule:nonzero;stroke:none"
         id="path34"
         inkscape:connector-curvature="0" /><path
         d="m 1994.45,905.473 v 61.519 h 59.71 v 73.828 l 72.37,20 v -93.828 h 79.62 v -61.519 h -79.62 V 778.809 c 0,-14.469 2.72,-25.918 8.15,-34.368 5.43,-8.441 16.18,-12.66 32.26,-12.66 6.43,0 13.47,0.699 21.12,2.11 7.63,1.41 13.66,3.711 18.09,6.929 v -60.91 c -7.64,-3.621 -16.99,-6.129 -28.04,-7.539 -11.07,-1.41 -20.82,-2.109 -29.25,-2.109 -19.31,0 -35.09,2.109 -47.36,6.328 -12.26,4.219 -21.91,10.648 -28.94,19.289 -7.04,8.66 -11.87,19.402 -14.47,32.281 -2.63,12.86 -3.93,27.738 -3.93,44.629 v 132.684 h -59.71"
         style="fill:#ed1c24;fill-opacity:1;fill-rule:nonzero;stroke:none"
         id="path36"
         inkscape:connector-curvature="0" /><path
         d="m 2469.1,851.195 c -0.4,21.309 -7.03,38.086 -19.9,50.356 -12.87,12.262 -30.75,18.398 -53.67,18.398 -21.72,0 -38.91,-6.238 -51.57,-18.695 -12.67,-12.469 -20.42,-29.16 -23.22,-50.059 z m -148.36,-54.277 c 2.41,-21.719 10.85,-38.609 25.32,-50.668 14.49,-12.07 31.98,-18.09 52.48,-18.09 18.09,0 33.27,3.711 45.53,11.16 12.27,7.418 23.02,16.782 32.27,28.039 l 51.87,-39.199 c -16.88,-20.91 -35.79,-35.789 -56.7,-44.64 -20.9,-8.829 -42.82,-13.258 -65.73,-13.258 -21.72,0 -42.23,3.609 -61.52,10.859 -19.3,7.219 -35.99,17.481 -50.06,30.758 -14.08,13.262 -25.24,29.242 -33.48,47.941 -8.24,18.7 -12.36,39.5 -12.36,62.43 0,22.91 4.12,43.723 12.36,62.418 8.24,18.695 19.4,34.676 33.48,47.945 14.07,13.27 30.76,23.524 50.06,30.762 19.29,7.234 39.8,10.852 61.52,10.852 20.1,0 38.5,-3.524 55.19,-10.551 16.68,-7.039 30.95,-17.192 42.82,-30.457 11.85,-13.27 21.1,-29.66 27.73,-49.153 6.64,-19.511 9.96,-41.914 9.96,-67.246 v -19.902 h -220.74"
         style="fill:#ed1c24;fill-opacity:1;fill-rule:nonzero;stroke:none"
         id="path38"
         inkscape:connector-curvature="0" /><path
         d="m 2609.02,966.992 h 72.38 v -45.836 h 1.2 c 8.03,16.887 19.5,29.946 34.38,39.199 14.87,9.25 31.97,13.872 51.26,13.872 4.43,0 8.75,-0.403 12.97,-1.204 4.22,-0.812 8.54,-1.808 12.97,-3.015 v -69.965 c -6.04,1.605 -11.97,2.914 -17.79,3.922 -5.83,1 -11.57,1.508 -17.19,1.508 -16.9,0 -30.46,-3.121 -40.71,-9.344 -10.26,-6.242 -18.1,-13.371 -23.53,-21.418 -5.42,-8.047 -9.04,-16.082 -10.85,-24.121 -1.82,-8.047 -2.71,-14.082 -2.71,-18.094 V 677.488 h -72.38 v 289.504"
         style="fill:#ed1c24;fill-opacity:1;fill-rule:nonzero;stroke:none"
         id="path40"
         inkscape:connector-curvature="0" /><path
         d="m 2890.68,822.25 c 0,-11.27 1.9,-22.129 5.73,-32.578 3.81,-10.461 9.44,-19.703 16.89,-27.731 7.43,-8.062 16.38,-14.48 26.84,-19.312 10.45,-4.82 22.31,-7.238 35.58,-7.238 13.26,0 25.12,2.418 35.58,7.238 10.46,4.832 19.39,11.25 26.84,19.312 7.44,8.028 13.06,17.27 16.89,27.731 3.82,10.449 5.73,21.308 5.73,32.578 0,11.25 -1.91,22.102 -5.73,32.559 -3.83,10.449 -9.45,19.699 -16.89,27.746 -7.45,8.039 -16.38,14.476 -26.84,19.3 -10.46,4.825 -22.32,7.235 -35.58,7.235 -13.27,0 -25.13,-2.41 -35.58,-7.235 -10.46,-4.824 -19.41,-11.261 -26.84,-19.3 -7.45,-8.047 -13.08,-17.297 -16.89,-27.746 -3.83,-10.457 -5.73,-21.309 -5.73,-32.559 z m 171.28,-101.328 h -1.2 c -10.46,-17.692 -24.53,-30.563 -42.22,-38.602 -17.7,-8.039 -36.79,-12.058 -57.3,-12.058 -22.52,0 -42.52,3.918 -60.01,11.758 -17.49,7.839 -32.47,18.589 -44.93,32.261 -12.46,13.668 -21.92,29.758 -28.34,48.25 -6.45,18.489 -9.66,38.391 -9.66,59.719 0,21.301 3.42,41.203 10.25,59.707 6.84,18.488 16.38,34.57 28.66,48.242 12.25,13.668 27.03,24.43 44.32,32.27 17.29,7.84 36.19,11.758 56.7,11.758 13.66,0 25.73,-1.411 36.18,-4.219 10.45,-2.817 19.7,-6.438 27.75,-10.86 8.04,-4.425 14.87,-9.148 20.51,-14.168 5.62,-5.035 10.25,-9.953 13.86,-14.781 h 1.82 v 193.251 l 72.37,20 V 677.488 h -68.76 v 43.434"
         style="fill:#ed1c24;fill-opacity:1;fill-rule:nonzero;stroke:none"
         id="path42"
         inkscape:connector-curvature="0" /><path
         d="m 3389.45,807.172 h -15.07 c -10.05,0 -21.32,-0.41 -33.77,-1.211 -12.48,-0.809 -24.23,-2.715 -35.29,-5.731 -11.06,-3.019 -20.41,-7.453 -28.04,-13.269 -7.65,-5.832 -11.47,-13.973 -11.47,-24.43 0,-6.84 1.51,-12.562 4.53,-17.179 3.01,-4.633 6.94,-8.551 11.76,-11.774 4.82,-3.219 10.25,-5.527 16.28,-6.937 6.03,-1.403 12.07,-2.102 18.09,-2.102 24.94,0 43.32,5.922 55.19,17.789 11.86,11.852 17.79,28.051 17.79,48.555 z m 4.22,-89.871 h -1.8 c -10.46,-16.492 -23.74,-28.449 -39.81,-35.891 -16.08,-7.43 -33.77,-11.148 -53.08,-11.148 -13.26,0 -26.23,1.797 -38.89,5.429 -12.67,3.61 -23.93,9.039 -33.78,16.278 -9.85,7.23 -17.79,16.281 -23.82,27.14 -6.03,10.86 -9.05,23.52 -9.05,37.993 0,15.687 2.81,29.058 8.44,40.109 5.63,11.055 13.17,20.305 22.62,27.746 9.45,7.43 20.4,13.367 32.87,17.793 12.46,4.422 25.42,7.742 38.9,9.949 13.47,2.207 27.04,3.614 40.71,4.219 13.66,0.605 26.55,0.91 38.61,0.91 h 18.08 v 7.84 c 0,18.086 -6.23,31.664 -18.69,40.707 -12.47,9.051 -28.35,13.574 -47.65,13.574 -15.28,0 -29.55,-2.715 -42.82,-8.144 -13.27,-5.43 -24.72,-12.766 -34.37,-22.012 l -38,37.996 c 16.07,16.484 34.87,28.348 56.39,35.586 21.51,7.234 43.73,10.852 66.65,10.852 20.5,0 37.78,-2.313 51.86,-6.934 14.07,-4.625 25.73,-10.555 34.98,-17.793 9.25,-7.234 16.38,-15.582 21.42,-25.027 5.02,-9.453 8.64,-19 10.85,-28.649 2.2,-9.648 3.51,-19.004 3.92,-28.047 0.39,-9.043 0.61,-16.992 0.61,-23.828 V 677.488 h -65.15 v 39.813"
         style="fill:#ed1c24;fill-opacity:1;fill-rule:nonzero;stroke:none"
         id="path44"
         inkscape:connector-curvature="0" /><path
         d="m 3533.59,966.992 h 68.75 v -45.234 h 1.21 c 6.43,13.668 16.79,25.828 31.07,36.488 14.27,10.649 33.47,15.981 57.6,15.981 45.43,0 75.58,-17.895 90.47,-53.676 10.44,18.492 23.51,32.062 39.19,40.715 15.69,8.636 34.38,12.961 56.09,12.961 19.31,0 35.58,-3.223 48.86,-9.645 13.27,-6.437 24.02,-15.285 32.26,-26.539 8.24,-11.262 14.17,-24.426 17.79,-39.504 3.63,-15.078 5.43,-31.269 5.43,-48.555 V 677.488 h -72.37 v 164.059 c 0,8.828 -0.81,17.383 -2.41,25.625 -1.61,8.242 -4.43,15.48 -8.45,21.715 -4.02,6.23 -9.45,11.156 -16.28,14.781 -6.84,3.617 -15.68,5.422 -26.54,5.422 -11.26,0 -20.81,-2.11 -28.64,-6.332 -7.84,-4.219 -14.28,-9.852 -19.31,-16.883 -5.03,-7.043 -8.65,-15.078 -10.85,-24.133 -2.22,-9.043 -3.32,-18.191 -3.32,-27.441 V 677.488 h -72.37 v 172.496 c 0,18.098 -3.83,32.461 -11.47,43.125 -7.63,10.649 -20.3,15.981 -37.99,15.981 -12.07,0 -22.22,-2.016 -30.45,-6.027 -8.26,-4.024 -15.08,-9.454 -20.51,-16.286 -5.43,-6.839 -9.35,-14.683 -11.76,-23.519 -2.42,-8.848 -3.62,-18.098 -3.62,-27.746 V 677.488 h -72.38 v 289.504"
         style="fill:#ed1c24;fill-opacity:1;fill-rule:nonzero;stroke:none"
         id="path46"
         inkscape:connector-curvature="0" /><path
         d="M 526.758,1052.81 421.301,1158.27 263.379,1000.35 105.461,1158.27 0,1052.81 157.922,894.887 0,736.961 105.461,631.512 263.379,789.441 421.301,631.512 526.746,736.969 368.828,894.887 526.758,1052.81"
         style="fill:#e41d25;fill-opacity:1;fill-rule:nonzero;stroke:none"
         id="path48"
         inkscape:connector-curvature="0" /><path
         d="M 526.758,421.309 421.301,526.762 263.379,368.84 105.461,526.762 0,421.309 157.922,263.379 0,105.449 105.461,0 263.379,157.93 421.301,0 l 105.445,105.469 -157.918,157.91 157.93,157.93"
         style="fill:#ed1c24;fill-opacity:1;fill-rule:nonzero;stroke:none"
         id="path50"
         inkscape:connector-curvature="0" /><path
         d="M 526.758,1684.31 421.301,1789.77 263.379,1631.84 105.461,1789.77 0,1684.31 157.922,1526.39 0,1368.46 l 105.461,-105.45 157.918,157.93 157.922,-157.93 105.445,105.46 -157.918,157.92 157.93,157.92"
         style="fill:#e41d25;fill-opacity:1;fill-rule:nonzero;stroke:none"
         id="path52"
         inkscape:connector-curvature="0" /></g><path
       inkscape:connector-curvature="0"
       style="fill:#33c1ea;stroke-width:1.6735568"
       id="path8"
       d="m 397.34917,-21.683638 v 0 a 5.0282585,5.0282585 0 0 1 -10.04134,-0.552274 l 0.41839,-0.619216 -0.41839,0.619216 a 3.4977337,3.4977337 0 0 1 0,-0.585745 v -16.266972 l -12.40106,17.974 a 5.0206706,5.0206706 0 0 0 -9.95766,-0.552273 5.0206706,5.0206706 0 0 1 -0.13389,-1.121283 v -32.567427 a 5.0792451,5.0792451 0 1 1 10.15849,0 v 16.250247 l 13.25457,-19.145501 a 5.0206706,5.0206706 0 0 1 9.27151,2.895254 v 32.567427 a 5.1712907,5.1712907 0 0 1 -0.15062,1.138018"
       class="cls-1" /><path
       inkscape:connector-curvature="0"
       style="fill:#265ed4;stroke-width:1.6735568"
       id="path10"
       d="m 392.41218,17.042467 a 5.0206706,5.0206706 0 0 1 -5.02067,-5.02067 V -4.3790596 L 374.06999,14.850108 a 5.0206706,5.0206706 0 0 1 -9.25477,-2.878518 v -32.533944 a 5.0206706,5.0206706 0 0 1 0.13389,-1.138019 5.0206706,5.0206706 0 0 0 2.15889,3.112816 5.0206706,5.0206706 0 0 1 -2.15889,-3.112816 v 0 a 5.0206706,5.0206706 0 0 1 9.95766,0.585744 l -0.10041,0.150621 0.11715,-0.150621 v 0 c 0,0.184092 0,0.384918 0,0.585746 V -4.3790596 L 387.3413,-22.302854 a 5.0282585,5.0282585 0 0 0 10.04134,0.552274 5.0206706,5.0206706 0 0 1 0.15062,1.121283 V 11.97159 a 5.0206706,5.0206706 0 0 1 -5.12108,5.070877 z"
       class="cls-2" /><path
       inkscape:connector-curvature="0"
       style="fill:#33c1ea;stroke-width:1.6735568"
       id="path12"
       d="m 243.93422,-28.059889 h 7.54774 a 3.8324451,3.8324451 0 0 0 2.97893,-1.522937 4.6692237,4.6692237 0 0 0 0,-6.443194 3.8324451,3.8324451 0 0 0 -3.0124,-1.539672 h -7.51427 z m 22.39219,-4.769638 a 12.836181,12.836181 0 0 1 -4.15042,9.371919 v 0 a 13.488868,13.488868 0 0 1 -9.79031,4.066743 h -14.14156 a 4.8867861,4.8867861 0 0 1 -3.0124,-0.987398 l -0.38492,-0.284505 a 3.949594,3.949594 0 0 1 -1.45599,-3.062609 V -55.74053 a 4.3847188,4.3847188 0 0 1 1.53967,-3.347114 5.4223243,5.4223243 0 0 1 3.73203,-1.372317 5.3888531,5.3888531 0 0 1 3.73203,1.372317 4.3847188,4.3847188 0 0 1 1.53968,3.347114 v 9.522549 h 8.36778 a 13.606017,13.606017 0 0 1 9.84051,4.083479 12.852916,12.852916 0 0 1 4.1839,9.304975"
       class="cls-1" /><path
       inkscape:connector-curvature="0"
       style="fill:#33c1ea;stroke-width:1.6735568"
       id="path14-3"
       d="m 299.51304,-40.276854 a 8.1167507,8.1167507 0 1 0 -2.37645,5.773771 7.7987749,7.7987749 0 0 0 2.37645,-5.706829 m 12.13328,0 a 20.250038,20.250038 0 0 1 -20.21656,20.149625 c -0.73637,0 -1.43926,0 -2.14215,-0.117149 a 19.112019,19.112019 0 0 1 -10.35932,-4.284306 23.26244,23.26244 0 0 1 -1.80744,-1.673557 20.183095,20.183095 0 0 1 0,-28.567626 20.216567,20.216567 0 0 1 28.60108,0 19.480202,19.480202 0 0 1 5.92439,14.292186"
       class="cls-1" /><path
       inkscape:connector-curvature="0"
       style="fill:#265ed4;stroke-width:1.6735568"
       id="path16-6"
       d="m 333.26868,-9.0148116 v 0 8.25063498 a 7.4138568,7.4138568 0 0 0 2.30951,5.40558702 7.3134434,7.3134434 0 0 0 5.52273,2.2927734 7.5310058,7.5310058 0 0 0 4.10022,-1.138019 7.8991883,7.8991883 0 0 0 2.86178,-3.1128154 5.238233,5.238233 0 0 1 8.36778,-1.573144 5.0206706,5.0206706 0 0 1 1.07108,5.9411274 A 18.409125,18.409125 0 0 1 341.06745,17.092674 17.890323,17.890323 0 0 1 327.99697,11.67035 17.856852,17.856852 0 0 1 322.59139,-0.69723462 V -8.9646056 Z"
       class="cls-2" /><path
       inkscape:connector-curvature="0"
       style="fill:#265ed4;stroke-width:1.6735568"
       id="path18-7"
       d="m 333.26868,-24.327858 v 5.204762 h -10.71076 v -5.204762 z"
       class="cls-2" /><path
       inkscape:connector-curvature="0"
       style="fill:#265ed4;stroke-width:1.6735568"
       id="path20-5"
       d="m 352.76562,-43.08843 a 5.3051753,5.3051753 0 0 1 -4.75291,-3.129551 7.8824528,7.8824528 0 0 0 -2.87851,-3.09608 7.4305924,7.4305924 0 0 0 -4.08348,-1.138019 7.8824528,7.8824528 0 0 0 -7.78204,7.765304 v 8.183693 h -10.71076 v -8.367784 a 18.509539,18.509539 0 0 1 18.40912,-17.756449 18.409125,18.409125 0 0 1 16.43433,10.041352 4.9035216,4.9035216 0 0 1 0.55227,2.209095 5.0206706,5.0206706 0 0 1 -1.67356,3.715296 5.1880263,5.1880263 0 0 1 -3.64835,1.47273"
       class="cls-2" /><path
       inkscape:connector-curvature="0"
       style="fill:#265ed4;stroke-width:1.6735568"
       id="path22-3"
       d="m 343.92924,-19.123096 a 4.8365794,4.8365794 0 0 1 5.02067,5.020671 5.2549686,5.2549686 0 0 1 -1.12129,3.347113 5.0206706,5.0206706 0 0 1 -3.93286,1.6735574 H 333.26868 V -19.123096 Z"
       class="cls-2" /><path
       inkscape:connector-curvature="0"
       style="fill:#265ed4;stroke-width:1.6735568"
       id="path24-5"
       d="m 322.55792,-9.0148116 a 4.8365794,4.8365794 0 0 1 -5.02068,-5.0206714 4.8365794,4.8365794 0 0 1 5.02068,-5.02067 z"
       class="cls-2" /><path
       transform="matrix(1.6735568,0,0,-1.6735568,221.14037,27.418519)"
       style="fill:#000059"
       d="m 60.6,27.81 h 6.37 V 21.77 H 60.6 Z"
       id="polygon26" /><path
       inkscape:connector-curvature="0"
       style="fill:#33c1ea;stroke-width:1.6735568"
       id="path28-6"
       d="m 317.53724,-29.381999 a 4.8365794,4.8365794 0 0 1 5.02068,-5.020671 v 10.041341 a 4.8365794,4.8365794 0 0 1 -5.02068,-5.02067"
       class="cls-1" /><path
       inkscape:connector-curvature="0"
       style="fill:#33c1ea;stroke-width:1.6735568"
       id="path30-2"
       d="m 343.92924,-34.503083 a 5.0206706,5.0206706 0 0 1 3.93285,1.673556 5.2549686,5.2549686 0 0 1 1.12129,3.347114 4.8365794,4.8365794 0 0 1 -5.02067,5.020671 h -10.69403 v -10.041341 z"
       class="cls-1" /><path
       inkscape:connector-curvature="0"
       style="fill:#000059;stroke-width:1.6735568"
       id="path32-9"
       d="m 333.26868,-24.327858 h -10.71076 v -10.041341 h 10.71076 z"
       class="cls-3" /><path
       inkscape:connector-curvature="0"
       style="fill:#265ed4;stroke-width:1.6735568"
       id="path34-1"
       d="m 259.29747,-3.9439346 a 8.920058,8.920058 0 0 0 -8.92006,-8.9200584 8.9367935,8.9367935 0 0 0 -8.95353,8.9200584 8.9367935,8.9367935 0 0 0 8.95353,8.936792 8.920058,8.920058 0 0 0 8.92006,-8.936792 m 11.29651,0.200827 a 19.480202,19.480202 0 0 1 -5.94113,14.2921746 19.480202,19.480202 0 0 1 -14.29218,5.924391 19.496937,19.496937 0 0 1 -14.30891,-5.924391 19.480202,19.480202 0 0 1 -5.92439,-14.2921746 19.363053,19.363053 0 0 1 5.02067,-13.3884554 c 0.26777,-0.317976 0.53554,-0.619216 0.83678,-0.920456 a 19.496937,19.496937 0 0 1 14.30891,-5.924392 19.29611,19.29611 0 0 1 11.7149,3.765504 23.647358,23.647358 0 0 1 2.64422,2.175623 19.480202,19.480202 0 0 1 5.92439,14.2921764"
       class="cls-2" /><path
       inkscape:connector-curvature="0"
       style="fill:#265ed4;stroke-width:1.6735568"
       id="path36-2"
       d="m 301.11965,3.7376894 a 5.0206706,5.0206706 0 0 0 -1.32211,-3.22996402 3.8324451,3.8324451 0 0 0 -3.0124,-1.53967098 h -7.51427 v 9.5225374 h 7.54774 a 3.8826518,3.8826518 0 0 0 2.99567,-1.539673 5.0206706,5.0206706 0 0 0 1.30537,-3.2132294 m 10.52667,0 a 12.836181,12.836181 0 0 1 -4.15042,9.3551836 13.388455,13.388455 0 0 1 -9.84051,4.100214 h -14.07461 a 5.0206706,5.0206706 0 0 1 -3.34712,-1.271903 3.9830652,3.9830652 0 0 1 -1.43926,-3.062609 v -32.065348 a 4.2675698,4.2675698 0 0 1 0.1841,-1.238432 4.5520747,4.5520747 0 0 1 1.35558,-2.142154 5.7403,5.7403 0 0 1 7.44732,0 4.3177765,4.3177765 0 0 1 1.53968,3.347114 v 9.5058034 h 8.36778 a 13.572546,13.572546 0 0 1 9.84051,4.066743 12.852916,12.852916 0 0 1 4.15043,9.405388"
       class="cls-2" /><g
       aria-label="Powered by"
       transform="matrix(0.75000002,0,0,-0.75000002,73.169351,157.96135)"
       style="font-style:normal;font-variant:normal;font-weight:normal;font-stretch:normal;font-size:40px;line-height:125%;font-family:'IBM Plex Sans';-inkscape-font-specification:'IBM Plex Sans';letter-spacing:0px;word-spacing:13.72000027px;fill:#000000;fill-opacity:1;stroke:none;stroke-width:1px;stroke-linecap:butt;stroke-linejoin:miter;stroke-opacity:1"
       id="flowRoot117"><path
         d="m 3.5336719,282.05273 q -0.6,0 -1.16,-0.28 -0.52,-0.32 -0.52,-0.92 v -26.88 q 0,-0.48 0.36,-0.8 0.4,-0.32 1,-0.36 h 7.5600001 q 2.4,0 4.32,0.88 1.92,0.84 3.04,2.72 1.12,1.88 1.12,5.04 v 0.36 q 0,3.12 -1.16,5.04 -1.12,1.92 -3.08,2.8 -1.96,0.84 -4.4,0.84 H 5.2136719 v 10.36 q 0,0.6 -0.52,0.92 -0.52,0.28 -1.16,0.28 z m 1.68,-14.36 h 5.4000001 q 2.48,0 3.88,-1.4 1.4,-1.4 1.4,-4.28 v -0.48 q 0,-2.92 -1.4,-4.28 -1.4,-1.4 -3.88,-1.4 H 5.2136719 Z"
         style="font-style:normal;font-variant:normal;font-weight:500;font-stretch:normal;font-family:Dosis;-inkscape-font-specification:'Dosis Medium'"
         id="path279" /><path
         d="m 29.002422,282.37273 q -2.12,0 -3.92,-1.08 -1.8,-1.12 -2.88,-2.88 -1.08,-1.76 -1.08,-3.8 v -4.08 q 0,-2.04 1.04,-3.76 1.08,-1.76 2.88,-2.84 1.8,-1.08 3.96,-1.08 2.12,0 3.92,1.08 1.8,1.04 2.88,2.76 1.12,1.72 1.12,3.84 v 4.08 q 0,2 -1.12,3.8 -1.08,1.76 -2.88,2.88 -1.8,1.08 -3.92,1.08 z m 0,-3 q 1.28,0 2.28,-0.68 1.04,-0.68 1.68,-1.76 0.64,-1.12 0.64,-2.32 v -4.08 q 0,-1.16 -0.64,-2.24 -0.6,-1.08 -1.64,-1.76 -1.04,-0.68 -2.32,-0.68 -1.28,0 -2.32,0.68 -1.04,0.68 -1.64,1.76 -0.6,1.08 -0.6,2.24 v 4.08 q 0,1.2 0.6,2.32 0.6,1.08 1.64,1.76 1.04,0.68 2.32,0.68 z"
         style="font-style:normal;font-variant:normal;font-weight:500;font-stretch:normal;font-family:Dosis;-inkscape-font-specification:'Dosis Medium'"
         id="path281" /><path
         d="m 46.784922,282.41273 q -0.48,0 -0.84,-0.2 -0.32,-0.16 -0.52,-0.64 l -6.2,-16.48 q -0.08,-0.2 -0.16,-0.36 -0.04,-0.2 -0.04,-0.28 0,-0.44 0.32,-0.76 0.36,-0.32 0.84,-0.48 0.48,-0.2 0.92,-0.2 0.36,0 0.64,0.16 0.32,0.16 0.44,0.48 l 4.8,13.44 3.8,-12.12 q 0.16,-0.44 0.48,-0.6 0.32,-0.2 0.76,-0.2 0.44,0 0.76,0.2 0.36,0.16 0.48,0.6 l 3.72,12.24 4.88,-13.56 q 0.2,-0.64 1.04,-0.64 0.44,0 0.92,0.2 0.48,0.16 0.8,0.48 0.36,0.32 0.36,0.76 0,0.12 -0.08,0.32 -0.04,0.2 -0.08,0.32 l -6.24,16.6 q -0.16,0.4 -0.52,0.56 -0.36,0.16 -0.8,0.16 -0.52,0 -0.88,-0.2 -0.32,-0.16 -0.48,-0.52 l -3.88,-11.76 -3.8,11.64 q -0.16,0.4 -0.56,0.6 -0.4,0.24 -0.88,0.24 z"
         style="font-style:normal;font-variant:normal;font-weight:500;font-stretch:normal;font-family:Dosis;-inkscape-font-specification:'Dosis Medium'"
         id="path283" /><path
         d="m 75.979922,282.37273 q -2.6,0 -4.6,-0.96 -2,-1 -3.16,-2.72 -1.16,-1.76 -1.16,-4.08 v -4.2 q 0,-2.04 1.08,-3.76 1.12,-1.72 2.92,-2.76 1.8,-1.04 3.96,-1.04 2.08,0 3.8,0.96 1.76,0.96 2.8,2.6 1.08,1.64 1.08,3.8 0,1.6 -0.52,2.32 -0.52,0.68 -1.32,0.84 -0.8,0.16 -1.68,0.16 h -8.8 v 1.2 q 0,2.24 1.6,3.56 1.6,1.28 4.12,1.28 1.48,0 2.36,-0.4 0.88,-0.4 1.44,-0.76 0.56,-0.4 1,-0.4 0.44,0 0.72,0.28 0.32,0.24 0.48,0.6 0.16,0.36 0.16,0.64 0,0.52 -0.76,1.2 -0.76,0.64 -2.2,1.16 -1.4,0.48 -3.32,0.48 z m -5.6,-11.08 h 7.4 q 1.08,0 1.4,-0.24 0.36,-0.28 0.36,-1.04 0,-1.2 -0.6,-2.2 -0.56,-1.04 -1.6,-1.68 -1.04,-0.64 -2.36,-0.64 -1.24,0 -2.28,0.6 -1.04,0.56 -1.68,1.56 -0.64,1 -0.64,2.2 z"
         style="font-style:normal;font-variant:normal;font-weight:500;font-stretch:normal;font-family:Dosis;-inkscape-font-specification:'Dosis Medium'"
         id="path285" /><path
         d="m 87.973672,282.05273 q -0.68,0 -1.16,-0.36 -0.44,-0.4 -0.44,-0.84 v -16.6 q 0,-0.52 0.44,-0.84 0.48,-0.32 1.16,-0.32 0.68,0 1.12,0.32 0.44,0.32 0.44,0.84 v 1.88 q 0.44,-0.84 1.2,-1.56 0.76,-0.76 1.76,-1.24 1.04,-0.48 2.28,-0.48 h 1.36 q 0.52,0 0.88,0.44 0.4,0.44 0.4,1.08 0,0.6 -0.4,1.04 -0.36,0.44 -0.88,0.44 h -1.36 q -1.28,0 -2.44,0.72 -1.16,0.72 -1.92,2.04 -0.72,1.28 -0.72,3.12 v 9.12 q 0,0.44 -0.52,0.84 -0.48,0.36 -1.2,0.36 z"
         style="font-style:normal;font-variant:normal;font-weight:500;font-stretch:normal;font-family:Dosis;-inkscape-font-specification:'Dosis Medium'"
         id="path287" /><path
         d="m 107.54242,282.37273 q -2.6,0 -4.6,-0.96 -2,-1 -3.159998,-2.72 -1.16,-1.76 -1.16,-4.08 v -4.2 q 0,-2.04 1.08,-3.76 1.119998,-1.72 2.919998,-2.76 1.8,-1.04 3.96,-1.04 2.08,0 3.8,0.96 1.76,0.96 2.8,2.6 1.08,1.64 1.08,3.8 0,1.6 -0.52,2.32 -0.52,0.68 -1.32,0.84 -0.8,0.16 -1.68,0.16 h -8.8 v 1.2 q 0,2.24 1.6,3.56 1.6,1.28 4.12,1.28 1.48,0 2.36,-0.4 0.88,-0.4 1.44,-0.76 0.56,-0.4 1,-0.4 0.44,0 0.72,0.28 0.32,0.24 0.48,0.6 0.16,0.36 0.16,0.64 0,0.52 -0.76,1.2 -0.76,0.64 -2.2,1.16 -1.4,0.48 -3.32,0.48 z m -5.6,-11.08 h 7.4 q 1.08,0 1.4,-0.24 0.36,-0.28 0.36,-1.04 0,-1.2 -0.6,-2.2 -0.56,-1.04 -1.6,-1.68 -1.04,-0.64 -2.36,-0.64 -1.24,0 -2.28,0.6 -1.04,0.56 -1.68,1.56 -0.64,1 -0.64,2.2 z"
         style="font-style:normal;font-variant:normal;font-weight:500;font-stretch:normal;font-family:Dosis;-inkscape-font-specification:'Dosis Medium'"
         id="path289" /><path
         d="m 124.29617,282.37273 q -1.88,0 -3.52,-1.08 -1.6,-1.12 -2.6,-2.88 -0.96,-1.8 -0.96,-3.8 v -4.08 q 0,-2.12 0.96,-3.84 1,-1.72 2.6,-2.76 1.64,-1.08 3.6,-1.08 1.92,0 3.24,0.96 1.36,0.92 2,2.08 v -13.08 q 0,-0.52 0.48,-0.84 0.52,-0.32 1.24,-0.32 0.72,0 1.16,0.32 0.44,0.32 0.44,0.84 v 28.04 q 0,0.44 -0.44,0.84 -0.44,0.36 -1.16,0.36 -0.64,0 -1.12,-0.36 -0.44,-0.4 -0.44,-0.84 v -1.6 q -0.6,1.24 -2.12,2.2 -1.52,0.92 -3.36,0.92 z m 0.8,-3 q 1.28,0 2.28,-0.68 1.04,-0.72 1.64,-1.6 0.6,-0.88 0.6,-1.4 v -5.16 q 0,-1.48 -0.68,-2.48 -0.64,-1.04 -1.68,-1.6 -1.04,-0.6 -2.12,-0.6 -1.28,0 -2.32,0.68 -1.04,0.68 -1.68,1.76 -0.6,1.08 -0.6,2.24 v 4.08 q 0,1.16 0.6,2.28 0.64,1.12 1.68,1.8 1.04,0.68 2.28,0.68 z"
         style="font-style:normal;font-variant:normal;font-weight:500;font-stretch:normal;font-family:Dosis;-inkscape-font-specification:'Dosis Medium'"
         id="path291" /><path
         d="m 168.07055,282.37273 q -1.84,0 -3.36,-0.92 -1.48,-0.96 -2.12,-2.2 v 1.6 q 0,0.44 -0.44,0.84 -0.44,0.36 -1.12,0.36 -0.68,0 -1.16,-0.36 -0.44,-0.4 -0.44,-0.84 v -28.04 q 0,-0.52 0.44,-0.84 0.48,-0.32 1.16,-0.32 0.72,0 1.2,0.32 0.52,0.32 0.52,0.84 v 13.08 q 0.64,-1.16 1.96,-2.08 1.36,-0.96 3.28,-0.96 1.96,0 3.56,1.08 1.64,1.04 2.6,2.76 1,1.72 1,3.84 v 4.08 q 0,2 -1,3.8 -0.96,1.76 -2.56,2.88 -1.6,1.08 -3.52,1.08 z m -0.8,-3 q 1.24,0 2.28,-0.68 1.04,-0.68 1.64,-1.8 0.64,-1.12 0.64,-2.28 v -4.08 q 0,-1.16 -0.64,-2.24 -0.6,-1.08 -1.64,-1.76 -1.04,-0.68 -2.32,-0.68 -1.08,0 -2.12,0.6 -1.04,0.56 -1.72,1.6 -0.64,1 -0.64,2.48 v 5.16 q 0,0.52 0.6,1.4 0.6,0.88 1.64,1.6 1.04,0.68 2.28,0.68 z"
         style="font-style:normal;font-variant:normal;font-weight:500;font-stretch:normal;font-family:Dosis;-inkscape-font-specification:'Dosis Medium'"
         id="path293" /><path
         d="m 178.71805,291.21273 q -0.64,0 -1.08,-0.32 -0.44,-0.28 -0.44,-1.16 0,-0.56 0.2,-1 0.24,-0.44 0.76,-0.44 0.88,0 1.76,-0.52 0.88,-0.48 1.68,-1.48 0.84,-0.96 1.44,-2.28 0.6,-1.32 0.88,-2.92 l -6.64,-16.2 q -0.12,-0.24 -0.12,-0.44 0,-0.44 0.36,-0.8 0.36,-0.36 0.84,-0.56 0.52,-0.24 0.96,-0.24 0.32,0 0.64,0.16 0.32,0.16 0.4,0.52 l 5.32,13.92 4.76,-13.92 q 0.12,-0.36 0.4,-0.52 0.32,-0.16 0.64,-0.16 0.4,0 0.88,0.24 0.52,0.2 0.88,0.56 0.36,0.36 0.36,0.84 0,0.24 -0.08,0.4 l -6.12,16.28 q -0.6,1.64 -1.28,3.4 -0.68,1.76 -1.64,3.24 -0.92,1.52 -2.32,2.44 -1.4,0.96 -3.44,0.96 z"
         style="font-style:normal;font-variant:normal;font-weight:500;font-stretch:normal;font-family:Dosis;-inkscape-font-specification:'Dosis Medium'"
         id="path295" /></g></g></svg>