<svg id="Layer_1" data-name="Layer 1" xmlns="http://www.w3.org/2000/svg" viewBox="0 0 110 60"><defs><style>.cls-1{fill:#265ed4;}.cls-2{fill:#000059;}</style></defs><title>Open-Poen-Logo</title><path class="cls-1" d="M26,36.56A7.67,7.67,0,0,0,23.51,31l0,0a8,8,0,0,0-5.85-2.43H9.22a2.92,2.92,0,0,0-1.8.59,2,2,0,0,0-.23.18,2.34,2.34,0,0,0-.87,1.82V50.26a2.62,2.62,0,0,0,.92,2,3.24,3.24,0,0,0,2.23.82,3.22,3.22,0,0,0,2.23-.82,2.62,2.62,0,0,0,.92-2V44.61h5a8.08,8.08,0,0,0,5.88-2.44A7.68,7.68,0,0,0,26,36.56M12.62,33.72h4.51a2.27,2.27,0,0,1,1.78.92,2.78,2.78,0,0,1,0,3.84,2.29,2.29,0,0,1-1.8.92H12.62Z"/><path class="cls-2" d="M28.55,19.19A11.64,11.64,0,0,0,25,10.65a11.64,11.64,0,0,0-8.54-3.54,11.65,11.65,0,0,0-8.55,3.54,11.64,11.64,0,0,0-3.54,8.54,11.61,11.61,0,0,0,3,8c.16.18.32.36.5.54a11.65,11.65,0,0,0,8.55,3.54,11.53,11.53,0,0,0,7-2.25A13.08,13.08,0,0,0,25,27.73a11.64,11.64,0,0,0,3.54-8.54m-6.75.12a5.34,5.34,0,0,1-5.33,5.34,5.16,5.16,0,0,1-3.78-1.57,5.31,5.31,0,0,1,0-7.54A5.12,5.12,0,0,1,16.47,14a5.34,5.34,0,0,1,5.33,5.34"/><path class="cls-2" d="M53.08,14.73a7.63,7.63,0,0,0-2.48-5.6,8,8,0,0,0-5.87-2.45H36.31a3,3,0,0,0-2,.76,2.38,2.38,0,0,0-.86,1.83V28.43a2.55,2.55,0,0,0,.11.74,2.72,2.72,0,0,0,.81,1.28,3.43,3.43,0,0,0,4.45,0,2.58,2.58,0,0,0,.92-2V22.77h5a8.1,8.1,0,0,0,5.87-2.43,7.64,7.64,0,0,0,2.48-5.61m-6.29,0A3,3,0,0,1,46,16.65a2.29,2.29,0,0,1-1.8.92H39.71V11.88h4.51A2.32,2.32,0,0,1,46,12.8a3,3,0,0,1,.78,1.93"/><path class="cls-2" d="M101.34,6.77a3,3,0,0,0-3,3v9.71L90.38,8.08a3,3,0,0,0-5.53,1.73V29.24a3.1,3.1,0,0,0,.08.69,3,3,0,0,1,.9-1.53,3,3,0,0,0-.9,1.53,3,3,0,0,0,5.95-.33L90.45,29l.44.63c0-.12,0-.24,0-.36V19.53l7.42,10.71a3,3,0,0,1,6-.33,2.93,2.93,0,0,0,.09-.67V9.81A3,3,0,0,0,101.34,6.77ZM87,27.7h0a3,3,0,0,1,1.42-.1A3,3,0,0,0,87,27.7Zm3.39,1.16h0Z"/><path class="cls-1" d="M98.34,30.24a2.2,2.2,0,0,0,0,.36v9.71L90.88,29.6a3,3,0,0,1-5.95.33,2.93,2.93,0,0,0-.08.67V50a3,3,0,1,0,6.07,0V40.32l7.92,11.44a3,3,0,0,0,2.5,1.31,3.07,3.07,0,0,0,.9-.14,3,3,0,0,0,2.14-2.9V30.6a3.1,3.1,0,0,0-.09-.69m0,0a3,3,0,0,0-6,.33"/><path class="cls-1" d="M53.08,41A12.09,12.09,0,0,0,41,29c-.44,0-.86,0-1.28.06a11.36,11.36,0,0,0-6.18,2.52,12,12,0,0,0-1.08,1,12.06,12.06,0,0,0,0,17.07,12.08,12.08,0,0,0,17.09,0A11.64,11.64,0,0,0,53.08,41m-7.25,0a4.85,4.85,0,1,1-1.42-3.41A4.64,4.64,0,0,1,45.83,41"/><path class="cls-2" d="M59.6,37.53v5a11.06,11.06,0,0,0,11,10.6,11,11,0,0,0,9.82-6,2.9,2.9,0,0,0,.33-1.32,3,3,0,0,0-1-2.22,3.13,3.13,0,0,0-5,1,4.71,4.71,0,0,1-1.72,1.85A4.69,4.69,0,0,1,66,42.47v-25a4.45,4.45,0,0,1,1.38-3.24,4.68,4.68,0,0,1,5.74-.69,4.67,4.67,0,0,1,1.72,1.86,3.17,3.17,0,0,0,2.84,1.82,3.1,3.1,0,0,0,2.18-.88,3,3,0,0,0,1-2.21,3,3,0,0,0-.33-1.34,11,11,0,0,0-9.82-6A10.69,10.69,0,0,0,62.84,10,10.72,10.72,0,0,0,59.6,17.4V37.53Z"/><path class="cls-2" d="M59.6,28.38a2.89,2.89,0,0,1-3-3,2.89,2.89,0,0,1,3-3H72.37a3,3,0,0,1,2.35,1,3.14,3.14,0,0,1,.67,2,2.89,2.89,0,0,1-3,3H59.6Z"/><path class="cls-1" d="M59.6,37.53a3,3,0,0,1,0-6H72.37a2.89,2.89,0,0,1,3,3,3.14,3.14,0,0,1-.67,2,3,3,0,0,1-2.35,1H59.6Z"/></svg>