<?xml version="1.0" encoding="UTF-8" standalone="no"?>
<svg
   xmlns:dc="http://purl.org/dc/elements/1.1/"
   xmlns:cc="http://creativecommons.org/ns#"
   xmlns:rdf="http://www.w3.org/1999/02/22-rdf-syntax-ns#"
   xmlns:svg="http://www.w3.org/2000/svg"
   xmlns="http://www.w3.org/2000/svg"
   id="svg16"
   version="1.1"
   viewBox="0 0 72.074 61"
   height="61"
   width="72.074">
  <metadata
     id="metadata20">
    <rdf:RDF>
      <cc:Work
         rdf:about="">
        <dc:format>image/svg+xml</dc:format>
        <dc:type
           rdf:resource="http://purl.org/dc/dcmitype/StillImage" />
        <dc:title></dc:title>
      </cc:Work>
    </rdf:RDF>
  </metadata>
  <defs
     id="defs4">
    <style
       id="style2">.a{fill:#c60060;}.b{fill:#004896;font-size:28px;font-family:Dosis;font-weight:800;}</style>
  </defs>
  <path
     id="path6"
     transform="translate(-515.705 -447.087)"
     d="M575.5,500.278c-4.718-2.931-3.971-6.716-3.507-8.8a5.637,5.637,0,0,1,3.032-4.117,4.325,4.325,0,0,1,3.834.279c1.811,1.043,1.511,2.942,1.12,4.7-.089.4-.049.634.2.78s.471.065.777-.215c1.33-1.22,2.825-2.431,4.634-1.384a4.327,4.327,0,0,1,2.158,3.182,5.8,5.8,0,0,1-2.114,4.732,8.526,8.526,0,0,1-10.14.834"
     class="a" />
  <g
     id="text14"
     style="font-weight:800;font-size:28px;font-family:Dosis;fill:#004896"
     transform="translate(0 29)"
     aria-label="IEPENJILD">
    <path
       id="path846"
       style=""
       d="M 3.164,0 Q 2.744,0 2.352,-0.196 1.988,-0.42 1.988,-0.84 v -18.816 q 0,-0.42 0.364,-0.616 0.392,-0.196 0.812,-0.196 0.448,0 0.812,0.196 0.364,0.196 0.364,0.616 V -0.84 q 0,0.42 -0.364,0.644 Q 3.612,0 3.164,0 Z" />
    <path
       id="path848"
       style=""
       d="m 9.39575,0 q -0.392,0 -0.728,-0.196 -0.336,-0.224 -0.336,-0.644 v -18.788 q 0,-0.42 0.336,-0.616 0.336,-0.224 0.728,-0.224 h 9.968 q 0.448,0 0.616,0.336 0.196,0.336 0.196,0.7 0,0.42 -0.224,0.756 -0.196,0.336 -0.588,0.336 h -8.68 v 7.112 h 4.368 q 0.392,0 0.588,0.308 0.224,0.308 0.224,0.7 0,0.336 -0.196,0.644 -0.168,0.308 -0.616,0.308 h -4.368 v 7.14 h 8.68 q 0.392,0 0.588,0.336 0.224,0.308 0.224,0.756 0,0.364 -0.196,0.7 Q 19.81175,0 19.36375,0 Z" />
    <path
       id="path850"
       style=""
       d="m 23.890563,0 q -0.420001,0 -0.812001,-0.196 -0.364,-0.224 -0.364,-0.644 v -18.816 q 0,-0.336 0.252001,-0.56 0.279999,-0.224 0.7,-0.252 h 5.291999 q 1.68,0 3.024,0.616 1.344001,0.588 2.128,1.904 0.784,1.316 0.784,3.528 v 0.252 q 0,2.184 -0.811999,3.528 -0.784,1.344 -2.156,1.96 -1.372,0.588 -3.080001,0.588 h -3.78 v 7.252 q 0,0.42 -0.364,0.644 Q 24.338563,0 23.890563,0 Z m 1.175999,-10.052 h 3.78 q 1.736001,0 2.716,-0.98 0.980001,-0.98 0.980001,-2.996 v -0.336 q 0,-2.044 -0.980001,-2.996 -0.979999,-0.98 -2.716,-0.98 h -3.78 z" />
    <path
       id="path852"
       style=""
       d="m 38.762937,0 q -0.392,0 -0.728,-0.196 -0.336,-0.224 -0.336,-0.644 v -18.788 q 0,-0.42 0.336,-0.616 0.336,-0.224 0.728,-0.224 h 9.968001 q 0.448,0 0.615999,0.336 0.196,0.336 0.196,0.7 0,0.42 -0.223999,0.756 -0.196001,0.336 -0.588,0.336 h -8.68 v 7.112 h 4.367999 q 0.392001,0 0.588,0.308 0.224001,0.308 0.224001,0.7 0,0.336 -0.196001,0.644 -0.168,0.308 -0.616,0.308 h -4.367999 v 7.14 h 8.68 q 0.391999,0 0.588,0.336 0.223999,0.308 0.223999,0.756 0,0.364 -0.196,0.7 Q 49.178938,0 48.730938,0 Z" />
    <path
       id="path854"
       style=""
       d="m 53.25775,0 q -0.42,0 -0.812,-0.196 -0.364,-0.224 -0.364,-0.644 v -18.816 q 0,-0.448 0.364,-0.616 0.392,-0.196 0.812,-0.196 0.448,0 0.756,0.168 0.308,0.168 0.56,0.504 0.252,0.308 0.504,0.812 l 6.944,13.636 v -14.308 q 0,-0.42 0.364,-0.616 0.392,-0.196 0.812,-0.196 0.448,0 0.812,0.196 0.364,0.196 0.364,0.616 V -0.84 q 0,0.42 -0.364,0.644 -0.364,0.196 -0.812,0.196 -0.448,0 -0.84,-0.308 -0.364,-0.308 -0.616,-0.756 l -7.308,-14.084 V -0.84 q 0,0.42 -0.364,0.644 Q 53.70575,0 53.25775,0 Z" />
    <path
       id="path856"
       style="fill:#c60060;fill-opacity:1;stroke:none;stroke-opacity:1;fill-rule:evenodd;stroke-width:0.532;stroke-miterlimit:4;stroke-dasharray:none;opacity:1;stroke-linejoin:miter;stroke-linecap:round"
       d="m 6.608,25.168 q -1.82,0 -3.192,-0.644 Q 2.044,23.88 1.26,22.732 0.504,21.556 0.504,20.044 q 0,-0.672 0.308,-0.896 0.308,-0.252 0.868,-0.252 0.448,0 0.784,0.196 0.364,0.168 0.392,0.616 0.028,0.952 0.448,1.736 0.42,0.756 1.232,1.176 0.812,0.42 1.988,0.42 1.764,0 2.716,-0.952 0.98,-0.98 0.98,-3.024 V 6.66 H 6.58 Q 6.188,6.66 5.964,6.324 5.768,5.988 5.768,5.568 5.768,5.204 5.936,4.868 6.132,4.532 6.58,4.532 h 4.928 q 0.42,0 0.728,0.224 0.336,0.196 0.336,0.616 v 13.692 q 0,2.212 -0.812,3.556 -0.784,1.344 -2.156,1.96 -1.344,0.588 -2.996,0.588 z" />
    <path
       id="path858"
       style="fill:#c60060;fill-opacity:1;stroke:none;stroke-opacity:1;fill-rule:evenodd;stroke-width:0.532;stroke-miterlimit:4;stroke-dasharray:none;opacity:1;stroke-linejoin:miter;stroke-linecap:round"
       d="m 17.656188,25 q -0.420001,0 -0.812001,-0.196 -0.364,-0.224 -0.364,-0.644 V 5.344 q 0,-0.42 0.364,-0.616 0.392,-0.196 0.812001,-0.196 0.448,0 0.811999,0.196 0.364,0.196 0.364,0.616 V 24.16 q 0,0.42 -0.364,0.644 Q 18.104188,25 17.656188,25 Z" />
    <path
       id="path860"
       style="fill:#c60060;fill-opacity:1;stroke:none;stroke-opacity:1;fill-rule:evenodd;stroke-width:0.532;stroke-miterlimit:4;stroke-dasharray:none;opacity:1;stroke-linejoin:miter;stroke-linecap:round"
       d="m 23.887937,25 q -0.392,0 -0.727999,-0.196 Q 22.823937,24.58 22.823937,24.16 V 5.344 q 0,-0.42 0.364,-0.616 0.392,-0.196 0.812001,-0.196 0.448,0 0.811999,0.196 0.364,0.196 0.364,0.616 v 17.528 h 7.672 q 0.392,0 0.560001,0.336 0.195999,0.308 0.195999,0.728 0,0.392 -0.195999,0.728 Q 33.239937,25 32.847937,25 Z" />
    <path
       id="path862"
       style="fill:#c60060;fill-opacity:1;stroke:none;stroke-opacity:1;fill-rule:evenodd;stroke-width:0.532;stroke-miterlimit:4;stroke-dasharray:none;opacity:1;stroke-linejoin:miter;stroke-linecap:round"
       d="m 37.012937,25 q -0.476,0 -0.784,-0.224 -0.28,-0.252 -0.28,-0.588 V 5.344 q 0,-0.336 0.28,-0.56 0.308,-0.252 0.784,-0.252 h 4.956001 q 1.707999,0 3.079999,0.616 1.372,0.588 2.156,1.932 0.812,1.316 0.812,3.556 v 8.26 q 0,2.24 -0.812,3.584 -0.784,1.316 -2.156,1.932 Q 43.676937,25 41.968938,25 Z m 1.288001,-2.128 h 3.668 q 1.735999,0 2.716,-0.952 0.979999,-0.98 0.979999,-3.024 v -8.26 q 0,-2.044 -0.979999,-2.996 -0.980001,-0.98 -2.716,-0.98 h -3.668 z" />
  </g>
</svg>
