<?xml version="1.0" encoding="UTF-8" standalone="no"?>
<svg
   xmlns:dc="http://purl.org/dc/elements/1.1/"
   xmlns:cc="http://creativecommons.org/ns#"
   xmlns:rdf="http://www.w3.org/1999/02/22-rdf-syntax-ns#"
   xmlns:svg="http://www.w3.org/2000/svg"
   xmlns="http://www.w3.org/2000/svg"
   xmlns:sodipodi="http://sodipodi.sourceforge.net/DTD/sodipodi-0.dtd"
   xmlns:inkscape="http://www.inkscape.org/namespaces/inkscape"
   width="482"
   height="424"
   viewBox="0 0 481.99999 423.99999"
   version="1.1"
   id="svg1011"
   sodipodi:docname="Open-Poen-Logo-2.svg"
   inkscape:version="0.92.3 (2405546, 2018-03-11)">
  <metadata
     id="metadata1015">
    <rdf:RDF>
      <cc:Work
         rdf:about="">
        <dc:format>image/svg+xml</dc:format>
        <dc:type
           rdf:resource="http://purl.org/dc/dcmitype/StillImage" />
        <dc:title></dc:title>
      </cc:Work>
    </rdf:RDF>
  </metadata>
  <sodipodi:namedview
     pagecolor="#ffffff"
     bordercolor="#666666"
     borderopacity="1"
     objecttolerance="10"
     gridtolerance="10"
     guidetolerance="10"
     inkscape:pageopacity="1"
     inkscape:pageshadow="2"
     inkscape:window-width="1920"
     inkscape:window-height="1056"
     id="namedview1013"
     showgrid="false"
     inkscape:zoom="1.4142136"
     inkscape:cx="298.37922"
     inkscape:cy="205.6575"
     inkscape:window-x="0"
     inkscape:window-y="24"
     inkscape:window-maximized="1"
     inkscape:current-layer="svg1011"
     inkscape:pagecheckerboard="false"
     showborder="true" />
  <defs
     id="defs941">
    <style
       id="style936">.a{fill:none;}.b{clip-path:url(#a);}.c{fill:#004896;}.d{fill:#e52d24;}</style>
    <clipPath
       id="a">
      <rect
         class="a"
         width="200.117"
         height="48.567001"
         id="rect938"
         x="0"
         y="0"
         style="fill:none" />
    </clipPath>
  </defs>
  <g
     inkscape:groupmode="layer"
     id="layer1"
     inkscape:label="Layer 1">
    <path
       style="color:#000000;display:inline;overflow:visible;visibility:visible;fill:#ffffff;fill-opacity:1;fill-rule:evenodd;stroke:none;stroke-width:0.53200001;stroke-linecap:butt;stroke-linejoin:miter;stroke-miterlimit:4;stroke-dasharray:none;stroke-dashoffset:0;stroke-opacity:1;marker:none;enable-background:accumulate"
       d="M 0,0 H 482 V 424 H 0 Z"
       id="rect4909" />
  </g>
  <g
     class="b"
     clip-path="url(#a)"
     id="g1009"
     transform="translate(244.00337,29.272154)">
    <path
       class="c"
       d="m 348.046,204.412 a 2.611,2.611 0 0 1 2.224,-1.265 c 1.64,0 2.717,1.756 2.717,4.473 0,2.295 -1.054,3.817 -2.576,3.817 a 2.842,2.842 0 0 1 -2.365,-1.381 z m -3.888,13.372 h 5.6 v -0.959 h -1.709 v -5.317 a 4.925,4.925 0 0 0 6.182,-0.914 5.924,5.924 0 0 0 1.124,-3.511 c 0,-3.093 -1.756,-5.06 -4.473,-5.06 a 3.965,3.965 0 0 0 -2.833,1.218 v -0.984 h -3.888 v 0.984 h 1.733 v 13.584 h -1.733 z"
       transform="translate(-343.914,-195.911)"
       id="path943"
       inkscape:connector-curvature="0"
       style="fill:#004896" />
    <path
       class="c"
       d="m 357.459,211.086 h 1.756 v -7.845 h -1.756 v -0.984 h 3.958 v 1.643 h 0.047 c 1.124,-1.428 1.709,-1.873 2.342,-1.873 a 2.244,2.244 0 0 1 1.686,0.89 7.432,7.432 0 0 1 -0.89,2.412 1.708,1.708 0 0 1 -0.141,-0.211 c -0.538,-0.937 -0.819,-1.171 -1.428,-1.171 -0.492,0 -0.914,0.305 -1.616,1.171 v 5.972 h 1.709 v 0.96 h -5.667 z"
       transform="translate(-343.914,-195.911)"
       id="path945"
       inkscape:connector-curvature="0"
       style="fill:#004896" />
    <path
       class="c"
       d="M 369.872,207.293 V 207.1 c 0,-2.529 1.1,-4.1 2.9,-4.1 2.061,0 3.115,1.452 3.115,4.356 0,2.459 -1.125,3.911 -3.022,3.911 -1.85,0 -2.95,-1.43 -3,-3.981 m -2.389,-0.141 a 5.111,5.111 0 0 0 5.363,5.057 c 3.162,0 5.433,-2.13 5.433,-5.08 a 5.406,5.406 0 0 0 -10.8,0.023"
       transform="translate(-343.914,-195.911)"
       id="path947"
       inkscape:connector-curvature="0"
       style="fill:#004896" />
    <path
       class="c"
       d="M 380.106,202.257 H 385 v 0.984 h -1.312 l 2.365,5.5 1.991,-5.5 h -1.428 v -0.984 h 3.723 v 0.984 H 389 l -3.3,9.016 h -0.445 l -3.887,-9.016 h -1.265 z"
       transform="translate(-343.914,-195.911)"
       id="path949"
       inkscape:connector-curvature="0"
       style="fill:#004896" />
    <path
       class="c"
       d="m 392.213,211.087 h 1.71 v -7.846 h -1.71 v -0.983 h 3.864 v 8.829 h 1.663 v 0.96 h -5.527 z m 1.663,-13.232 a 1.3,1.3 0 0 1 0.913,-0.4 1.329,1.329 0 0 1 1.335,1.311 1.3,1.3 0 0 1 -1.335,1.359 1.376,1.376 0 0 1 -1.335,-1.382 1.19,1.19 0 0 1 0.422,-0.89"
       transform="translate(-343.914,-195.911)"
       id="path951"
       inkscape:connector-curvature="0"
       style="fill:#004896" />
    <path
       class="c"
       d="m 399.661,211.086 h 1.756 v -7.845 h -1.756 v -0.984 h 3.939 v 1.1 l 0.141,-0.094 a 5.893,5.893 0 0 1 3.372,-1.241 2.8,2.8 0 0 1 2.155,0.843 3.642,3.642 0 0 1 0.632,2.576 v 5.644 h 1.733 v 0.96 H 406.2 v -0.96 h 1.546 v -5.293 c 0,-1.733 -0.516,-2.482 -1.757,-2.482 a 4.1,4.1 0 0 0 -2.389,1.007 v 6.768 h 1.616 v 0.96 h -5.55 z"
       transform="translate(-343.914,-195.911)"
       id="path953"
       inkscape:connector-curvature="0"
       style="fill:#004896" />
    <path
       class="c"
       d="m 413.665,209.212 h 0.515 a 2.625,2.625 0 0 0 2.576,2.18 1.481,1.481 0 0 0 1.64,-1.267 c 0,-0.585 -0.492,-1.147 -1.429,-1.661 l -0.937,-0.517 c -1.662,-0.89 -2.412,-1.85 -2.412,-3.091 a 3.024,3.024 0 0 1 3.185,-2.834 4.533,4.533 0 0 1 1.921,0.516 l 0.117,-0.539 h 0.679 v 2.67 h -0.562 a 2.148,2.148 0 0 0 -2.038,-1.732 1.438,1.438 0 0 0 -1.52,1.263 c 0,0.633 0.328,0.984 1.756,1.757 1.78,0.96 2.366,1.428 2.811,2.156 a 2.532,2.532 0 0 1 0.328,1.265 3.068,3.068 0 0 1 -3.279,2.832 5.481,5.481 0 0 1 -2.389,-0.537 l -0.14,-0.071 -0.141,0.678 h -0.679 z"
       transform="translate(-343.914,-195.911)"
       id="path955"
       inkscape:connector-curvature="0"
       style="fill:#004896" />
    <path
       class="c"
       d="m 422.307,202.257 h 3.864 v 10.492 a 5.4,5.4 0 0 1 -1.616,4.192 3.61,3.61 0 0 1 -1.967,0.937 0.457,0.457 0 0 1 -0.492,-0.445 c 0,-0.164 0.117,-0.328 0.515,-0.632 a 3.143,3.143 0 0 0 1.382,-2.951 v -10.609 h -1.686 z m 2.576,-4.824 a 1.359,1.359 0 1 1 -1.335,1.335 1.342,1.342 0 0 1 1.335,-1.335"
       transform="translate(-343.914,-195.911)"
       id="path957"
       inkscape:connector-curvature="0"
       style="fill:#004896" />
    <path
       class="c"
       d="m 432.165,205.466 c 0.141,-1.686 0.82,-2.53 2.014,-2.53 1.148,0 1.991,0.984 2.155,2.53 z m 6.464,0.913 c -0.375,-2.787 -1.944,-4.356 -4.356,-4.356 -2.67,0 -4.45,1.9 -4.45,4.778 a 5.069,5.069 0 0 0 5.177,5.409 6.371,6.371 0 0 0 3.536,-1.077 l 0.094,-0.047 0.164,-1.054 -0.117,0.047 a 6.1,6.1 0 0 1 -2.974,0.984 c -2.155,0 -3.537,-1.757 -3.537,-4.59 v -0.094 z"
       transform="translate(-343.914,-195.911)"
       id="path959"
       inkscape:connector-curvature="0"
       style="fill:#004896" />
    <path
       class="c"
       d="m 446.779,211.086 h 1.708 v -7.728 h -1.567 v -1.1 h 1.567 v -1.03 c 0,-3.443 1.945,-5.317 5.482,-5.317 a 13.591,13.591 0 0 1 1.475,0.117 l 0.141,0.024 v 3.068 h -0.751 l -0.022,-0.281 c -0.141,-1.335 -0.632,-1.874 -1.712,-1.874 -1.567,0 -2.435,1.195 -2.435,3.349 v 1.944 h 2.343 v 1.1 h -2.343 v 7.728 h 1.9 v 0.96 h -5.785 z"
       transform="translate(-343.914,-195.911)"
       id="path961"
       inkscape:connector-curvature="0"
       style="fill:#004896" />
    <path
       class="c"
       d="m 454.531,211.086 h 1.756 v -7.845 h -1.756 v -0.984 h 3.958 v 1.643 h 0.047 c 1.122,-1.428 1.709,-1.873 2.342,-1.873 a 2.244,2.244 0 0 1 1.686,0.89 7.432,7.432 0 0 1 -0.89,2.412 1.709,1.709 0 0 1 -0.141,-0.211 c -0.54,-0.937 -0.821,-1.171 -1.428,-1.171 -0.492,0 -0.914,0.305 -1.616,1.171 v 5.972 h 1.711 v 0.96 h -5.667 z"
       transform="translate(-343.914,-195.911)"
       id="path963"
       inkscape:connector-curvature="0"
       style="fill:#004896" />
    <path
       class="c"
       d="m 464.108,202.257 h 4.731 v 0.984 h -1.216 l 2.34,6.253 2.459,-6.253 h -1.169 v -0.984 h 3.277 v 0.984 h -1.171 l -5.736,14.543 h -1.829 l 2.764,-6.159 -3.16,-8.384 h -1.29 z"
       transform="translate(-343.914,-195.911)"
       id="path965"
       inkscape:connector-curvature="0"
       style="fill:#004896" />
    <path
       class="c"
       d="m 476.52,209.212 h 0.517 a 2.621,2.621 0 0 0 2.574,2.18 1.481,1.481 0 0 0 1.64,-1.267 c 0,-0.585 -0.492,-1.147 -1.427,-1.661 l -0.939,-0.517 c -1.662,-0.89 -2.412,-1.85 -2.412,-3.091 a 3.024,3.024 0 0 1 3.185,-2.834 4.533,4.533 0 0 1 1.921,0.516 L 481.7,202 h 0.679 v 2.67 h -0.562 a 2.147,2.147 0 0 0 -2.038,-1.732 1.438,1.438 0 0 0 -1.522,1.263 c 0,0.633 0.328,0.984 1.756,1.757 1.78,0.96 2.366,1.428 2.811,2.156 a 2.521,2.521 0 0 1 0.328,1.265 3.068,3.068 0 0 1 -3.279,2.832 5.481,5.481 0 0 1 -2.389,-0.537 l -0.14,-0.071 -0.141,0.678 h -0.679 z"
       transform="translate(-343.914,-195.911)"
       id="path967"
       inkscape:connector-curvature="0"
       style="fill:#004896" />
    <path
       class="c"
       d="m 484.9,211.086 h 1.733 V 197.6 H 484.9 v -0.961 h 3.958 v 14.45 h 1.711 v 0.96 H 484.9 Z"
       transform="translate(-343.914,-195.911)"
       id="path969"
       inkscape:connector-curvature="0"
       style="fill:#004896" />
    <path
       class="c"
       d="m 497.972,197.2 2.178,3.794 h -0.35 l -3.115,-2.436 -2.623,2.436 h -0.351 l 2.154,-3.794 z m -5.129,6.393 a 6.15,6.15 0 0 1 3.724,-1.569 c 1.9,0 3.091,1.288 3.091,3.4 v 4 c 0,0.983 0.4,1.592 1.054,1.592 a 5.052,5.052 0 0 0 0.843,-0.117 l 0.117,-0.023 v 0.656 a 4.065,4.065 0 0 1 -2.109,0.679 c -0.795,0 -1.286,-0.375 -1.8,-1.335 a 5.482,5.482 0 0 1 -2.9,1.335 2.4,2.4 0 0 1 -2.248,-2.576 c 0,-1.382 0.8,-2.178 2.717,-2.623 l 1.944,-0.469 0.21,-0.07 v -1.405 c 0,-1.195 -0.562,-1.8 -1.686,-1.8 a 5.655,5.655 0 0 0 -2.718,1.007 z m 4.45,3.888 c -1.944,0.492 -2.693,1.054 -2.693,1.991 a 1.28,1.28 0 0 0 1.241,1.311 2.71,2.71 0 0 0 1.639,-0.726 v -2.623 z"
       transform="translate(-343.914,-195.911)"
       id="path971"
       inkscape:connector-curvature="0"
       style="fill:#004896" />
    <path
       class="c"
       d="M 503.241,211.086 H 505 v -7.845 h -1.756 v -0.984 h 3.936 v 1.1 l 0.141,-0.094 a 5.882,5.882 0 0 1 3.37,-1.241 2.8,2.8 0 0 1 2.155,0.843 3.632,3.632 0 0 1 0.632,2.576 v 5.644 h 1.733 v 0.96 h -5.433 v -0.96 h 1.546 v -5.293 c 0,-1.733 -0.516,-2.482 -1.757,-2.482 a 4.1,4.1 0 0 0 -2.387,1.007 v 6.768 h 1.614 v 0.96 h -5.55 z"
       transform="translate(-343.914,-195.911)"
       id="path973"
       inkscape:connector-curvature="0"
       style="fill:#004896" />
    <path
       class="c"
       d="m 447.023,232.443 h 1.708 v -7.728 h -1.567 v -1.1 h 1.567 v -1.032 c 0,-3.443 1.945,-5.315 5.482,-5.315 a 13.511,13.511 0 0 1 1.475,0.115 l 0.141,0.026 v 3.067 h -0.751 l -0.022,-0.281 c -0.141,-1.336 -0.632,-1.873 -1.71,-1.873 -1.569,0 -2.435,1.193 -2.435,3.349 v 1.944 h 2.341 v 1.1 h -2.341 v 7.728 h 1.9 v 0.96 h -5.785 z"
       transform="translate(-343.914,-195.911)"
       id="path975"
       inkscape:connector-curvature="0"
       style="fill:#004896" />
    <path
       class="c"
       d="m 454.774,232.443 h 1.756 V 224.6 h -1.756 v -0.983 h 3.958 v 1.637 h 0.047 c 1.124,-1.427 1.709,-1.873 2.342,-1.873 a 2.244,2.244 0 0 1 1.686,0.89 7.453,7.453 0 0 1 -0.89,2.414 2.078,2.078 0 0 1 -0.141,-0.211 c -0.538,-0.939 -0.819,-1.173 -1.428,-1.173 -0.492,0 -0.914,0.3 -1.616,1.173 v 5.97 h 1.709 v 0.96 h -5.667 z"
       transform="translate(-343.914,-195.911)"
       id="path977"
       inkscape:connector-curvature="0"
       style="fill:#004896" />
    <path
       class="c"
       d="m 464.352,223.615 h 4.731 v 0.984 h -1.216 l 2.34,6.251 2.46,-6.251 H 471.5 v -0.984 h 3.277 v 0.984 H 473.6 l -5.736,14.541 h -1.824 l 2.762,-6.157 -3.16,-8.384 h -1.29 z"
       transform="translate(-343.914,-195.911)"
       id="path979"
       inkscape:connector-curvature="0"
       style="fill:#004896" />
    <path
       class="c"
       d="m 476.764,230.57 h 0.517 a 2.623,2.623 0 0 0 2.576,2.18 1.48,1.48 0 0 0 1.638,-1.267 c 0,-0.585 -0.492,-1.147 -1.427,-1.661 l -0.939,-0.517 c -1.662,-0.89 -2.41,-1.848 -2.41,-3.091 a 3.022,3.022 0 0 1 3.183,-2.834 4.52,4.52 0 0 1 1.921,0.517 l 0.118,-0.54 h 0.678 v 2.67 h -0.562 a 2.148,2.148 0 0 0 -2.038,-1.733 1.44,1.44 0 0 0 -1.522,1.264 c 0,0.634 0.328,0.986 1.756,1.758 1.78,0.959 2.366,1.427 2.812,2.155 a 2.531,2.531 0 0 1 0.327,1.265 3.067,3.067 0 0 1 -3.279,2.832 5.481,5.481 0 0 1 -2.389,-0.537 l -0.14,-0.071 -0.141,0.678 h -0.679 z"
       transform="translate(-343.914,-195.911)"
       id="path981"
       inkscape:connector-curvature="0"
       style="fill:#004896" />
    <path
       class="c"
       d="m 485.149,232.443 h 1.731 v -13.488 h -1.731 v -0.962 h 3.951 v 14.45 h 1.711 v 0.96 h -5.667 z"
       transform="translate(-343.914,-195.911)"
       id="path983"
       inkscape:connector-curvature="0"
       style="fill:#004896" />
    <path
       class="c"
       d="m 493.087,224.951 a 6.142,6.142 0 0 1 3.724,-1.571 c 1.9,0 3.091,1.289 3.091,3.4 v 4 c 0,0.982 0.4,1.591 1.054,1.591 a 4.931,4.931 0 0 0 0.843,-0.114 l 0.117,-0.025 v 0.657 a 4.071,4.071 0 0 1 -2.107,0.678 c -0.8,0 -1.288,-0.375 -1.8,-1.335 a 5.468,5.468 0 0 1 -2.9,1.335 2.4,2.4 0 0 1 -2.248,-2.576 c 0,-1.381 0.8,-2.178 2.717,-2.622 l 1.944,-0.47 0.21,-0.07 v -1.4 c 0,-1.194 -0.562,-1.8 -1.686,-1.8 a 5.667,5.667 0 0 0 -2.716,1.007 z m 5.129,-6.4 2.178,3.793 h -0.351 l -3.115,-2.435 -2.623,2.435 h -0.351 l 2.154,-3.793 z m -0.679,10.28 c -1.944,0.494 -2.692,1.057 -2.692,1.992 a 1.282,1.282 0 0 0 1.24,1.313 2.7,2.7 0 0 0 1.639,-0.728 v -2.621 z"
       transform="translate(-343.914,-195.911)"
       id="path985"
       inkscape:connector-curvature="0"
       style="fill:#004896" />
    <path
       class="c"
       d="m 503.485,232.443 h 1.758 V 224.6 h -1.758 v -0.983 h 3.936 v 1.1 l 0.141,-0.094 a 5.887,5.887 0 0 1 3.37,-1.241 2.8,2.8 0 0 1 2.155,0.843 3.632,3.632 0 0 1 0.632,2.576 v 5.644 h 1.733 v 0.96 h -5.433 v -0.96 h 1.546 v -5.295 c 0,-1.733 -0.516,-2.48 -1.757,-2.48 a 4.1,4.1 0 0 0 -2.387,1.005 v 6.768 h 1.614 v 0.96 h -5.55 z"
       transform="translate(-343.914,-195.911)"
       id="path987"
       inkscape:connector-curvature="0"
       style="fill:#004896" />
    <path
       class="c"
       d="m 347.8,225.341 a 2.616,2.616 0 0 1 2.224,-1.265 c 1.64,0 2.717,1.758 2.717,4.473 0,2.295 -1.054,3.817 -2.576,3.817 a 2.842,2.842 0 0 1 -2.365,-1.381 z m -3.888,13.372 h 5.6 v -0.958 H 347.8 v -5.318 a 4.925,4.925 0 0 0 6.182,-0.914 5.924,5.924 0 0 0 1.124,-3.511 c 0,-3.093 -1.756,-5.06 -4.473,-5.06 a 3.967,3.967 0 0 0 -2.833,1.219 v -0.983 h -3.888 v 0.983 h 1.733 v 13.584 h -1.733 z"
       transform="translate(-343.914,-195.911)"
       id="path989"
       inkscape:connector-curvature="0"
       style="fill:#004896" />
    <path
       class="c"
       d="m 357.216,232.016 h 1.756 v -7.844 h -1.756 v -0.983 h 3.958 v 1.637 h 0.047 c 1.124,-1.427 1.709,-1.873 2.342,-1.873 a 2.244,2.244 0 0 1 1.686,0.89 7.454,7.454 0 0 1 -0.89,2.414 2.085,2.085 0 0 1 -0.141,-0.211 c -0.538,-0.939 -0.819,-1.173 -1.428,-1.173 -0.492,0 -0.914,0.3 -1.616,1.173 v 5.97 h 1.709 v 0.96 h -5.667 z"
       transform="translate(-343.914,-195.911)"
       id="path991"
       inkscape:connector-curvature="0"
       style="fill:#004896" />
    <path
       class="c"
       d="m 369.629,228.223 v -0.188 c 0,-2.529 1.1,-4.1 2.9,-4.1 2.061,0 3.114,1.454 3.114,4.358 0,2.459 -1.124,3.911 -3.021,3.911 -1.85,0 -2.95,-1.43 -3,-3.981 m -2.389,-0.141 a 5.111,5.111 0 0 0 5.363,5.057 c 3.162,0 5.433,-2.13 5.433,-5.082 a 5.406,5.406 0 0 0 -10.8,0.025"
       transform="translate(-343.914,-195.911)"
       id="path993"
       inkscape:connector-curvature="0"
       style="fill:#004896" />
    <path
       class="c"
       d="m 379.862,223.188 h 4.895 v 0.984 h -1.312 l 2.365,5.5 1.991,-5.5 h -1.428 v -0.984 h 3.727 v 0.984 h -1.335 l -3.3,9.016 h -0.445 l -3.887,-9.016 h -1.265 z"
       transform="translate(-343.914,-195.911)"
       id="path995"
       inkscape:connector-curvature="0"
       style="fill:#004896" />
    <path
       class="c"
       d="m 391.97,232.015 h 1.71 v -7.844 h -1.71 v -0.984 h 3.864 v 8.828 h 1.666 v 0.96 h -5.53 z m 1.663,-13.232 a 1.3,1.3 0 0 1 0.913,-0.4 1.328,1.328 0 0 1 1.335,1.311 1.3,1.3 0 0 1 -1.335,1.357 1.376,1.376 0 0 1 -1.335,-1.382 1.19,1.19 0 0 1 0.422,-0.89"
       transform="translate(-343.914,-195.911)"
       id="path997"
       inkscape:connector-curvature="0"
       style="fill:#004896" />
    <path
       class="c"
       d="m 399.417,232.016 h 1.756 v -7.844 h -1.756 v -0.983 h 3.934 v 1.1 l 0.141,-0.094 a 5.892,5.892 0 0 1 3.372,-1.241 2.807,2.807 0 0 1 2.155,0.843 3.642,3.642 0 0 1 0.632,2.576 v 5.644 h 1.733 v 0.96 h -5.433 v -0.96 h 1.549 v -5.293 c 0,-1.733 -0.516,-2.48 -1.757,-2.48 a 4.1,4.1 0 0 0 -2.389,1.005 v 6.768 h 1.616 v 0.96 h -5.55 z"
       transform="translate(-343.914,-195.911)"
       id="path999"
       inkscape:connector-curvature="0"
       style="fill:#004896" />
    <path
       class="c"
       d="m 421.407,225.974 h -0.679 c -0.422,-1.521 -1.171,-2.18 -2.436,-2.18 a 2.452,2.452 0 0 0 -1.873,1.01 4.166,4.166 0 0 0 -0.656,2.62 c 0,3.024 1.077,4.5 3.255,4.5 a 4.2,4.2 0 0 0 2.412,-0.913 c 0.071,-0.07 0.118,-0.1 0.141,-0.119 0.047,-0.021 0.07,-0.046 0.117,-0.046 a 0.173,0.173 0 0 1 0.141,0.117 l 0.093,0.163 0.047,0.117 a 0.308,0.308 0 0 1 0.023,0.164 c 0,0.166 -0.163,0.4 -0.468,0.609 a 5.311,5.311 0 0 1 -3.325,1.149 c -2.764,0 -4.848,-2.294 -4.848,-5.318 a 4.609,4.609 0 0 1 4.684,-4.894 6.321,6.321 0 0 1 2.529,0.561 l 0.164,-0.582 h 0.679 z"
       transform="translate(-343.914,-195.911)"
       id="path1001"
       inkscape:connector-curvature="0"
       style="fill:#004896" />
    <path
       class="c"
       d="m 424.007,232.015 h 1.708 v -7.844 h -1.708 v -0.984 h 3.863 v 8.828 h 1.664 v 0.96 h -5.527 z m 1.663,-13.232 a 1.3,1.3 0 0 1 0.913,-0.4 1.328,1.328 0 0 1 1.335,1.311 1.3,1.3 0 0 1 -1.335,1.357 1.375,1.375 0 0 1 -1.335,-1.382 1.19,1.19 0 0 1 0.422,-0.89"
       transform="translate(-343.914,-195.911)"
       id="path1003"
       inkscape:connector-curvature="0"
       style="fill:#004896" />
    <path
       class="c"
       d="m 434.147,226.4 c 0.141,-1.688 0.82,-2.531 2.014,-2.531 1.148,0 1.991,0.983 2.155,2.531 z m 6.464,0.913 c -0.375,-2.787 -1.944,-4.356 -4.356,-4.356 -2.67,0 -4.45,1.9 -4.45,4.778 a 5.069,5.069 0 0 0 5.176,5.408 6.385,6.385 0 0 0 3.536,-1.076 l 0.094,-0.048 0.164,-1.053 -0.117,0.047 a 6.123,6.123 0 0 1 -2.974,0.984 c -2.155,0 -3.537,-1.757 -3.537,-4.59 v -0.094 z"
       transform="translate(-343.914,-195.911)"
       id="path1005"
       inkscape:connector-curvature="0"
       style="fill:#004896" />
    <path
       class="d"
       d="m 527.845,240.958 c -6.143,-3.816 -5.171,-8.744 -4.565,-11.454 a 7.332,7.332 0 0 1 3.948,-5.359 5.627,5.627 0 0 1 4.991,0.363 c 2.359,1.358 1.968,3.83 1.459,6.125 -0.115,0.527 -0.064,0.825 0.264,1.016 0.328,0.191 0.614,0.085 1.012,-0.279 1.732,-1.59 3.679,-3.165 6.034,-1.8 a 5.629,5.629 0 0 1 2.81,4.143 7.546,7.546 0 0 1 -2.751,6.161 11.1,11.1 0 0 1 -13.2,1.086"
       transform="translate(-343.914,-195.911)"
       id="path1007"
       inkscape:connector-curvature="0"
       style="fill:#e52d24" />
  </g>
  <path
     style="color:#000000;display:inline;overflow:visible;visibility:visible;fill:#c60060;fill-opacity:1;fill-rule:evenodd;stroke:none;stroke-width:0.53200001;stroke-linecap:butt;stroke-linejoin:miter;stroke-miterlimit:4;stroke-dasharray:none;stroke-dashoffset:0;stroke-opacity:1;marker:none;enable-background:accumulate"
     d="M 0,99.266251 H 482 V 307.26625 H 0 Z"
     id="rect4975" />
  <g
     style="font-style:normal;font-variant:normal;font-weight:normal;font-stretch:normal;font-size:40px;line-height:125%;font-family:'open sans';-inkscape-font-specification:'open sans';letter-spacing:0px;word-spacing:13.72000027px;fill:#000000;fill-opacity:1;stroke:none;stroke-width:1px;stroke-linecap:butt;stroke-linejoin:miter;stroke-opacity:1"
     id="flowRoot5520" />
  <g
     style="font-style:normal;font-variant:normal;font-weight:normal;font-stretch:normal;font-size:40px;line-height:125%;font-family:'Open Sans';-inkscape-font-specification:'Open Sans';letter-spacing:0px;word-spacing:13.72000027px;fill:#000000;fill-opacity:1;stroke:none;stroke-width:1px;stroke-linecap:butt;stroke-linejoin:miter;stroke-opacity:1"
     id="flowRoot945" />
  <g
     aria-label="Iepen Jild
Open Poen"
     style="font-style:normal;font-variant:normal;font-weight:normal;font-stretch:normal;font-size:40px;line-height:125%;font-family:'IBM Plex Sans';-inkscape-font-specification:'IBM Plex Sans';letter-spacing:0px;word-spacing:13.72000027px;fill:#000000;fill-opacity:1;stroke:none;stroke-width:1px;stroke-linecap:butt;stroke-linejoin:miter;stroke-opacity:1"
     id="text955">
    <path
       d="M 21.791667,169.75104 H 29.8125 v 31.10417 h -8.020833 z"
       style="font-style:normal;font-variant:normal;font-weight:bold;font-stretch:normal;font-size:42.66666794px;font-family:OpenSymbol;-inkscape-font-specification:OpenSymbol;word-spacing:0px;fill:#ffffff;fill-opacity:1"
       id="path4915" />
    <path
       d="m 60.666668,189.12604 v 2.125 H 43.229167 q 0.270834,2.625 1.895834,3.9375 1.625,1.3125 4.541666,1.3125 2.354167,0 4.812501,-0.6875 2.479166,-0.70833 5.083333,-2.125 v 5.75 q -2.645833,1 -5.291667,1.5 -2.645833,0.52084 -5.291667,0.52084 -6.333333,0 -9.854167,-3.20834 -3.5,-3.22916 -3.5,-9.04166 0,-5.70834 3.4375,-8.97917 3.458334,-3.27083 9.500001,-3.27083 5.5,0 8.791667,3.3125 3.3125,3.3125 3.3125,8.85416 z m -7.666667,-2.47916 q 0,-2.125 -1.25,-3.41667 -1.229167,-1.3125 -3.229167,-1.3125 -2.166667,0 -3.520833,1.22917 -1.354167,1.20833 -1.6875,3.5 z"
       style="font-style:normal;font-variant:normal;font-weight:bold;font-stretch:normal;font-size:42.66666794px;font-family:OpenSymbol;-inkscape-font-specification:OpenSymbol;word-spacing:0px;fill:#ffffff;fill-opacity:1"
       id="path4917" />
    <path
       d="m 73.750003,197.48021 v 12.25 h -7.458334 v -32.20833 h 7.458334 v 3.41666 q 1.541667,-2.04166 3.416667,-3 1.875,-0.97916 4.3125,-0.97916 4.3125,0 7.083333,3.4375 2.770834,3.41666 2.770834,8.8125 0,5.39583 -2.770834,8.83333 -2.770833,3.41667 -7.083333,3.41667 -2.4375,0 -4.3125,-0.95834 -1.875,-0.97916 -3.416667,-3.02083 z m 4.958333,-15.10417 q -2.395833,0 -3.6875,1.77084 -1.270833,1.75 -1.270833,5.0625 0,3.3125 1.270833,5.08333 1.291667,1.75 3.6875,1.75 2.395834,0 3.645834,-1.75 1.270833,-1.75 1.270833,-5.08333 0,-3.33334 -1.270833,-5.08334 -1.25,-1.75 -3.645834,-1.75 z"
       style="font-style:normal;font-variant:normal;font-weight:bold;font-stretch:normal;font-size:42.66666794px;font-family:OpenSymbol;-inkscape-font-specification:OpenSymbol;word-spacing:0px;fill:#ffffff;fill-opacity:1"
       id="path4919" />
    <path
       d="m 120.16667,189.12604 v 2.125 h -17.4375 q 0.27084,2.625 1.89584,3.9375 1.625,1.3125 4.54166,1.3125 2.35417,0 4.8125,-0.6875 2.47917,-0.70833 5.08334,-2.125 v 5.75 q -2.64584,1 -5.29167,1.5 -2.64583,0.52084 -5.29167,0.52084 -6.33333,0 -9.854165,-3.20834 -3.5,-3.22916 -3.5,-9.04166 0,-5.70834 3.4375,-8.97917 3.458335,-3.27083 9.500005,-3.27083 5.5,0 8.79166,3.3125 3.3125,3.3125 3.3125,8.85416 z m -7.66666,-2.47916 q 0,-2.125 -1.25,-3.41667 -1.22917,-1.3125 -3.22917,-1.3125 -2.16667,0 -3.52083,1.22917 -1.35417,1.20833 -1.6875,3.5 z"
       style="font-style:normal;font-variant:normal;font-weight:bold;font-stretch:normal;font-size:42.66666794px;font-family:OpenSymbol;-inkscape-font-specification:OpenSymbol;word-spacing:0px;fill:#ffffff;fill-opacity:1"
       id="path4921" />
    <path
       d="m 149.25,186.64688 v 14.20833 h -7.5 v -2.3125 -8.5625 q 0,-3.02083 -0.14583,-4.16667 -0.125,-1.14583 -0.45833,-1.6875 -0.4375,-0.72916 -1.1875,-1.125 -0.75,-0.41666 -1.70834,-0.41666 -2.33333,0 -3.66666,1.8125 -1.33334,1.79166 -1.33334,4.97916 v 11.47917 h -7.45833 V 177.52188 H 133.25 v 3.41666 q 1.6875,-2.04166 3.58334,-3 1.89583,-0.97916 4.1875,-0.97916 4.04166,0 6.125,2.47916 2.10416,2.47917 2.10416,7.20834 z"
       style="font-style:normal;font-variant:normal;font-weight:bold;font-stretch:normal;font-size:42.66666794px;font-family:OpenSymbol;-inkscape-font-specification:OpenSymbol;word-spacing:0px;fill:#ffffff;fill-opacity:1"
       id="path4923" />
    <path
       d="m 171.37501,169.75104 h 8.02083 v 28.08334 q 0,5.8125 -3.16666,8.6875 -3.14584,2.875 -9.54167,2.875 h -1.625 v -6.0625 h 1.25 q 2.5,0 3.77083,-1.39584 1.29167,-1.39583 1.29167,-4.10416 z"
       style="font-style:normal;font-variant:normal;font-weight:bold;font-stretch:normal;font-size:42.66666794px;font-family:OpenSymbol;-inkscape-font-specification:OpenSymbol;word-spacing:0px;fill:#ffffff;fill-opacity:1"
       id="path4925" />
    <path
       d="m 186.95833,177.52188 h 7.45834 v 23.33333 h -7.45834 z m 0,-9.08334 h 7.45834 v 6.08334 h -7.45834 z"
       style="font-style:normal;font-variant:normal;font-weight:bold;font-stretch:normal;font-size:42.66666794px;font-family:OpenSymbol;-inkscape-font-specification:OpenSymbol;word-spacing:0px;fill:#ffffff;fill-opacity:1"
       id="path4927" />
    <path
       d="m 201.62501,168.43854 h 7.45833 v 32.41667 h -7.45833 z"
       style="font-style:normal;font-variant:normal;font-weight:bold;font-stretch:normal;font-size:42.66666794px;font-family:OpenSymbol;-inkscape-font-specification:OpenSymbol;word-spacing:0px;fill:#ffffff;fill-opacity:1"
       id="path4929" />
    <path
       d="m 232.16668,180.93854 v -12.5 h 7.5 v 32.41667 h -7.5 v -3.375 q -1.54167,2.0625 -3.39584,3.02083 -1.85416,0.95834 -4.29166,0.95834 -4.3125,0 -7.08334,-3.41667 -2.77083,-3.4375 -2.77083,-8.83333 0,-5.39584 2.77083,-8.8125 2.77084,-3.4375 7.08334,-3.4375 2.41666,0 4.27083,0.97916 1.875,0.95834 3.41667,3 z m -4.91667,15.10417 q 2.39583,0 3.64583,-1.75 1.27084,-1.75 1.27084,-5.08333 0,-3.33334 -1.27084,-5.08334 -1.25,-1.75 -3.64583,-1.75 -2.375,0 -3.64583,1.75 -1.25,1.75 -1.25,5.08334 0,3.33333 1.25,5.08333 1.27083,1.75 3.64583,1.75 z"
       style="font-style:normal;font-variant:normal;font-weight:bold;font-stretch:normal;font-size:42.66666794px;font-family:OpenSymbol;-inkscape-font-specification:OpenSymbol;word-spacing:0px;fill:#ffffff;fill-opacity:1"
       id="path4931" />
    <path
       d="m 36.000001,225.11771 q -3.666667,0 -5.687501,2.70833 -2.020833,2.70834 -2.020833,7.625 0,4.89584 2.020833,7.60417 2.020834,2.70833 5.687501,2.70833 3.6875,0 5.708333,-2.70833 2.020833,-2.70833 2.020833,-7.60417 0,-4.91666 -2.020833,-7.625 -2.020833,-2.70833 -5.708333,-2.70833 z m 0,-5.8125 q 7.5,0 11.75,4.29167 4.25,4.29166 4.25,11.85416 0,7.54167 -4.25,11.83334 -4.25,4.29166 -11.75,4.29166 -7.479167,0 -11.750001,-4.29166 Q 20,242.99271 20,235.45104 q 0,-7.5625 4.25,-11.85416 4.270834,-4.29167 11.750001,-4.29167 z"
       style="font-style:normal;font-variant:normal;font-weight:bold;font-stretch:normal;font-size:42.66666794px;font-family:OpenSymbol;-inkscape-font-specification:OpenSymbol;word-spacing:0px;fill:#ffffff;fill-opacity:1"
       id="path4933" />
    <path
       d="m 65.166667,247.59688 v 12.25 h -7.458334 v -32.20834 h 7.458334 v 3.41667 q 1.541667,-2.04167 3.416667,-3 1.875,-0.97917 4.3125,-0.97917 4.3125,0 7.083333,3.4375 2.770834,3.41667 2.770834,8.8125 0,5.39584 -2.770834,8.83334 -2.770833,3.41666 -7.083333,3.41666 -2.4375,0 -4.3125,-0.95833 -1.875,-0.97917 -3.416667,-3.02083 z M 70.125,232.49271 q -2.395833,0 -3.6875,1.77083 -1.270833,1.75 -1.270833,5.0625 0,3.3125 1.270833,5.08334 1.291667,1.75 3.6875,1.75 2.395834,0 3.645834,-1.75 1.270833,-1.75 1.270833,-5.08334 0,-3.33333 -1.270833,-5.08333 -1.25,-1.75 -3.645834,-1.75 z"
       style="font-style:normal;font-variant:normal;font-weight:bold;font-stretch:normal;font-size:42.66666794px;font-family:OpenSymbol;-inkscape-font-specification:OpenSymbol;word-spacing:0px;fill:#ffffff;fill-opacity:1"
       id="path4935" />
    <path
       d="m 111.58334,239.24271 v 2.125 H 94.145836 q 0.270833,2.625 1.895834,3.9375 1.625,1.3125 4.54167,1.3125 2.35416,0 4.8125,-0.6875 2.47916,-0.70833 5.08333,-2.125 v 5.75 q -2.64583,1 -5.29167,1.5 -2.64583,0.52083 -5.291664,0.52083 -6.333333,0 -9.854167,-3.20833 -3.5,-3.22917 -3.5,-9.04167 0,-5.70833 3.4375,-8.97916 3.458334,-3.27084 9.500001,-3.27084 5.5,0 8.79167,3.3125 3.3125,3.3125 3.3125,8.85417 z m -7.66667,-2.47917 q 0,-2.125 -1.25,-3.41666 -1.22917,-1.3125 -3.229167,-1.3125 -2.166667,0 -3.520833,1.22916 -1.354167,1.20834 -1.687501,3.5 z"
       style="font-style:normal;font-variant:normal;font-weight:bold;font-stretch:normal;font-size:42.66666794px;font-family:OpenSymbol;-inkscape-font-specification:OpenSymbol;word-spacing:0px;fill:#ffffff;fill-opacity:1"
       id="path4937" />
    <path
       d="m 140.66667,236.76354 v 14.20834 h -7.5 v -2.3125 -8.5625 q 0,-3.02084 -0.14584,-4.16667 -0.125,-1.14583 -0.45833,-1.6875 -0.4375,-0.72917 -1.1875,-1.125 -0.75,-0.41667 -1.70833,-0.41667 -2.33334,0 -3.66667,1.8125 -1.33333,1.79167 -1.33333,4.97917 v 11.47917 h -7.45834 v -23.33334 h 7.45834 v 3.41667 q 1.6875,-2.04167 3.58333,-3 1.89583,-0.97917 4.1875,-0.97917 4.04167,0 6.125,2.47917 2.10417,2.47917 2.10417,7.20833 z"
       style="font-style:normal;font-variant:normal;font-weight:bold;font-stretch:normal;font-size:42.66666794px;font-family:OpenSymbol;-inkscape-font-specification:OpenSymbol;word-spacing:0px;fill:#ffffff;fill-opacity:1"
       id="path4939" />
    <path
       d="m 162.79167,219.86771 h 13.3125 q 5.9375,0 9.10416,2.64583 3.1875,2.625 3.1875,7.5 0,4.89584 -3.1875,7.54167 -3.16666,2.625 -9.10416,2.625 h -5.29167 v 10.79167 h -8.02083 z m 8.02083,5.8125 v 8.6875 h 4.4375 q 2.33333,0 3.60417,-1.125 1.27083,-1.14583 1.27083,-3.22917 0,-2.08333 -1.27083,-3.20833 -1.27084,-1.125 -3.60417,-1.125 z"
       style="font-style:normal;font-variant:normal;font-weight:bold;font-stretch:normal;font-size:42.66666794px;font-family:OpenSymbol;-inkscape-font-specification:OpenSymbol;word-spacing:0px;fill:#ffffff;fill-opacity:1"
       id="path4941" />
    <path
       d="m 204.8125,232.40938 q -2.47917,0 -3.79167,1.79166 -1.29166,1.77084 -1.29166,5.125 0,3.35417 1.29166,5.14584 1.3125,1.77083 3.79167,1.77083 2.4375,0 3.72917,-1.77083 1.29166,-1.79167 1.29166,-5.14584 0,-3.35416 -1.29166,-5.125 -1.29167,-1.79166 -3.72917,-1.79166 z m 0,-5.33334 q 6.02083,0 9.39583,3.25 3.39584,3.25 3.39584,9 0,5.75 -3.39584,9 -3.375,3.25 -9.39583,3.25 -6.04167,0 -9.45833,-3.25 -3.39584,-3.25 -3.39584,-9 0,-5.75 3.39584,-9 3.41666,-3.25 9.45833,-3.25 z"
       style="font-style:normal;font-variant:normal;font-weight:bold;font-stretch:normal;font-size:42.66666794px;font-family:OpenSymbol;-inkscape-font-specification:OpenSymbol;word-spacing:0px;fill:#ffffff;fill-opacity:1"
       id="path4943" />
    <path
       d="m 246.33334,239.24271 v 2.125 h -17.4375 q 0.27084,2.625 1.89584,3.9375 1.625,1.3125 4.54166,1.3125 2.35417,0 4.8125,-0.6875 2.47917,-0.70833 5.08334,-2.125 v 5.75 q -2.64584,1 -5.29167,1.5 -2.64583,0.52083 -5.29167,0.52083 -6.33333,0 -9.85416,-3.20833 -3.5,-3.22917 -3.5,-9.04167 0,-5.70833 3.4375,-8.97916 3.45833,-3.27084 9.5,-3.27084 5.5,0 8.79166,3.3125 3.3125,3.3125 3.3125,8.85417 z m -7.66666,-2.47917 q 0,-2.125 -1.25,-3.41666 -1.22917,-1.3125 -3.22917,-1.3125 -2.16667,0 -3.52083,1.22916 -1.35417,1.20834 -1.6875,3.5 z"
       style="font-style:normal;font-variant:normal;font-weight:bold;font-stretch:normal;font-size:42.66666794px;font-family:OpenSymbol;-inkscape-font-specification:OpenSymbol;word-spacing:0px;fill:#ffffff;fill-opacity:1"
       id="path4945" />
    <path
       d="m 275.41667,236.76354 v 14.20834 h -7.5 v -2.3125 -8.5625 q 0,-3.02084 -0.14584,-4.16667 -0.125,-1.14583 -0.45833,-1.6875 -0.4375,-0.72917 -1.1875,-1.125 -0.75,-0.41667 -1.70833,-0.41667 -2.33334,0 -3.66667,1.8125 -1.33333,1.79167 -1.33333,4.97917 v 11.47917 h -7.45834 v -23.33334 h 7.45834 v 3.41667 q 1.6875,-2.04167 3.58333,-3 1.89583,-0.97917 4.1875,-0.97917 4.04167,0 6.125,2.47917 2.10417,2.47917 2.10417,7.20833 z"
       style="font-style:normal;font-variant:normal;font-weight:bold;font-stretch:normal;font-size:42.66666794px;font-family:OpenSymbol;-inkscape-font-specification:OpenSymbol;word-spacing:0px;fill:#ffffff;fill-opacity:1"
       id="path4947" />
  </g>
  <path
     style="color:#000000;display:inline;overflow:visible;visibility:visible;fill:#004896;fill-opacity:1;fill-rule:evenodd;stroke:none;stroke-width:0.53200001;stroke-linecap:butt;stroke-linejoin:miter;stroke-miterlimit:4;stroke-dasharray:none;stroke-dashoffset:0;stroke-opacity:1;marker:none;enable-background:accumulate"
     d="m 0,394.01526 h 482 v 30 H 0 Z"
     id="rect961"
     inkscape:connector-curvature="0" />
  <path
     style="color:#000000;display:inline;overflow:visible;visibility:visible;fill:#004896;fill-opacity:1;fill-rule:evenodd;stroke:none;stroke-width:0.53200001;stroke-linecap:butt;stroke-linejoin:miter;stroke-miterlimit:4;stroke-dasharray:none;stroke-dashoffset:0;stroke-opacity:1;marker:none;enable-background:accumulate"
     d="m 0,364.89825 h 335.453 v 30 H 0 Z"
     id="rect963" />
  <g
     style="font-style:normal;font-variant:normal;font-weight:normal;font-stretch:normal;font-size:40px;line-height:125%;font-family:'IBM Plex Sans';-inkscape-font-specification:'IBM Plex Sans';letter-spacing:0px;word-spacing:3.72000003px;fill:#000000;fill-opacity:1;stroke:none;stroke-width:1px;stroke-linecap:butt;stroke-linejoin:miter;stroke-opacity:1"
     id="flowRoot965" />
  <g
     aria-label="Dit is hoe ús jild útjûn wurdt"
     style="font-style:normal;font-variant:normal;font-weight:normal;font-stretch:normal;font-size:28.76493645px;line-height:125%;font-family:'Source Serif Pro';-inkscape-font-specification:'Source Serif Pro';letter-spacing:0px;word-spacing:2.67513919px;fill:#004896;fill-opacity:1;stroke:none;stroke-width:0.71912342px;stroke-linecap:butt;stroke-linejoin:miter;stroke-opacity:1"
     id="text4657">
    <path
       d="m 25.436573,334.80373 q 0,2.09984 0,4.05586 0.02876,1.95601 0.05753,3.8545 h 2.27243 q 3.336732,0 5.120158,-2.15737 1.783426,-2.18614 1.783426,-6.09817 0,-4.05585 -1.754661,-6.18446 -1.754661,-2.12861 -4.890039,-2.12861 h -2.531314 q -0.02876,1.84096 -0.05753,3.76821 0,1.89849 0,3.82574 z M 20,326.00166 v -1.17936 h 8.485656 q 2.761434,0 4.861274,1.12183 2.099841,1.09307 3.279203,3.25044 1.179362,2.1286 1.179362,5.26398 0,3.10661 -1.294422,5.26398 -1.294422,2.12861 -3.538087,3.25044 -2.2149,1.09307 -5.033864,1.09307 H 20 v -1.17936 l 2.646374,-0.31642 q 0.05753,-1.84095 0.05753,-3.73944 0,-1.92725 0,-4.02709 v -1.0643 q 0,-1.86972 0,-3.71068 0,-1.86972 -0.05753,-3.71068 z"
       style="stroke-width:0.71912342px"
       id="path4953" />
    <path
       d="m 40.191187,344.06604 v -1.03554 l 2.15737,-0.40271 q 0.02876,-1.09306 0.02876,-2.35872 0.02876,-1.29442 0.02876,-2.24367 v -1.35195 q 0,-1.17936 -0.02876,-1.95601 0,-0.80542 -0.05753,-1.66837 l -2.301195,-0.25889 v -1.00677 l 4.4298,-1.75466 0.431474,0.28765 -0.08629,3.91203 v 3.79697 q 0,0.94925 0,2.24367 0.02876,1.26566 0.05753,2.35872 l 2.013546,0.40271 v 1.03554 z m 3.394262,-17.20143 q -0.805418,0 -1.380717,-0.51777 -0.546534,-0.51777 -0.546534,-1.32319 0,-0.83418 0.546534,-1.32318 0.575299,-0.51777 1.380717,-0.51777 0.805418,0 1.351952,0.51777 0.575299,0.489 0.575299,1.32318 0,0.80542 -0.575299,1.32319 -0.546534,0.51777 -1.351952,0.51777 z"
       style="stroke-width:0.71912342px"
       id="path4955" />
    <path
       d="m 53.676998,344.43998 q -1.495777,0 -2.38749,-0.80541 -0.891713,-0.80542 -0.891713,-2.47379 0,-0.54653 0,-1.0643 0.02876,-0.54653 0.02876,-1.38072 v -6.78852 h -2.38749 v -1.26566 l 2.560079,-0.31641 0.747889,-3.85451 h 1.725896 l -0.17259,3.91204 h 3.883267 v 1.52454 h -3.912032 v 8.91713 q 0,1.09306 0.431474,1.61083 0.431475,0.48901 1.150598,0.48901 0.489004,0 0.920478,-0.20136 0.460239,-0.20135 1.006773,-0.5753 l 0.690358,0.74789 q -1.179362,1.52454 -3.394262,1.52454 z"
       style="stroke-width:0.71912342px"
       id="path4957" />
    <path
       d="m 67.473831,344.06604 v -1.03554 l 2.15737,-0.40271 q 0.02876,-1.09306 0.02876,-2.35872 0.02877,-1.29442 0.02877,-2.24367 v -1.35195 q 0,-1.17936 -0.02877,-1.95601 0,-0.80542 -0.05753,-1.66837 l -2.301195,-0.25889 v -1.00677 l 4.429801,-1.75466 0.431474,0.28765 -0.08629,3.91203 v 3.79697 q 0,0.94925 0,2.24367 0.02876,1.26566 0.05753,2.35872 l 2.013545,0.40271 v 1.03554 z m 3.394262,-17.20143 q -0.805418,0 -1.380716,-0.51777 -0.546534,-0.51777 -0.546534,-1.32319 0,-0.83418 0.546534,-1.32318 0.575298,-0.51777 1.380716,-0.51777 0.805419,0 1.351952,0.51777 0.575299,0.489 0.575299,1.32318 0,0.80542 -0.575299,1.32319 -0.546533,0.51777 -1.351952,0.51777 z"
       style="stroke-width:0.71912342px"
       id="path4959" />
    <path
       d="m 80.815817,344.43998 q -1.208127,0 -2.2149,-0.28765 -1.006773,-0.25888 -2.071075,-0.80541 l -0.11506,-3.16415 h 1.582071 l 0.546534,2.50255 q 1.006773,0.46024 2.32996,0.46024 1.639602,0 2.416255,-0.60406 0.805418,-0.60407 0.805418,-1.58207 0,-0.92048 -0.661594,-1.46701 -0.661593,-0.5753 -2.013545,-1.03554 l -1.323187,-0.48901 q -1.582072,-0.5753 -2.531315,-1.49577 -0.949242,-0.92048 -0.949242,-2.38749 0,-1.06431 0.575298,-1.98478 0.575299,-0.92048 1.697132,-1.49578 1.121832,-0.5753 2.732668,-0.5753 1.179363,0 2.128606,0.31642 0.978008,0.28764 1.898486,0.86294 l -0.11506,2.93403 H 84.03749 l -0.460239,-2.3012 q -0.978008,-0.489 -1.98478,-0.489 -1.323188,0 -2.013546,0.54653 -0.661594,0.51777 -0.661594,1.40948 0,0.94925 0.575299,1.43825 0.604064,0.489 2.071076,1.03554 l 0.891713,0.31641 q 2.15737,0.80542 3.049083,1.84096 0.920478,1.03554 0.920478,2.38749 0,1.09307 -0.632829,2.04231 -0.632828,0.92048 -1.869721,1.49578 -1.236892,0.57529 -3.106613,0.57529 z"
       style="stroke-width:0.71912342px"
       id="path4961" />
    <path
       d="m 97.758813,344.06604 v -1.03554 l 2.15737,-0.40271 q 0.02876,-1.09306 0.02876,-2.35872 0.02877,-1.29442 0.02877,-2.24367 v -12.6278 l -2.358725,-0.28765 v -1.00678 l 4.401032,-1.29442 0.40271,0.23012 -0.11506,4.08462 v 5.55164 q 1.06431,-1.17937 2.47379,-1.89849 1.40948,-0.74789 2.7902,-0.74789 1.86972,0 2.76143,1.26566 0.92048,1.23689 0.92048,4.05585 v 2.67514 q 0,0.97801 0,2.24367 0.0288,1.26566 0.0575,2.35872 l 2.01354,0.40271 v 1.03554 h -6.67346 v -1.03554 l 2.09984,-0.37394 q 0.0288,-1.09307 0.0288,-2.35873 0.0288,-1.29442 0.0288,-2.27243 v -2.44502 q 0,-1.98478 -0.54654,-2.73267 -0.54653,-0.74788 -1.81219,-0.74788 -1.0643,0 -2.01354,0.43147 -0.94925,0.43147 -2.04231,1.43825 v 4.05585 q 0,0.94925 0,2.24367 0.0288,1.26566 0.0575,2.35872 l 1.98478,0.40271 v 1.03554 z"
       style="stroke-width:0.71912342px"
       id="path4963" />
    <path
       d="m 122.08137,344.43998 q -1.66837,0 -3.19291,-0.77665 -1.49578,-0.80542 -2.44502,-2.38749 -0.94924,-1.61084 -0.94924,-3.96956 0,-2.38749 0.94924,-3.99833 0.94924,-1.6396 2.44502,-2.44502 1.52454,-0.83418 3.19291,-0.83418 1.66836,0 3.16414,0.83418 1.52454,0.80542 2.47378,2.44502 0.97801,1.61084 0.97801,3.99833 0,2.35872 -0.97801,3.96956 -0.94924,1.58207 -2.47378,2.38749 -1.49578,0.77665 -3.16414,0.77665 z m 0,-1.29442 q 1.86972,0 2.87649,-1.46701 1.00677,-1.49578 1.00677,-4.37227 0,-2.90526 -1.00677,-4.4298 -1.00677,-1.52454 -2.87649,-1.52454 -1.86972,0 -2.8765,1.52454 -0.97801,1.52454 -0.97801,4.4298 0,2.87649 0.97801,4.37227 1.00678,1.46701 2.8765,1.46701 z"
       style="stroke-width:0.71912342px"
       id="path4965" />
    <path
       d="m 137.72454,331.35194 q -0.80541,0 -1.6396,0.46024 -0.80542,0.46024 -1.40948,1.46701 -0.5753,1.00677 -0.74789,2.67514 h 5.23522 q 1.03554,0 1.35195,-0.43148 0.34518,-0.43147 0.34518,-1.0643 0,-0.83418 -0.43147,-1.52454 -0.40271,-0.71912 -1.12183,-1.1506 -0.69036,-0.43147 -1.58208,-0.43147 z m -0.0288,13.08804 q -2.90526,0 -4.65992,-1.86972 -1.75466,-1.89848 -1.75466,-5.20645 0,-2.2149 0.89171,-3.8545 0.92048,-1.6396 2.41626,-2.56008 1.52454,-0.92048 3.30796,-0.92048 1.49578,0 2.70391,0.66159 1.20813,0.6616 1.92725,1.89849 0.71912,1.20813 0.71912,2.96279 0,0.489 -0.0575,0.92048 -0.0575,0.40271 -0.14382,0.69036 h -9.17602 q 0.0575,2.64637 1.32319,4.02709 1.26566,1.38071 3.33673,1.38071 1.38072,0 2.3012,-0.54653 0.92048,-0.5753 1.69713,-1.46701 l 0.69036,0.54653 q -0.80542,1.52454 -2.18614,2.44502 -1.38072,0.89171 -3.33673,0.89171 z"
       style="stroke-width:0.71912342px"
       id="path4967" />
    <path
       d="m 160.42547,344.43998 q -1.75466,0 -2.76143,-1.15059 -1.00677,-1.17937 -0.97801,-4.02709 l 0.0863,-7.16247 -2.04231,-0.43148 v -1.03554 l 4.22844,-0.4027 0.28765,0.28764 -0.14382,4.0271 v 4.45856 q 0,1.86972 0.5753,2.64638 0.57529,0.74788 1.72589,0.74788 2.01355,0 4.02709,-1.86972 l 0.0863,-8.45689 -2.04231,-0.40271 v -1.03554 l 4.17091,-0.4027 0.28765,0.28764 -0.0863,4.0271 v 8.08294 l 1.95601,0.40271 v 1.03554 l -3.99832,0.23012 -0.28765,-2.56008 q -1.1506,1.40948 -2.47379,2.07108 -1.29442,0.63282 -2.61761,0.63282 z m 0.40271,-16.94254 q 1.20813,-2.04231 2.56008,-4.05586 0.40271,-0.66159 0.77666,-0.92048 0.4027,-0.25888 0.77665,-0.25888 0.40271,0 0.74789,0.25888 0.34518,0.25889 0.34518,0.83419 0,0.28765 -0.20136,0.66159 -0.17259,0.34518 -0.77665,0.92048 -0.89171,0.80542 -1.75466,1.58207 -0.83419,0.74789 -1.7259,1.52454 z"
       style="stroke-width:0.71912342px"
       id="path4969" />
    <path
       d="m 176.56216,344.43998 q -1.20813,0 -2.2149,-0.28765 -1.00677,-0.25888 -2.07108,-0.80541 l -0.11506,-3.16415 h 1.58208 l 0.54653,2.50255 q 1.00677,0.46024 2.32996,0.46024 1.6396,0 2.41625,-0.60406 0.80542,-0.60407 0.80542,-1.58207 0,-0.92048 -0.66159,-1.46701 -0.6616,-0.5753 -2.01355,-1.03554 l -1.32318,-0.48901 q -1.58208,-0.5753 -2.53132,-1.49577 -0.94924,-0.92048 -0.94924,-2.38749 0,-1.06431 0.5753,-1.98478 0.5753,-0.92048 1.69713,-1.49578 1.12183,-0.5753 2.73267,-0.5753 1.17936,0 2.1286,0.31642 0.97801,0.28764 1.89849,0.86294 l -0.11506,2.93403 h -1.49578 l -0.46024,-2.3012 q -0.978,-0.489 -1.98478,-0.489 -1.32318,0 -2.01354,0.54653 -0.6616,0.51777 -0.6616,1.40948 0,0.94925 0.5753,1.43825 0.60407,0.489 2.07108,1.03554 l 0.89171,0.31641 q 2.15737,0.80542 3.04908,1.84096 0.92048,1.03554 0.92048,2.38749 0,1.09307 -0.63283,2.04231 -0.63283,0.92048 -1.86972,1.49578 -1.23689,0.57529 -3.10661,0.57529 z"
       style="stroke-width:0.71912342px"
       id="path4971" />
    <path
       d="m 192.8148,351.22851 q -1.29442,0 -1.89849,-0.54653 -0.63282,-0.54654 -0.66159,-1.09307 0.37394,-1.17936 1.69713,-1.17936 0.5753,0 1.09307,0.20135 0.51777,0.23012 1.0643,0.66159 l 0.6616,0.48901 q 0.31641,-0.31642 0.46023,-0.77666 0.34518,-0.92047 0.46024,-2.79019 0.14383,-1.84096 0.14383,-5.06263 v -4.45857 q 0,-1.17936 -0.0288,-1.95601 0,-0.80542 -0.0575,-1.66837 l -2.27243,-0.25889 v -1.00677 l 4.34351,-1.75466 0.43147,0.28765 -0.0863,3.91203 v 6.96112 q 0,2.32996 -0.11506,3.94079 -0.11506,1.61084 -0.51777,2.67514 -0.37394,1.09307 -1.1506,1.86972 -0.74789,0.74789 -1.52454,1.1506 -0.77665,0.40271 -2.04231,0.40271 z m 4.19968,-24.3639 q -0.80542,0 -1.38072,-0.51777 -0.54653,-0.51777 -0.54653,-1.32319 0,-0.83418 0.54653,-1.32318 0.5753,-0.51777 1.38072,-0.51777 0.83418,0 1.38072,0.51777 0.5753,0.489 0.5753,1.32318 0,0.80542 -0.5753,1.32319 -0.54654,0.51777 -1.38072,0.51777 z"
       style="stroke-width:0.71912342px"
       id="path4973" />
    <path
       d="m 201.62675,344.06604 v -1.03554 l 2.15737,-0.40271 q 0.0288,-1.09306 0.0288,-2.35872 0.0288,-1.29442 0.0288,-2.24367 v -1.35195 q 0,-1.17936 -0.0288,-1.95601 0,-0.80542 -0.0575,-1.66837 l -2.3012,-0.25889 v -1.00677 l 4.4298,-1.75466 0.43148,0.28765 -0.0863,3.91203 v 3.79697 q 0,0.94925 0,2.24367 0.0288,1.26566 0.0575,2.35872 l 2.01355,0.40271 v 1.03554 z m 3.39426,-17.20143 q -0.80541,0 -1.38071,-0.51777 -0.54654,-0.51777 -0.54654,-1.32319 0,-0.83418 0.54654,-1.32318 0.5753,-0.51777 1.38071,-0.51777 0.80542,0 1.35196,0.51777 0.57529,0.489 0.57529,1.32318 0,0.80542 -0.57529,1.32319 -0.54654,0.51777 -1.35196,0.51777 z"
       style="stroke-width:0.71912342px"
       id="path4975" />
    <path
       d="m 209.93488,344.06604 v -1.03554 l 2.3012,-0.40271 q 0.0288,-1.17936 0.0288,-2.30119 0.0288,-1.1506 0.0288,-2.3012 v -12.6278 l -2.35873,-0.28765 v -1.00678 l 4.48733,-1.29442 0.40271,0.23012 -0.11506,4.08462 v 10.90191 q 0,1.1506 0,2.3012 0.0288,1.1506 0.0575,2.30119 l 2.3012,0.40271 v 1.03554 z"
       style="stroke-width:0.71912342px"
       id="path4977" />
    <path
       d="m 221.69479,337.30628 q 0,2.81896 1.12183,4.17092 1.1506,1.32318 2.87649,1.32318 0.94925,0 1.66837,-0.37394 0.74789,-0.40271 1.55331,-1.29442 v -7.96789 q -0.97801,-0.86295 -1.75466,-1.17936 -0.77666,-0.31642 -1.49578,-0.31642 -1.0643,0 -1.98478,0.60407 -0.89171,0.57529 -1.43825,1.84095 -0.54653,1.23689 -0.54653,3.19291 z m 7.50765,7.04741 -0.20136,-1.98478 q -0.74789,0.97801 -1.72589,1.52454 -0.94925,0.54653 -2.3012,0.54653 -1.75466,0 -3.07785,-0.89171 -1.32318,-0.89171 -2.07107,-2.47378 -0.71913,-1.61084 -0.71913,-3.71068 0,-2.2149 0.80542,-3.8545 0.80542,-1.6396 2.18614,-2.56008 1.38071,-0.92048 3.13538,-0.92048 1.00677,0 1.92725,0.40271 0.94924,0.40271 1.84095,1.46701 v -6.50087 l -2.44502,-0.28765 v -1.00678 l 4.48733,-1.29442 0.40271,0.23012 -0.11506,4.08462 v 15.56183 l 2.32996,0.34518 v 1.03554 z"
       style="stroke-width:0.71912342px"
       id="path4979" />
    <path
       d="m 249.87948,344.43998 q -1.75466,0 -2.76143,-1.15059 -1.00677,-1.17937 -0.97801,-4.02709 l 0.0863,-7.16247 -2.04231,-0.43148 v -1.03554 l 4.22844,-0.4027 0.28765,0.28764 -0.14382,4.0271 v 4.45856 q 0,1.86972 0.5753,2.64638 0.57529,0.74788 1.72589,0.74788 2.01355,0 4.02709,-1.86972 l 0.0863,-8.45689 -2.04231,-0.40271 v -1.03554 l 4.17091,-0.4027 0.28765,0.28764 -0.0863,4.0271 v 8.08294 l 1.95601,0.40271 v 1.03554 l -3.99832,0.23012 -0.28765,-2.56008 q -1.1506,1.40948 -2.47379,2.07108 -1.29442,0.63282 -2.61761,0.63282 z m 0.40271,-16.94254 q 1.20813,-2.04231 2.56008,-4.05586 0.40271,-0.66159 0.77666,-0.92048 0.4027,-0.25888 0.77665,-0.25888 0.40271,0 0.74789,0.25888 0.34518,0.25889 0.34518,0.83419 0,0.28765 -0.20136,0.66159 -0.17259,0.34518 -0.77665,0.92048 -0.89171,0.80542 -1.75466,1.58207 -0.83419,0.74789 -1.7259,1.52454 z"
       style="stroke-width:0.71912342px"
       id="path4981" />
    <path
       d="m 266.15999,344.43998 q -1.49577,0 -2.38749,-0.80541 -0.89171,-0.80542 -0.89171,-2.47379 0,-0.54653 0,-1.0643 0.0288,-0.54653 0.0288,-1.38072 v -6.78852 h -2.38749 v -1.26566 l 2.56008,-0.31641 0.74788,-3.85451 h 1.7259 l -0.17259,3.91204 h 3.88327 v 1.52454 h -3.91203 v 8.91713 q 0,1.09306 0.43147,1.61083 0.43147,0.48901 1.1506,0.48901 0.489,0 0.92047,-0.20136 0.46024,-0.20135 1.00678,-0.5753 l 0.69036,0.74789 q -1.17937,1.52454 -3.39427,1.52454 z"
       style="stroke-width:0.71912342px"
       id="path4983" />
    <path
       d="m 269.7619,351.22851 q -1.29442,0 -1.89849,-0.54653 -0.63283,-0.54654 -0.66159,-1.09307 0.37394,-1.17936 1.69713,-1.17936 0.5753,0 1.09307,0.20135 0.51777,0.23012 1.0643,0.66159 l 0.66159,0.48901 q 0.31642,-0.31642 0.46024,-0.77666 0.34518,-0.92047 0.46024,-2.79019 0.14383,-1.84096 0.14383,-5.06263 v -4.45857 q 0,-1.17936 -0.0288,-1.95601 0,-0.80542 -0.0575,-1.66837 l -2.27243,-0.25889 v -1.00677 l 4.34351,-1.75466 0.43147,0.28765 -0.0863,3.91203 v 6.96112 q 0,2.32996 -0.11506,3.94079 -0.11506,1.61084 -0.51777,2.67514 -0.37395,1.09307 -1.1506,1.86972 -0.74789,0.74789 -1.52454,1.1506 -0.77666,0.40271 -2.04231,0.40271 z m 4.19968,-24.3639 q -0.80542,0 -1.38072,-0.51777 -0.54653,-0.51777 -0.54653,-1.32319 0,-0.83418 0.54653,-1.32318 0.5753,-0.51777 1.38072,-0.51777 0.83418,0 1.38072,0.51777 0.57529,0.489 0.57529,1.32318 0,0.80542 -0.57529,1.32319 -0.54654,0.51777 -1.38072,0.51777 z"
       style="stroke-width:0.71912342px"
       id="path4985" />
    <path
       d="m 283.98166,344.43998 q -1.75466,0 -2.76144,-1.15059 -1.00677,-1.17937 -0.97801,-4.02709 l 0.0863,-7.16247 -2.04231,-0.43148 v -1.03554 l 4.22844,-0.4027 0.28765,0.28764 -0.14382,4.0271 v 4.45856 q 0,1.86972 0.5753,2.64638 0.5753,0.74788 1.72589,0.74788 2.01355,0 4.0271,-1.86972 l 0.0863,-8.45689 -2.04231,-0.40271 v -1.03554 l 4.17092,-0.4027 0.28764,0.28764 -0.0863,4.0271 v 8.08294 l 1.95602,0.40271 v 1.03554 l -3.99833,0.23012 -0.28765,-2.56008 q -1.1506,1.40948 -2.47378,2.07108 -1.29443,0.63282 -2.61761,0.63282 z m 5.35027,-16.0796 -3.62438,-3.2792 -3.62438,3.2792 -0.66159,-0.63282 3.79697,-5.06263 h 0.97801 l 3.79697,5.06263 z"
       style="stroke-width:0.71912342px"
       id="path4987" />
    <path
       d="m 295.51595,344.06604 v -1.03554 l 2.12861,-0.40271 q 0.0288,-1.09306 0.0288,-2.35872 0.0288,-1.26566 0.0288,-2.24367 v -1.38071 q 0,-1.17937 -0.0288,-1.95602 0,-0.77665 -0.0575,-1.6396 l -2.27243,-0.25889 v -1.00677 l 4.02709,-1.75466 0.43148,0.28765 0.23012,2.3012 q 1.0643,-1.1506 2.44502,-1.86973 1.38071,-0.71912 2.7039,-0.71912 1.86972,0 2.76143,1.26566 0.92048,1.23689 0.92048,4.05585 v 2.67514 q 0,0.97801 0,2.24367 0.0288,1.26566 0.0575,2.35872 l 2.01355,0.40271 v 1.03554 h -6.67347 v -1.03554 l 2.12861,-0.40271 q 0.0288,-1.0643 0.0288,-2.32996 0.0288,-1.29442 0.0288,-2.27243 v -2.44502 q 0,-1.98478 -0.5753,-2.73267 -0.54653,-0.74788 -1.81219,-0.74788 -0.97801,0 -1.89849,0.40271 -0.92048,0.4027 -2.01354,1.32318 v 4.19968 q 0,0.94925 0,2.24367 0.0288,1.26566 0.0575,2.35872 l 1.98478,0.40271 v 1.03554 z"
       style="stroke-width:0.71912342px"
       id="path4989" />
    <path
       d="m 337.56714,331.52453 v -1.12183 h 5.26398 v 1.12183 l -1.5533,0.37394 -4.19968,12.34016 h -1.06431 l -3.73944,-10.21155 -3.79697,10.21155 h -1.0643 l -4.63116,-12.42645 -1.6396,-0.28765 v -1.12183 h 6.55841 v 1.12183 l -2.24367,0.34518 2.96279,8.83083 3.22167,-8.83083 -2.1286,-0.34518 v -1.12183 h 6.35705 v 1.12183 l -2.12861,0.37394 3.27921,8.77331 2.67514,-8.74454 z"
       style="stroke-width:0.71912342px"
       id="path4991" />
    <path
       d="m 349.52392,344.43998 q -1.75466,0 -2.76143,-1.15059 -1.00677,-1.17937 -0.97801,-4.02709 l 0.0863,-7.16247 -2.04231,-0.43148 v -1.03554 l 4.22844,-0.4027 0.28765,0.28764 -0.14382,4.0271 v 4.45856 q 0,1.86972 0.5753,2.64638 0.57529,0.74788 1.72589,0.74788 2.01355,0 4.02709,-1.86972 l 0.0863,-8.45689 -2.04231,-0.40271 v -1.03554 l 4.17091,-0.4027 0.28765,0.28764 -0.0863,4.0271 v 8.08294 l 1.95601,0.40271 v 1.03554 l -3.99832,0.23012 -0.28765,-2.56008 q -1.1506,1.40948 -2.47379,2.07108 -1.29442,0.63282 -2.61761,0.63282 z"
       style="stroke-width:0.71912342px"
       id="path4993" />
    <path
       d="m 361.11575,344.06604 v -1.03554 l 2.07107,-0.37394 q 0.0288,-1.09307 0.0288,-2.35873 0.0288,-1.29442 0.0288,-2.27243 v -1.38071 q 0,-1.17937 -0.0288,-1.95602 0,-0.77665 -0.0575,-1.6396 l -2.27243,-0.25889 v -1.00677 l 4.02709,-1.75466 0.43147,0.28765 0.31642,3.39426 q 0.71912,-1.72589 1.84095,-2.7039 1.1506,-0.97801 2.3012,-0.97801 0.66159,0 1.23689,0.28765 0.5753,0.28765 0.83418,0.77665 0,2.09984 -1.69713,2.09984 -0.489,0 -0.92047,-0.17259 -0.43148,-0.20135 -0.83419,-0.54653 l -0.34518,-0.31641 q -0.86294,0.63282 -1.43824,1.5533 -0.5753,0.92048 -0.94925,2.15737 v 2.15737 q 0,0.94925 0,2.2149 0.0288,1.26566 0.0575,2.35873 l 2.35873,0.43147 v 1.03554 z"
       style="stroke-width:0.71912342px"
       id="path4995" />
    <path
       d="m 375.70135,337.30628 q 0,2.81896 1.12183,4.17092 1.1506,1.32318 2.8765,1.32318 0.94924,0 1.66836,-0.37394 0.74789,-0.40271 1.55331,-1.29442 v -7.96789 q -0.97801,-0.86295 -1.75466,-1.17936 -0.77666,-0.31642 -1.49578,-0.31642 -1.0643,0 -1.98478,0.60407 -0.89171,0.57529 -1.43825,1.84095 -0.54653,1.23689 -0.54653,3.19291 z m 7.50765,7.04741 -0.20136,-1.98478 q -0.74789,0.97801 -1.72589,1.52454 -0.94925,0.54653 -2.3012,0.54653 -1.75466,0 -3.07785,-0.89171 -1.32318,-0.89171 -2.07107,-2.47378 -0.71913,-1.61084 -0.71913,-3.71068 0,-2.2149 0.80542,-3.8545 0.80542,-1.6396 2.18614,-2.56008 1.38072,-0.92048 3.13538,-0.92048 1.00677,0 1.92725,0.40271 0.94924,0.40271 1.84095,1.46701 v -6.50087 l -2.44502,-0.28765 v -1.00678 l 4.48733,-1.29442 0.40271,0.23012 -0.11506,4.08462 v 15.56183 l 2.32996,0.34518 v 1.03554 z"
       style="stroke-width:0.71912342px"
       id="path4997" />
    <path
       d="m 394.00756,344.43998 q -1.49578,0 -2.38749,-0.80541 -0.89171,-0.80542 -0.89171,-2.47379 0,-0.54653 0,-1.0643 0.0288,-0.54653 0.0288,-1.38072 v -6.78852 h -2.38749 v -1.26566 l 2.56008,-0.31641 0.74789,-3.85451 h 1.72589 l -0.17258,3.91204 h 3.88326 v 1.52454 h -3.91203 v 8.91713 q 0,1.09306 0.43147,1.61083 0.43148,0.48901 1.1506,0.48901 0.48901,0 0.92048,-0.20136 0.46024,-0.20135 1.00677,-0.5753 l 0.69036,0.74789 q -1.17936,1.52454 -3.39426,1.52454 z"
       style="stroke-width:0.71912342px"
       id="path4999" />
  </g>
</svg>
