<svg version="1" xmlns="http://www.w3.org/2000/svg" width="933.333" height="933.333" viewBox="0 0 700.000000 700.000000"><path d="M337.9 5.4c-.2.2-2.4.6-4.9 1-28.4 3.7-57.3 16-79.5 33.9-7.3 5.9-21.2 20.1-27.6 28.2-14.9 18.8-26.1 42.9-30.8 66.1-3 15.1-3.4 22.7-3.5 66.7-.1 39.7-.2 40.9-2.1 42.3-13 9.3-19.6 21-20 35.6-.5 14.2 3.7 25.7 12.7 34.6 2.8 2.8 5.5 5.2 5.9 5.2.4 0 1.4.6 2.1 1.4 1.1 1.1 1.4 7 1.4 30l-.1 28.6-4.9 4c-11.8 9.7-17.6 22.4-17 36.7.2 5.6 2.9 17 4.3 18.3.3.3 1.3 1.8 2 3.3 1.8 3.4 7.3 9.3 12.1 13l3.5 2.6.1 42.3c.1 23.3.4 44.5.8 47.3.4 2.7.9 7 1.2 9.5 2.7 22.3 15.1 51.8 30.5 72.3 27 36.1 63.4 57.8 108.9 65.2 8.6 1.3 40.4 1.4 46.5.1 1.7-.4 6.4-1.4 10.5-2.2 22.8-4.7 48.1-16.5 67.3-31.5 21.9-17.1 44-47 48.2-65.1 4.4-19.7-5.7-39.7-25-49.3-10-5-19.3-6.2-30.3-3.9-14.4 3-24.7 11.1-32.7 25.9-13.3 24.3-33.9 36.8-61 36.9-9.5.1-12.2-.3-20-2.8-25.6-8.4-43-27.8-48.4-54.2-.6-3-1-21.6-1.1-44.7V463h9.2c5.1-.1 32.8-.1 61.6-.1 37.4-.1 53.8-.5 57.6-1.3 11.9-2.8 22.1-10.3 27.6-20.3 3.8-6.9 5-11.3 5.7-20.5 1.5-21.2-10.8-39.5-30.3-45.4-5.3-1.6-11.8-1.8-67.9-2-34.1-.1-62.3-.2-62.7-.3-.5-.1-.8-10.6-.8-23.4v-23.2h61.3c65.9.1 67.9 0 77.9-5.1 6.5-3.3 14.9-11.6 18.1-18 2.1-4.3 2.9-6.5 4.4-13.4.2-.8.3-4.9.3-9 .1-21.2-13.7-38.6-33.8-42.9-3.6-.7-25.1-1.1-66.8-1.1H287v-40.3c.1-42.7.5-46.8 5.1-58.2 7.9-19.3 27.1-35.8 47.9-41.1 21.2-5.4 46.1.6 62.8 15.2 5.1 4.4 12.5 14.1 16.3 21.4 15.9 30.2 54.5 35.1 77.4 9.8 11.4-12.5 14.8-30.1 8.8-45.1-10-24.9-36.6-54.3-64.3-70.8-7.2-4.3-8.9-5.2-19.1-9.8-9.7-4.3-26.9-9.3-40.4-11.6-4.2-.7-43-1.7-43.6-1.1z"/></svg>